<svg width="1728" height="660" viewBox="0 0 1728 660" fill="none" xmlns="http://www.w3.org/2000/svg">
<path d="M-26.6205 2.95093C358.858 36.5755 893.405 418.75 844.075 551.643C811.727 638.761 432.745 636.805 329.205 652.517C188.007 673.914 455.362 593.811 509.814 501.206C574.51 391.162 476.307 101.868 787.844 152.733C1059.73 197.148 1118.6 341 1313.5 337.668C1489.76 334.612 1627.08 213.869 1715.15 112.995" stroke="#254791" stroke-opacity="0.05" stroke-width="5" stroke-miterlimit="10"/>
<path d="M-26.6474 11.7698C342.657 49.2612 856.907 419.376 815.798 546.707C788.841 630.126 429.915 627.344 334.112 641.467C201.297 661.015 457.249 584.03 511.243 495.184C575.939 388.656 486.659 111.803 787.413 160.849C1055.71 204.485 1109.87 351.684 1306.51 351.898C1483.11 351.714 1625.84 233.585 1717.79 134.866" stroke="#254791" stroke-opacity="0.05" stroke-width="5" stroke-miterlimit="10"/>
<path d="M-26.6793 20.5425C326.451 61.9007 820.402 419.926 787.542 541.724C765.977 621.445 427.08 617.838 339.013 630.37C214.555 648.008 459.131 574.202 512.667 489.101C577.362 386.088 497.032 121.707 786.976 168.919C1051.69 211.79 1101.13 362.719 1299.55 366.081C1476.44 369.138 1624.6 253.271 1720.45 156.692" stroke="#254791" stroke-opacity="0.05" stroke-width="5" stroke-miterlimit="10"/>
<path d="M-26.6793 29.377C310.277 74.6173 783.93 420.492 759.292 536.803C743.118 612.779 424.249 608.392 343.919 619.336C227.763 634.956 461.045 564.375 514.095 483.034C578.98 383.52 507.41 131.611 786.572 176.974C1047.67 219.096 1092.34 373.601 1292.55 380.25C1469.73 386.195 1623.33 272.972 1723.1 178.502" stroke="#254791" stroke-opacity="0.05" stroke-width="5" stroke-miterlimit="10"/>
<path d="M-26.7045 38.1804C294.24 87.2876 747.433 420.981 731.043 531.851C720.261 604.067 421.448 598.901 348.854 608.178C241.028 621.934 462.988 554.562 515.526 476.966C580.518 380.968 517.79 141.53 786.142 185.043C1043.66 226.402 1083.58 384.315 1285.62 394.433C1463.05 403.313 1622.15 292.657 1725.77 200.327" stroke="#254791" stroke-opacity="0.05" stroke-width="5" stroke-miterlimit="10"/>
<path d="M-26.7314 46.9841C278.093 99.9734 710.934 421.44 702.766 526.899C697.375 595.31 418.644 589.41 353.76 597.098C254.344 608.866 464.983 544.735 516.955 470.899C582.082 378.4 528.169 151.465 785.738 193.129C1039.61 233.738 1074.79 395.106 1278.64 408.632C1456.36 420.431 1620.99 312.343 1728.43 222.168" stroke="#254791" stroke-opacity="0.05" stroke-width="5" stroke-miterlimit="10"/>
<path d="M-26.7314 55.803C261.946 112.659 674.408 421.669 674.516 521.962C674.516 586.506 415.733 579.888 358.666 586.002C267.607 595.738 466.977 534.923 518.383 464.846C583.672 375.833 538.52 161.354 785.253 201.214C1035.54 241.044 1065.92 405.866 1271.63 422.831C1449.54 437.503 1619.61 332.09 1731.05 244.009" stroke="#254791" stroke-opacity="0.05" stroke-width="5" stroke-miterlimit="10"/>
<path d="M-26.7582 64.6062C245.772 125.329 637.828 421.898 646.265 517.01C651.657 577.656 413.091 570.351 363.599 574.921C280.87 582.563 469.053 525.11 519.947 458.763C585.451 373.173 548.898 171.548 785.01 209.268C1031.55 248.655 1057.27 416.579 1264.84 436.999C1443.1 454.545 1618.56 351.776 1733.88 265.819" stroke="#254791" stroke-opacity="0.05" stroke-width="5" stroke-miterlimit="10"/>
<path d="M-26.7834 73.4102C229.627 138.015 601.142 422.036 617.99 512.058C628.61 568.746 410.424 560.799 368.507 563.825C294.188 569.205 471.13 515.298 521.27 452.726C586.963 370.682 559.009 181.513 784.473 217.354C1027.41 256.007 1048.4 427.278 1257.75 451.198C1436.25 471.587 1617.21 371.492 1736.42 287.66" stroke="#254791" stroke-opacity="0.05" stroke-width="5" stroke-miterlimit="10"/>
<path d="M-26.7834 82.2131C213.48 150.685 564.346 422.051 589.739 507.106C605.482 559.789 407.783 551.2 373.413 552.743C307.531 555.693 473.152 505.486 522.698 446.658C588.688 368.114 569.495 191.417 784.177 225.454C1023.5 263.373 1039.75 437.977 1250.9 465.411C1429.68 488.627 1616.11 391.208 1739.22 309.515" stroke="#254791" stroke-opacity="0.05" stroke-width="5" stroke-miterlimit="10"/>
<path d="M-26.8103 91.0168C197.333 163.371 527.335 421.975 561.489 502.154C582.191 550.787 405.357 541.571 378.185 541.663C320.929 541.846 475.228 495.689 523.992 440.59C590.305 365.531 579.711 201.367 783.503 233.524C1019.18 270.725 1030.69 448.63 1243.68 479.595C1422.72 505.578 1614.6 410.909 1741.59 331.341" stroke="#254791" stroke-opacity="0.05" stroke-width="5" stroke-miterlimit="10"/>
<path d="M-26.8372 99.8357C181.186 176.041 490.081 421.806 533.239 497.217C558.712 541.739 402.338 534.403 383.252 530.567C335.054 533.623 477.6 485.892 525.556 434.538C592.246 362.963 590.252 211.286 783.206 241.609C1015.3 278.061 1022.07 459.267 1236.83 493.794C1416.17 522.604 1613.49 430.625 1744.4 353.182" stroke="#254791" stroke-opacity="0.05" stroke-width="5" stroke-miterlimit="10"/>
<path d="M-26.8372 108.639C165.012 188.726 452.45 421.577 504.961 492.265C534.991 532.675 399.588 525.095 388.158 519.485C348.425 520.891 479.999 476.11 526.985 428.47C594.133 360.395 600.603 221.205 782.775 249.648C1011.26 285.366 1013.31 469.859 1229.88 507.946C1409.51 539.538 1612.25 450.295 1747.06 374.976" stroke="#254791" stroke-opacity="0.05" stroke-width="5" stroke-miterlimit="10"/>
<path d="M-26.8623 117.443C148.867 201.397 414.416 421.363 476.712 487.313C511.001 523.628 396.813 515.787 393.147 508.39C361.851 508.13 482.454 466.329 528.496 422.418C596.184 357.828 611.064 231.109 782.453 257.764C1007.32 292.734 1004.66 480.497 1223 522.176C1402.94 556.519 1611.18 470.043 1749.79 396.848" stroke="#254791" stroke-opacity="0.05" stroke-width="5" stroke-miterlimit="10"/>
<path d="M-26.8942 126.246C132.715 214.082 375.917 421.225 448.457 482.361C486.735 514.625 394.059 506.479 397.967 497.308C375.135 495.367 484.821 456.577 529.839 416.304C598.174 355.168 621.356 240.967 781.936 265.788C1003.22 300.009 995.836 491.027 1215.94 536.313C1396.19 573.422 1609.8 489.697 1752.37 418.627" stroke="#254791" stroke-opacity="0.05" stroke-width="5" stroke-miterlimit="10"/>
<path d="M-26.8942 135.05C116.568 226.753 337.019 421.302 420.18 477.409C462.205 505.73 391.282 497.171 402.901 486.228C388.506 482.621 487.355 446.842 531.268 410.298C600.357 352.8 631.735 250.902 781.505 273.919C999.206 307.361 987.129 501.65 1208.98 550.558C1389.59 590.388 1608.56 509.444 1755.04 440.514" stroke="#254791" stroke-opacity="0.05" stroke-width="5" stroke-miterlimit="10"/>
<path d="M-26.9211 143.853C100.422 239.439 297.528 421.684 391.929 472.457C437.513 496.988 388.533 487.863 407.807 475.132C401.876 469.859 489.97 437.151 532.696 404.23C602.648 350.339 642.113 260.79 781.101 281.958C995.189 314.62 978.449 512.134 1202 564.711C1382.96 607.261 1607.32 529.115 1757.68 462.309" stroke="#254791" stroke-opacity="0.05" stroke-width="5" stroke-miterlimit="10"/>
<path d="M-26.948 152.672C84.2477 252.109 257.902 422.478 363.679 467.52C412.767 488.413 385.756 478.555 412.713 464.051C415.247 457.112 492.693 427.492 534.017 398.162C605.021 347.954 652.41 270.679 780.562 290.074C991.065 321.941 969.689 522.726 1194.94 578.94C1376.25 624.196 1606 548.861 1760.24 484.18" stroke="#254791" stroke-opacity="0.05" stroke-width="5" stroke-miterlimit="10"/>
<path d="M-26.948 161.476C68.1007 264.795 218.222 423.686 335.429 462.568C388.048 480.023 386.888 471.586 417.619 452.97C430.423 445.206 495.496 417.817 535.581 392.11C607.77 345.677 662.923 280.537 780.265 298.16C987.183 329.216 961.143 533.241 1188.06 593.139C1369.78 641.1 1604.86 568.562 1763.02 506.021" stroke="#254791" stroke-opacity="0.05" stroke-width="5" stroke-miterlimit="10"/>
<path d="M-26.9734 170.324C51.9552 277.51 178.759 425.352 307.287 457.662C363.653 471.845 382.119 461.223 422.688 441.919C443.04 432.229 498.517 408.402 537.146 386.087C610.764 343.583 673.438 290.456 779.97 306.275C983.33 336.491 952.653 543.802 1181.24 607.368C1363.36 658.019 1603.76 588.324 1765.8 527.891" stroke="#254791" stroke-opacity="0.05" stroke-width="5" stroke-miterlimit="10"/>
<path d="M-27 179.083C35.8087 290.151 139.672 427.233 278.903 452.665C339.204 463.685 378.13 451.137 427.46 430.794C455.71 419.132 501.321 398.912 538.44 379.99C613.703 341.612 683.763 300.178 779.404 314.269C979.314 343.462 944.082 554.043 1174.13 621.476C1356.79 674.679 1602.39 607.934 1768.33 549.642" stroke="#254791" stroke-opacity="0.05" stroke-width="5" stroke-miterlimit="10"/>
<path d="M-27 187.886C19.6617 302.821 101.07 429.372 250.652 447.713C443.85 471.479 592.811 295.424 779 322.385C975.297 350.828 935.348 564.742 1167.17 635.705C1350.13 691.736 1601.17 627.696 1771 571.513" stroke="#254791" stroke-opacity="0.05" stroke-width="5" stroke-miterlimit="10"/>
</svg>
