<svg width="503" height="350" viewBox="0 0 503 350" fill="none" xmlns="http://www.w3.org/2000/svg">
<path d="M497.32 169.164L450.121 141.914C449.605 141.533 448.994 141.3 448.355 141.239C447.716 141.179 447.073 141.294 446.494 141.572L432.186 149.816C431.656 150.177 431.235 150.676 430.967 151.259C430.7 151.842 430.596 152.487 430.667 153.125V202.101C430.763 203.872 431.276 205.595 432.164 207.13C433.052 208.664 434.291 209.968 435.778 210.933L483.035 238.23C483.548 238.609 484.154 238.841 484.788 238.904C485.423 238.966 486.062 238.855 486.639 238.583C487.557 238.054 500.052 230.811 500.97 230.34C501.498 229.977 501.917 229.477 502.182 228.894C502.448 228.312 502.55 227.668 502.477 227.031V177.996C502.374 176.221 501.853 174.496 500.957 172.961C500.061 171.427 498.814 170.125 497.32 169.164Z" fill="#5A6E78"/>
<path d="M502.43 177.996V226.984C502.503 227.62 502.4 228.264 502.135 228.847C501.869 229.43 501.45 229.93 500.923 230.293L486.686 238.536C487.168 238.155 487.547 237.659 487.787 237.093C488.028 236.527 488.123 235.91 488.063 235.298V186.309C488.006 184.533 487.491 182.801 486.568 181.281L500.935 173.038C501.843 174.538 502.357 176.243 502.43 177.996Z" fill="#263238"/>
<path d="M435.778 210.969L483.035 238.23C485.849 239.855 488.134 238.536 488.134 235.286V186.298C488.037 184.529 487.525 182.807 486.639 181.273C485.754 179.738 484.519 178.434 483.035 177.466L435.766 150.216C432.951 148.591 430.667 149.91 430.667 153.16V202.137C430.763 203.907 431.276 205.63 432.164 207.165C433.052 208.7 434.29 210.003 435.778 210.969Z" fill="#7F939D"/>
<path d="M466.301 179.055C466.438 178.844 466.629 178.673 466.855 178.561C466.993 178.528 467.137 178.527 467.275 178.558C467.414 178.588 467.544 178.65 467.656 178.738L470.282 180.221C470.561 180.393 470.789 180.637 470.941 180.928C471.105 181.227 471.19 181.564 471.188 181.905C471.197 181.995 471.197 182.086 471.188 182.176C471.163 182.274 471.128 182.369 471.082 182.459L452.417 209.391C452.281 209.598 452.094 209.768 451.876 209.885C451.736 209.918 451.59 209.919 451.449 209.889C451.309 209.858 451.177 209.797 451.063 209.709L448.461 208.213C448.18 208.052 447.954 207.81 447.813 207.518C447.65 207.218 447.565 206.882 447.566 206.541C447.555 206.451 447.555 206.36 447.566 206.27C447.585 206.169 447.625 206.072 447.683 205.987L466.301 179.055Z" fill="#FAFAFA"/>
<path d="M475.039 210.686C474.963 208.39 474.372 206.14 473.308 204.103C472.321 202.189 470.804 200.599 468.939 199.522C467.078 198.451 465.63 198.345 464.57 199.051C463.51 199.758 462.945 201.406 462.839 203.644C462.792 204.704 462.768 205.646 462.768 206.47C462.768 207.306 462.768 208.237 462.839 209.273C462.947 211.576 463.57 213.826 464.664 215.856C465.64 217.732 467.12 219.298 468.939 220.378C470.694 221.39 472.118 221.555 473.214 220.79C474.309 220.024 474.909 218.552 475.039 216.315C475.039 215.338 475.11 214.431 475.11 213.606C475.11 212.782 475.086 211.805 475.039 210.686ZM470.564 214.49C470.558 215.148 470.413 215.798 470.14 216.397C469.905 216.821 469.504 216.868 468.962 216.55C468.391 216.201 467.971 215.651 467.785 215.008C467.539 214.245 467.396 213.453 467.361 212.653C467.243 209.72 467.243 208.142 467.361 205.587C467.364 204.932 467.509 204.285 467.785 203.691C468.02 203.255 468.421 203.208 468.962 203.526C469.531 203.878 469.951 204.427 470.14 205.069C470.385 205.832 470.528 206.624 470.564 207.424C470.692 209.777 470.692 212.136 470.564 214.49Z" fill="#FAFAFA"/>
<path d="M455.95 179.291C455.876 176.991 455.285 174.737 454.219 172.697C453.21 170.798 451.678 169.228 449.803 168.175C447.942 167.103 446.494 166.997 445.434 167.715C444.374 168.434 443.809 170.07 443.703 172.308C443.656 173.352 443.632 174.294 443.632 175.134C443.632 175.958 443.632 176.901 443.703 177.925C443.811 180.232 444.435 182.486 445.528 184.52C446.504 186.396 447.984 187.962 449.803 189.042C451.558 190.054 452.983 190.219 454.078 189.454C455.173 188.688 455.774 187.216 455.903 184.967C455.903 183.99 455.974 183.095 455.974 182.259C455.974 181.423 455.95 180.398 455.95 179.291ZM451.475 183.095C451.472 183.75 451.327 184.397 451.051 184.991C450.816 185.426 450.415 185.474 449.874 185.156C449.311 184.797 448.893 184.25 448.696 183.613C448.45 182.851 448.312 182.058 448.284 181.258C448.156 178.904 448.156 176.546 448.284 174.192C448.28 173.534 448.421 172.882 448.696 172.284C448.943 171.86 449.344 171.802 449.874 172.131C450.448 172.477 450.869 173.029 451.051 173.674C451.298 174.436 451.44 175.229 451.475 176.029C451.588 178.383 451.572 180.742 451.428 183.095H451.475Z" fill="#FAFAFA"/>
<path d="M5.67994 159.647L53.3669 132.15C53.8881 131.765 54.5042 131.53 55.149 131.469C55.7939 131.409 56.443 131.525 57.0269 131.805L71.4648 140.123C71.9994 140.488 72.4246 140.992 72.6946 141.58C72.9647 142.168 73.0695 142.819 72.9978 143.462V192.884C72.9008 194.671 72.3831 196.41 71.4869 197.958C70.5907 199.507 69.3413 200.822 67.8405 201.797L20.213 229.306C19.6954 229.688 19.0842 229.923 18.444 229.986C17.8039 230.048 17.1586 229.937 16.5767 229.663C15.6499 229.128 3.04189 221.82 2.11501 221.344C1.5826 220.978 1.15981 220.474 0.891894 219.886C0.623974 219.297 0.520991 218.647 0.593964 218.005V168.56C0.684873 166.78 1.19245 165.046 2.07583 163.498C2.9592 161.95 4.19371 160.631 5.67994 159.647Z" fill="#5A6E78"/>
<path d="M0.522797 168.56V217.994C0.449824 218.636 0.552807 219.286 0.820727 219.874C1.08865 220.462 1.51142 220.966 2.04383 221.333L16.4105 229.651C15.9238 229.266 15.5415 228.765 15.2986 228.194C15.0557 227.623 14.96 227.001 15.0202 226.383V176.949C15.0781 175.156 15.5979 173.409 16.5294 171.875L2.03196 163.557C1.11555 165.071 0.596431 166.792 0.522797 168.56Z" fill="#263238"/>
<path d="M67.781 201.832L20.1534 229.342C17.3134 230.982 15.0081 229.651 15.0081 226.371V176.937C15.1056 175.152 15.6223 173.415 16.5162 171.867C17.4101 170.318 18.6562 169.002 20.1534 168.025L67.7928 140.528C70.6329 138.888 72.9382 140.219 72.9382 143.498V192.92C72.8412 194.707 72.3235 196.445 71.4273 197.994C70.5311 199.543 69.2817 200.858 67.781 201.832Z" fill="#7F939D"/>
<path d="M50.9904 161.549C51.1369 161.137 51.3198 160.739 51.537 160.36C51.7406 160.041 52.0229 159.779 52.3569 159.6L54.995 158.043C55.2802 157.889 55.4941 157.865 55.6604 158.043C55.7544 158.132 55.826 158.242 55.8693 158.364C55.9127 158.486 55.9266 158.616 55.91 158.744C55.9192 158.851 55.9192 158.958 55.91 159.065C55.8798 159.206 55.8401 159.345 55.7911 159.481L37.0277 208.321C36.8812 208.732 36.6983 209.13 36.4811 209.509C36.2743 209.826 35.9928 210.087 35.6612 210.269L33.0231 211.814C32.7379 211.981 32.524 212.004 32.3577 211.886C32.2628 211.795 32.1907 211.683 32.1473 211.559C32.1039 211.435 32.0905 211.303 32.1081 211.173C32.0996 211.07 32.0996 210.966 32.1081 210.864C32.1383 210.722 32.178 210.583 32.227 210.448L50.9904 161.549Z" fill="#FAFAFA"/>
<path d="M60.6752 182.748C60.5643 180.427 59.982 178.882 58.9284 178.114C57.8747 177.345 56.4052 177.504 54.5197 178.589C52.6379 179.67 51.1074 181.271 50.1111 183.2C49.0266 185.255 48.429 187.531 48.3643 189.854C48.3643 190.971 48.293 191.957 48.293 192.789C48.293 193.621 48.293 194.548 48.3643 195.522C48.495 197.792 49.101 199.301 50.2062 200.05C51.3113 200.798 52.7491 200.656 54.5197 199.634C56.3549 198.545 57.849 196.964 58.8333 195.071C59.9369 193.018 60.5663 190.744 60.6752 188.416C60.7227 187.386 60.7465 186.448 60.7465 185.6C60.7465 184.752 60.7227 183.802 60.6752 182.748ZM56.1477 191.803C56.1206 192.611 55.9806 193.411 55.7318 194.18C55.5356 194.824 55.1138 195.377 54.5435 195.736C53.9731 196.057 53.5691 196.01 53.3552 195.57C53.0767 194.97 52.9308 194.318 52.9274 193.657C52.798 191.282 52.798 188.902 52.9274 186.527C52.9627 185.719 53.1066 184.92 53.3552 184.15C53.5433 183.501 53.9672 182.946 54.5435 182.593C55.102 182.261 55.506 182.32 55.7318 182.748C56.0097 183.351 56.1516 184.009 56.1477 184.673C56.2773 187.048 56.2773 189.428 56.1477 191.803Z" fill="#FAFAFA"/>
<path d="M39.2736 174.418C39.1785 172.105 38.5962 170.56 37.5267 169.784C36.4573 169.007 34.9877 169.162 33.1181 170.247C31.2419 171.337 29.7164 172.941 28.7213 174.87C27.6369 176.925 27.0392 179.202 26.9745 181.524C26.9745 182.641 26.8914 183.616 26.8914 184.459C26.8914 185.303 26.8913 186.206 26.9745 187.192C27.0934 189.462 27.7113 190.959 28.8164 191.708C29.9215 192.457 31.3475 192.326 33.1181 191.304C34.9538 190.21 36.4477 188.626 37.4317 186.729C38.5424 184.684 39.1723 182.412 39.2736 180.086C39.2736 179.041 39.3567 178.102 39.3567 177.27C39.3567 176.438 39.3211 175.476 39.2736 174.418ZM34.758 183.461C34.7227 184.269 34.5788 185.068 34.3302 185.838C34.1463 186.489 33.7214 187.045 33.1419 187.395C32.5834 187.727 32.1793 187.668 31.9536 187.24C31.6626 186.641 31.5161 185.981 31.5258 185.315C31.3963 182.94 31.3963 180.56 31.5258 178.185C31.5496 177.376 31.6938 176.575 31.9536 175.808C32.1407 175.159 32.5647 174.603 33.1419 174.252C33.7123 173.919 34.1163 173.978 34.3302 174.406C34.6072 175.006 34.7531 175.659 34.758 176.319C34.888 178.698 34.888 181.082 34.758 183.461Z" fill="#FAFAFA"/>
<path d="M446.906 290.855L450.298 292.814C450.388 292.875 450.46 292.958 450.508 293.055C450.563 293.158 450.594 293.273 450.598 293.39V307.054C450.598 307.255 450.488 307.355 450.348 307.305C450.33 307.299 450.313 307.291 450.298 307.28L446.901 305.32C446.811 305.262 446.738 305.181 446.69 305.085C446.637 304.981 446.608 304.866 446.605 304.749V291.085C446.605 290.865 446.735 290.755 446.906 290.855ZM447.206 304.694L449.982 306.308V293.435L447.186 291.822L447.206 304.694ZM435.016 289.978C434.402 289.206 434.05 288.258 434.013 287.272C434.013 286.33 434.359 285.945 434.705 285.819C434.383 285.186 434.211 284.486 434.204 283.775C434.204 282.823 434.745 281.716 435.902 282.392L440.232 284.897C439.926 283.242 440.066 281.535 440.637 279.952C441.138 278.594 442.451 279.02 443.143 279.606C443.319 279.73 443.466 279.891 443.573 280.078C443.679 280.265 443.743 280.474 443.759 280.689C443.759 280.824 443.759 281.094 443.729 281.44C443.646 282.536 443.646 283.636 443.729 284.732C443.869 285.283 445.192 288.71 446.044 290.88C446.074 290.962 446.091 291.048 446.094 291.136V302.865C446.094 303.066 445.984 303.166 445.843 303.116H445.793L438.007 298.606C437.408 298.219 436.909 297.695 436.552 297.077C436.195 296.46 435.99 295.766 435.953 295.054C435.951 294.7 435.988 294.347 436.063 294.002C435.375 293.197 434.947 292.203 434.835 291.151C434.825 290.752 434.886 290.355 435.016 289.978ZM436.454 293.521C436.571 293.598 436.659 293.713 436.704 293.846C436.759 293.971 436.767 294.111 436.729 294.242C436.599 294.614 436.538 295.006 436.549 295.4C436.587 295.882 436.736 296.349 436.985 296.765C437.233 297.18 437.575 297.533 437.982 297.795L445.473 302.119V290.9C445.097 289.938 443.348 285.474 443.153 284.697C442.987 284.051 443.037 282.598 443.108 281.039C443.108 280.789 443.108 280.578 443.108 280.438C442.889 280.196 442.605 280.022 442.291 279.937C442.175 279.899 442.054 279.884 441.932 279.894C441.811 279.905 441.693 279.939 441.586 279.996C441.479 280.054 441.384 280.132 441.308 280.227C441.232 280.322 441.176 280.431 441.143 280.548C440.582 282.051 440.497 283.525 440.853 285.559C440.867 285.612 440.869 285.668 440.86 285.723C440.85 285.777 440.829 285.829 440.798 285.874C440.765 285.904 440.724 285.92 440.68 285.92C440.636 285.92 440.595 285.904 440.562 285.874L435.852 283.159C435.026 282.658 434.755 283.575 434.755 284.091C434.769 284.754 434.984 285.397 435.371 285.935C435.479 286.078 435.529 286.257 435.512 286.436C435.512 286.586 435.406 286.661 435.286 286.631C435.256 286.631 434.575 286.466 434.575 287.598C434.6 288.369 434.926 289.098 435.482 289.632C435.594 289.735 435.671 289.87 435.702 290.018C435.722 290.077 435.727 290.14 435.718 290.202C435.71 290.264 435.687 290.322 435.652 290.374C435.652 290.374 435.416 290.64 435.416 291.476C435.451 291.982 435.998 293.25 436.454 293.521Z" fill="#4F6AA5"/>
<path d="M414.908 273.578C414.763 273.528 414.658 273.629 414.658 273.829V287.493C414.66 287.61 414.69 287.724 414.743 287.828C414.793 287.926 414.867 288.009 414.958 288.069L418.366 290.028C418.536 290.128 418.666 290.028 418.666 289.798V276.134C418.665 276.018 418.634 275.904 418.576 275.803C418.531 275.704 418.458 275.621 418.366 275.563L414.973 273.603L414.908 273.578ZM415.274 287.423V274.576L418.065 276.189V289.051L415.274 287.423ZM419.418 277.767C419.277 277.717 419.172 277.822 419.172 278.018V289.758C419.172 289.845 419.189 289.932 419.222 290.013C420.074 292.183 421.392 295.61 421.532 296.161C421.618 297.257 421.618 298.357 421.532 299.453C421.532 299.799 421.507 300.069 421.507 300.205C421.523 300.419 421.587 300.628 421.693 300.815C421.8 301.002 421.947 301.163 422.123 301.287C422.82 301.878 424.128 302.289 424.629 300.941C425.203 299.358 425.343 297.651 425.035 295.996L429.364 298.501C430.526 299.177 431.067 298.07 431.067 297.118C431.059 296.407 430.888 295.708 430.566 295.074C430.912 294.948 431.253 294.573 431.253 293.621C431.216 292.635 430.865 291.687 430.251 290.915C430.373 290.537 430.431 290.14 430.421 289.742C430.309 288.689 429.879 287.694 429.188 286.891C429.263 286.546 429.3 286.193 429.299 285.839C429.261 285.131 429.058 284.442 428.705 283.827C428.353 283.212 427.861 282.688 427.269 282.297L419.483 277.787L419.418 277.767ZM419.768 289.983V278.764L427.259 283.088C427.666 283.351 428.006 283.703 428.254 284.119C428.502 284.534 428.65 285.001 428.687 285.484C428.695 285.877 428.636 286.268 428.512 286.641C428.471 286.771 428.48 286.913 428.537 287.037C428.58 287.171 428.669 287.286 428.788 287.362C429.258 287.633 429.79 288.901 429.79 289.367C429.79 290.203 429.564 290.459 429.554 290.469C429.519 290.521 429.496 290.579 429.488 290.641C429.479 290.703 429.484 290.766 429.504 290.825C429.534 290.973 429.61 291.107 429.719 291.211C430.277 291.743 430.603 292.474 430.626 293.245C430.626 294.377 429.945 294.217 429.915 294.212C429.8 294.182 429.709 294.257 429.689 294.407C429.677 294.586 429.728 294.764 429.835 294.908C430.22 295.447 430.435 296.09 430.451 296.752C430.451 297.253 430.175 298.165 429.349 297.689L424.644 294.969C424.611 294.939 424.568 294.923 424.524 294.923C424.479 294.923 424.436 294.939 424.403 294.969C424.373 295.015 424.353 295.067 424.344 295.121C424.336 295.175 424.339 295.231 424.353 295.284C424.709 297.313 424.619 298.792 424.058 300.295C424.031 300.415 423.979 300.528 423.906 300.627C423.834 300.726 423.741 300.809 423.635 300.87C423.528 300.932 423.41 300.971 423.288 300.985C423.166 300.999 423.043 300.987 422.925 300.951C422.609 300.866 422.324 300.692 422.103 300.45C422.103 300.31 422.103 300.099 422.103 299.849C422.174 298.291 422.224 296.842 422.058 296.191C421.923 295.409 420.164 290.93 419.784 289.983H419.768Z" fill="#4F6AA5"/>
<path d="M200.17 70.4719C190.02 73.6991 183.935 66.5131 186.594 54.528C189.253 42.5429 199.677 30.1801 209.817 26.9964C219.957 23.8127 226.044 30.9532 223.385 42.9383C220.725 54.9235 210.337 67.2485 200.17 70.4719ZM209.054 30.4344C200.56 33.1157 191.765 43.5294 189.529 53.6084C187.292 63.6874 192.448 69.6717 200.943 66.9904C209.437 64.3091 218.217 53.9195 220.454 43.8405C222.69 33.7615 217.575 27.7589 209.054 30.4344Z" fill="#4F6AA5"/>
<path d="M202.138 61.6029C197.985 62.9097 194.783 61.4137 193.793 57.6872C193.758 57.2117 193.843 56.7352 194.038 56.3004C194.233 55.8655 194.533 55.486 194.912 55.1957C195.729 54.5186 196.541 54.5618 196.72 55.2774C197.451 58.0332 199.808 59.1406 202.882 58.1698C205.956 57.1989 209.213 54.3326 211.341 50.6678C211.91 49.7074 212.865 49.1066 213.468 49.3133C214.07 49.5201 214.118 50.4987 213.558 51.4611C210.688 56.3677 206.282 60.2942 202.138 61.6029Z" fill="#4F6AA5"/>
<path d="M214.968 41.6462C214.768 42.4841 214.375 43.2635 213.819 43.9221C213.264 44.5807 212.562 45.1002 211.77 45.4389C210.367 45.8764 209.534 44.8971 209.911 43.1999C210.109 42.3611 210.502 41.5808 211.057 40.9219C211.613 40.263 212.316 39.7441 213.109 39.4072C214.493 39.0112 215.335 39.9925 214.968 41.6462Z" fill="#4F6AA5"/>
<path d="M201.057 47.711C202.19 46.1248 202.382 44.319 201.485 43.6775C200.588 43.0361 198.941 43.8019 197.807 45.3882C196.673 46.9744 196.481 48.7802 197.379 49.4217C198.276 50.0631 199.923 49.2972 201.057 47.711Z" fill="#4F6AA5"/>
<g opacity="0.4">
<path d="M200.17 70.4719C190.02 73.6991 183.935 66.5131 186.594 54.528C189.253 42.5429 199.677 30.1801 209.817 26.9964C219.957 23.8127 226.044 30.9532 223.385 42.9383C220.725 54.9235 210.337 67.2485 200.17 70.4719ZM209.054 30.4344C200.56 33.1157 191.765 43.5294 189.529 53.6084C187.292 63.6874 192.448 69.6717 200.943 66.9904C209.437 64.3091 218.217 53.9195 220.454 43.8405C222.69 33.7615 217.575 27.7589 209.054 30.4344Z" fill="white"/>
<path d="M202.138 61.6029C197.985 62.9097 194.783 61.4137 193.793 57.6872C193.758 57.2117 193.843 56.7352 194.038 56.3004C194.233 55.8655 194.533 55.486 194.912 55.1957C195.729 54.5186 196.541 54.5618 196.72 55.2774C197.451 58.0332 199.808 59.1406 202.882 58.1698C205.956 57.1989 209.213 54.3326 211.341 50.6678C211.91 49.7074 212.865 49.1066 213.468 49.3133C214.07 49.5201 214.118 50.4987 213.558 51.4611C210.688 56.3677 206.282 60.2942 202.138 61.6029Z" fill="white"/>
<path d="M214.968 41.6462C214.768 42.4841 214.375 43.2635 213.819 43.9221C213.264 44.5807 212.562 45.1002 211.77 45.4389C210.367 45.8764 209.534 44.8971 209.911 43.1999C210.109 42.3611 210.502 41.5808 211.057 40.9219C211.613 40.263 212.316 39.7441 213.109 39.4072C214.493 39.0112 215.335 39.9925 214.968 41.6462Z" fill="white"/>
<path d="M201.057 47.711C202.19 46.1248 202.382 44.319 201.485 43.6775C200.588 43.0361 198.941 43.8019 197.807 45.3882C196.673 46.9744 196.481 48.7802 197.379 49.4217C198.276 50.0631 199.923 49.2972 201.057 47.711Z" fill="white"/>
</g>
<path d="M145.693 87.6073C135.543 90.8346 129.466 83.6505 132.125 71.6654C134.785 59.6802 145.199 47.3155 155.334 44.1579C165.468 41.0003 171.561 48.1147 168.901 60.0999C166.242 72.085 155.831 84.4323 145.693 87.6073ZM154.577 47.5698C146.056 50.2453 137.293 60.6387 135.059 70.709C132.824 80.7793 137.945 86.8013 146.467 84.1171C154.99 81.4329 163.739 71.1004 165.968 61.0562C168.196 51.012 163.097 44.8943 154.565 47.622L154.577 47.5698Z" fill="#4F6AA5"/>
<path d="M155.778 72.6122L141.247 77.1869C140.44 77.4463 139.95 76.8991 140.168 75.9156C140.284 75.4316 140.512 74.9814 140.833 74.6008C141.153 74.2201 141.558 73.9195 142.015 73.7228L156.546 69.1481C157.353 68.8887 157.843 69.4359 157.625 70.4194C157.509 70.9034 157.281 71.3536 156.961 71.7342C156.64 72.1149 156.235 72.4155 155.778 72.6122Z" fill="#4F6AA5"/>
<path d="M160.485 58.8077C160.285 59.6459 159.892 60.4256 159.337 61.0843C158.782 61.743 158.08 62.2622 157.287 62.6004C155.893 63.0399 155.053 62.0499 155.428 60.3613C155.628 59.5235 156.021 58.744 156.576 58.0854C157.132 57.4268 157.833 56.9074 158.626 56.5686C160.021 56.1659 160.846 57.1801 160.485 58.8077Z" fill="#4F6AA5"/>
<path d="M142.453 64.505C142.087 66.1588 142.928 67.14 144.313 66.7441C145.106 66.4071 145.809 65.8882 146.364 65.2294C146.92 64.5705 147.312 63.7901 147.51 62.9514C147.877 61.2977 147.045 60.3183 145.651 60.7123C144.859 61.0511 144.157 61.5706 143.602 62.2291C143.047 62.8877 142.653 63.6672 142.453 64.505Z" fill="#4F6AA5"/>
<path d="M91.2235 104.744C81.0737 107.972 74.9879 100.786 77.6473 88.8004C80.3067 76.8153 90.7303 64.4525 100.88 61.2253C111.03 57.9981 117.107 65.1821 114.448 77.1673C111.788 89.1524 101.365 101.515 91.2235 104.744ZM100.108 64.7068C91.587 67.3823 82.8281 77.7583 80.5916 87.8373C78.3551 97.9163 83.4754 103.938 91.996 101.263C100.517 98.5873 109.271 88.192 111.507 78.113C113.744 68.0339 108.628 62.0313 100.108 64.7068Z" fill="#4F6AA5"/>
<path d="M85.029 96.5663C84.8225 96.6425 84.5963 96.647 84.3869 96.579C83.7689 96.3597 83.7367 95.3937 84.2973 94.4313C87.222 89.4821 91.611 85.5885 95.764 84.2817C99.9169 82.9749 103.11 84.4689 104.101 88.1955C104.135 88.671 104.051 89.1475 103.856 89.5823C103.66 90.0172 103.36 90.3967 102.982 90.6869C102.165 91.3641 101.353 91.3208 101.174 90.6053C100.443 87.8495 98.0856 86.742 95.0204 87.7149C91.9553 88.6877 88.6896 91.5521 86.5526 95.2148C86.2188 95.8299 85.6795 96.3082 85.029 96.5663Z" fill="#4F6AA5"/>
<path d="M87.9652 81.5649C87.5982 83.2186 88.4311 84.1979 89.8158 83.802C90.609 83.465 91.3118 82.9461 91.8673 82.2872C92.4228 81.6284 92.8155 80.848 93.0135 80.0093C93.3805 78.3555 92.5475 77.3762 91.1542 77.7702C90.3639 78.1109 89.6641 78.6313 89.1105 79.29C88.5569 79.9488 88.1647 80.7278 87.9652 81.5649Z" fill="#4F6AA5"/>
<path d="M106.031 75.875C105.831 76.7126 105.437 77.4917 104.882 78.1502C104.327 78.8087 103.625 79.3283 102.833 79.6677C101.43 80.1052 100.588 79.1694 100.974 77.4286C101.172 76.5899 101.565 75.8095 102.12 75.1506C102.676 74.4918 103.379 73.9729 104.172 73.6359C105.56 73.2226 106.398 74.2212 106.031 75.875Z" fill="#4F6AA5"/>
<g opacity="0.3">
<path d="M91.2235 104.744C81.0737 107.972 74.9879 100.786 77.6473 88.8004C80.3067 76.8153 90.7303 64.4525 100.88 61.2253C111.03 57.9981 117.107 65.1821 114.448 77.1673C111.788 89.1524 101.365 101.515 91.2235 104.744ZM100.108 64.7068C91.587 67.3823 82.8281 77.7583 80.5916 87.8373C78.3551 97.9163 83.4754 103.938 91.996 101.263C100.517 98.5873 109.271 88.192 111.507 78.113C113.744 68.0339 108.628 62.0313 100.108 64.7068Z" fill="black"/>
<path d="M85.029 96.5663C84.8225 96.6425 84.5963 96.647 84.3869 96.579C83.7689 96.3597 83.7367 95.3937 84.2973 94.4313C87.222 89.4821 91.611 85.5885 95.764 84.2817C99.9169 82.9749 103.11 84.4689 104.101 88.1955C104.135 88.671 104.051 89.1475 103.856 89.5823C103.66 90.0172 103.36 90.3967 102.982 90.6869C102.165 91.3641 101.353 91.3208 101.174 90.6053C100.443 87.8495 98.0856 86.742 95.0204 87.7149C91.9553 88.6877 88.6896 91.5521 86.5526 95.2148C86.2188 95.8299 85.6795 96.3082 85.029 96.5663Z" fill="black"/>
<path d="M87.9652 81.5649C87.5982 83.2186 88.4311 84.1979 89.8158 83.802C90.609 83.465 91.3118 82.9461 91.8673 82.2872C92.4228 81.6284 92.8155 80.848 93.0135 80.0093C93.3805 78.3555 92.5475 77.3762 91.1542 77.7702C90.3639 78.1109 89.6641 78.6313 89.1105 79.29C88.5569 79.9488 88.1647 80.7278 87.9652 81.5649Z" fill="black"/>
<path d="M106.031 75.875C105.831 76.7126 105.437 77.4917 104.882 78.1502C104.327 78.8087 103.625 79.3283 102.833 79.6677C101.43 80.1052 100.588 79.1694 100.974 77.4286C101.172 76.5899 101.565 75.8095 102.12 75.1506C102.676 74.4918 103.379 73.9729 104.172 73.6359C105.56 73.2226 106.398 74.2212 106.031 75.875Z" fill="black"/>
</g>
<path d="M246.238 174.703L142.051 114.558C186.164 89.4142 255.409 81.8919 312.523 98.7591C383.08 119.655 417.221 172.903 383.196 214.427L246.238 174.703Z" fill="#4F6AA5"/>
<path d="M246.238 174.703V257.692L383.196 297.405V214.427L246.238 174.703Z" fill="#4F6AA5"/>
<path opacity="0.15" d="M246.238 174.703V257.692L383.196 297.405V214.427L246.238 174.703Z" fill="black"/>
<path d="M142.051 114.559V197.537L246.238 257.693V174.703L142.051 114.559Z" fill="#4F6AA5"/>
<path opacity="0.2" d="M142.051 114.559V197.537L246.238 257.693V174.703L142.051 114.559Z" fill="black"/>
<path d="M383.196 297.406C392.251 286.354 396.477 274.467 396.477 262.58V179.602C396.477 191.489 392.251 203.376 383.196 214.427V297.406Z" fill="#4F6AA5"/>
<path opacity="0.3" d="M383.196 297.406C392.251 286.354 396.477 274.467 396.477 262.58V179.602C396.477 191.489 392.251 203.376 383.196 214.427V297.406Z" fill="black"/>
<path d="M353.223 251.668C342.221 257.948 330.664 263.202 318.699 267.362L258.984 199.649L376.173 234.092C369.36 240.969 361.638 246.882 353.223 251.668Z" fill="#7F939D"/>
<path d="M258.984 199.649V271.205L318.699 338.906V267.362L258.984 199.649Z" fill="#263238"/>
<path d="M318.699 338.906C330.666 334.751 342.224 329.497 353.223 323.211C361.64 318.416 369.362 312.491 376.173 305.601V234.092C369.36 240.969 361.638 246.883 353.223 251.668C342.221 257.949 330.664 263.202 318.699 267.363V338.906Z" fill="#5A6E78"/>
<path d="M167.149 290.614C155.865 286.911 146.648 281.49 136.967 276.011C87.9318 248.15 80.0844 191.047 131.58 158.102L232.505 216.087L167.149 290.614Z" fill="#4F6AA5"/>
<path opacity="0.3" d="M167.149 290.614C155.865 286.911 146.648 281.49 136.967 276.011C87.9318 248.15 80.0844 191.047 131.58 158.102L232.505 216.087L167.149 290.614Z" fill="black"/>
<path d="M232.563 216.087L167.172 290.614V336.619L232.563 262.092V216.087Z" fill="#4F6AA5"/>
<path opacity="0.5" d="M232.563 216.087L167.172 290.614V336.619L232.563 262.092V216.087Z" fill="black"/>
<path d="M167.149 336.619C155.865 332.916 146.648 327.495 136.966 322.015C110.847 307.18 96.406 284.044 96.406 260.687V214.427C96.406 237.783 110.847 260.919 136.966 275.755C146.613 281.234 155.83 286.656 167.149 290.359V336.619Z" fill="#4F6AA5"/>
<path opacity="0.4" d="M167.149 336.619C155.865 332.916 146.648 327.495 136.966 322.015C110.847 307.18 96.406 284.044 96.406 260.687V214.427C96.406 237.783 110.847 260.919 136.966 275.755C146.613 281.234 155.83 286.656 167.149 290.359V336.619Z" fill="black"/>
<path d="M305.221 311.08C266.379 321.853 218.935 319.857 179.918 309.084L241.769 239.107L305.221 311.08Z" fill="#4F6AA5"/>
<path opacity="0.7" d="M305.221 311.08C266.379 321.853 218.935 319.857 179.918 309.084L241.769 239.107L305.221 311.08Z" fill="white"/>
<path d="M179.918 340.81C218.946 351.571 266.391 353.579 305.291 342.795V311.08C266.379 321.853 218.935 319.856 179.918 309.083V340.81Z" fill="#4F6AA5"/>
<path opacity="0.5" d="M179.918 340.81C218.946 351.571 266.391 353.579 305.291 342.795V311.08C266.379 321.853 218.935 319.856 179.918 309.083V340.81Z" fill="white"/>
<path d="M156.585 229.832C159.688 229.832 162.203 227.317 162.203 224.214C162.203 221.111 159.688 218.595 156.585 218.595C153.482 218.595 150.966 221.111 150.966 224.214C150.966 227.317 153.482 229.832 156.585 229.832Z" fill="#263238"/>
<path d="M156.585 224.91C156.454 224.909 156.326 224.873 156.214 224.805L94.9783 186.033H78.7263C78.5416 186.033 78.3644 185.959 78.2338 185.829C78.1032 185.698 78.0298 185.521 78.0298 185.336C78.0298 185.151 78.1032 184.974 78.2338 184.844C78.3644 184.713 78.5416 184.64 78.7263 184.64H95.1757C95.3082 184.641 95.4374 184.681 95.5471 184.756L156.957 223.668C157.033 223.716 157.1 223.779 157.152 223.853C157.204 223.928 157.24 224.011 157.26 224.1C157.279 224.189 157.281 224.28 157.265 224.369C157.249 224.459 157.215 224.544 157.166 224.62C157.101 224.713 157.014 224.789 156.913 224.839C156.811 224.89 156.698 224.914 156.585 224.91Z" fill="#263238"/>
<path d="M309.551 229.948C309.551 231.059 309.881 232.145 310.498 233.069C311.116 233.993 311.993 234.713 313.02 235.139C314.046 235.564 315.176 235.675 316.266 235.458C317.356 235.241 318.357 234.706 319.143 233.921C319.929 233.135 320.464 232.134 320.681 231.044C320.897 229.954 320.786 228.824 320.361 227.798C319.936 226.771 319.215 225.893 318.291 225.276C317.367 224.659 316.281 224.329 315.17 224.329C313.68 224.329 312.251 224.921 311.197 225.975C310.143 227.028 309.551 228.458 309.551 229.948Z" fill="#263238"/>
<path d="M315.17 230.644C315.048 230.644 314.927 230.612 314.822 230.551C314.716 230.49 314.628 230.402 314.566 230.296C314.521 230.218 314.491 230.131 314.48 230.041C314.468 229.951 314.474 229.86 314.498 229.772C314.521 229.685 314.562 229.603 314.618 229.532C314.674 229.46 314.743 229.4 314.822 229.356L382.233 190.432C382.335 190.373 382.451 190.341 382.57 190.339H408.944C409.036 190.339 409.126 190.357 409.211 190.392C409.295 190.427 409.372 190.478 409.437 190.543C409.501 190.608 409.553 190.685 409.588 190.769C409.623 190.854 409.641 190.944 409.641 191.036C409.641 191.127 409.623 191.217 409.588 191.3C409.552 191.384 409.501 191.46 409.436 191.524C409.371 191.588 409.294 191.638 409.21 191.672C409.125 191.706 409.035 191.722 408.944 191.721H382.755L315.507 230.551C315.404 230.61 315.288 230.642 315.17 230.644Z" fill="#263238"/>
</svg>
