<svg width="151" height="117" viewBox="0 0 151 117" fill="none" xmlns="http://www.w3.org/2000/svg">
<path d="M133.441 85.1803H79.447C78.9828 85.1795 78.5379 84.9948 78.2097 84.6666C77.8816 84.3384 77.6968 83.8935 77.696 83.4294V4.76403C77.6976 4.30042 77.8827 3.8563 78.2108 3.52876C78.5389 3.20121 78.9833 3.0169 79.447 3.01611H133.441C133.905 3.0169 134.349 3.20121 134.678 3.52876C135.006 3.8563 135.191 4.30042 135.192 4.76403V83.4294C135.192 83.8935 135.007 84.3384 134.679 84.6666C134.35 84.9948 133.906 85.1795 133.441 85.1803ZM79.447 3.09081C79.2261 3.08924 79.0071 3.13133 78.8025 3.21467C78.598 3.29802 78.4119 3.42097 78.255 3.57646C78.0981 3.73195 77.9735 3.91692 77.8884 4.12072C77.8032 4.32452 77.7592 4.54315 77.7588 4.76403V83.4294C77.7588 83.874 77.9354 84.3003 78.2497 84.6147C78.5641 84.929 78.9904 85.1056 79.435 85.1056H133.441C133.886 85.1056 134.312 84.929 134.627 84.6147C134.941 84.3003 135.118 83.874 135.118 83.4294V4.76403C135.118 4.31947 134.941 3.89312 134.627 3.57877C134.312 3.26442 133.886 3.08782 133.441 3.08782L79.447 3.09081Z" fill="#F0F0F0"/>
<path d="M71.1648 85.1806H17.1584C16.6943 85.1798 16.2494 84.9951 15.9212 84.6669C15.593 84.3387 15.4083 83.8938 15.4075 83.4297V4.76434C15.4083 4.30021 15.593 3.85532 15.9212 3.52713C16.2494 3.19894 16.6943 3.01422 17.1584 3.01343H71.1648C71.6289 3.01422 72.0738 3.19894 72.402 3.52713C72.7302 3.85532 72.9149 4.30021 72.9157 4.76434V83.4297C72.9149 83.8938 72.7302 84.3387 72.402 84.6669C72.0738 84.9951 71.6289 85.1798 71.1648 85.1806ZM17.1584 3.09111C16.7143 3.09111 16.2884 3.2673 15.9742 3.58101C15.6599 3.89471 15.483 4.3203 15.4822 4.76434V83.4297C15.4822 83.8743 15.6588 84.3006 15.9731 84.615C16.2875 84.9293 16.7138 85.1059 17.1584 85.1059H71.1648C71.6093 85.1059 72.0357 84.9293 72.35 84.615C72.6644 84.3006 72.841 83.8743 72.841 83.4297V4.76434C72.841 4.31978 72.6644 3.89343 72.35 3.57908C72.0357 3.26473 71.6093 3.08813 71.1648 3.08813L17.1584 3.09111Z" fill="#F0F0F0"/>
<path d="M150.198 103.428H0.802368V103.502H150.198V103.428Z" fill="#E0E0E0"/>
<path d="M67.8719 75.0396L69.832 76.9818L70.1009 77.2507L56.5209 90.9801L52.1287 86.5401L35.4263 103.428H38.5337L52.1287 89.6803L56.5209 94.1204L71.6666 78.8044L71.7831 78.9209L73.7432 80.8631L75.1684 73.4561L67.8719 75.0396Z" fill="#F0F0F0"/>
<path d="M41.0374 24.983L42.9974 26.9251L43.2663 27.1911L29.6863 40.9234L25.2941 36.4804L15.4818 46.4062V49.5465L25.2941 39.6237L29.6863 44.0637L44.832 28.7478L44.9515 28.8643L46.9086 30.8064L48.3338 23.3994L41.0374 24.983Z" fill="#F0F0F0"/>
<path d="M25.5183 20.9971C25.5187 21.0515 25.5083 21.1055 25.4877 21.1558C25.4672 21.2062 25.4369 21.252 25.3986 21.2906C25.3602 21.3292 25.3146 21.3599 25.2644 21.3808C25.2142 21.4017 25.1603 21.4124 25.1059 21.4124H23.9108V22.6076C23.9108 22.7169 23.8673 22.8218 23.79 22.8992C23.7127 22.9765 23.6078 23.0199 23.4984 23.0199C23.3891 23.0199 23.2842 22.9765 23.2069 22.8992C23.1295 22.8218 23.0861 22.7169 23.0861 22.6076V21.4124H21.8909C21.8336 21.4173 21.776 21.4102 21.7215 21.3916C21.6671 21.3731 21.6171 21.3434 21.5748 21.3045C21.5324 21.2656 21.4986 21.2183 21.4755 21.1656C21.4524 21.113 21.4404 21.0561 21.4404 20.9986C21.4404 20.9411 21.4524 20.8842 21.4755 20.8316C21.4986 20.7789 21.5324 20.7316 21.5748 20.6927C21.6171 20.6538 21.6671 20.6242 21.7215 20.6056C21.776 20.587 21.8336 20.5799 21.8909 20.5848H23.0861V19.3896C23.0861 19.2803 23.1295 19.1754 23.2069 19.0981C23.2842 19.0207 23.3891 18.9773 23.4984 18.9773C23.6078 18.9773 23.7127 19.0207 23.79 19.0981C23.8673 19.1754 23.9108 19.2803 23.9108 19.3896V20.5848H25.1059C25.1601 20.5848 25.2137 20.5955 25.2637 20.6162C25.3137 20.6369 25.3592 20.6673 25.3975 20.7056C25.4358 20.7438 25.4662 20.7893 25.4869 20.8393C25.5076 20.8893 25.5183 20.943 25.5183 20.9971Z" fill="#F0F0F0"/>
<path d="M127.012 49.5467C127.012 49.656 126.968 49.7609 126.891 49.8382C126.814 49.9156 126.709 49.959 126.599 49.959H125.404V51.1542C125.404 51.2635 125.361 51.3684 125.284 51.4457C125.206 51.5231 125.101 51.5665 124.992 51.5665C124.883 51.5665 124.778 51.5231 124.7 51.4457C124.623 51.3684 124.58 51.2635 124.58 51.1542V49.959H123.384C123.275 49.959 123.17 49.9156 123.093 49.8382C123.016 49.7609 122.972 49.656 122.972 49.5467C122.972 49.4373 123.016 49.3324 123.093 49.2551C123.17 49.1778 123.275 49.1343 123.384 49.1343H124.58V47.9392C124.58 47.8298 124.623 47.725 124.7 47.6476C124.778 47.5703 124.883 47.5269 124.992 47.5269C125.101 47.5269 125.206 47.5703 125.284 47.6476C125.361 47.725 125.404 47.8298 125.404 47.9392V49.1343H126.599C126.709 49.1343 126.814 49.1778 126.891 49.2551C126.968 49.3324 127.012 49.4373 127.012 49.5467Z" fill="#F0F0F0"/>
<path d="M87.0811 10.8414C87.0815 10.8958 87.0711 10.9497 87.0506 11.0001C87.0301 11.0504 86.9997 11.0963 86.9614 11.1349C86.9231 11.1735 86.8775 11.2041 86.8273 11.225C86.7771 11.2459 86.7232 11.2567 86.6688 11.2567H85.4736V12.4518C85.4736 12.506 85.463 12.5596 85.4422 12.6096C85.4215 12.6597 85.3911 12.7051 85.3529 12.7434C85.3146 12.7817 85.2691 12.8121 85.2191 12.8328C85.1691 12.8535 85.1154 12.8642 85.0613 12.8642C85.0072 12.8642 84.9535 12.8535 84.9035 12.8328C84.8535 12.8121 84.808 12.7817 84.7697 12.7434C84.7314 12.7051 84.7011 12.6597 84.6804 12.6096C84.6596 12.5596 84.649 12.506 84.649 12.4518V11.2567H83.4538C83.3965 11.2616 83.3388 11.2545 83.2844 11.2359C83.23 11.2173 83.18 11.1876 83.1377 11.1487C83.0953 11.1098 83.0615 11.0625 83.0384 11.0099C83.0152 10.9572 83.0033 10.9004 83.0033 10.8429C83.0033 10.7854 83.0152 10.7285 83.0384 10.6758C83.0615 10.6232 83.0953 10.5759 83.1377 10.537C83.18 10.4981 83.23 10.4684 83.2844 10.4498C83.3388 10.4312 83.3965 10.4242 83.4538 10.429H84.649V9.24583C84.649 9.19168 84.6596 9.13806 84.6804 9.08803C84.7011 9.03801 84.7314 8.99255 84.7697 8.95426C84.808 8.91598 84.8535 8.8856 84.9035 8.86488C84.9535 8.84416 85.0072 8.8335 85.0613 8.8335C85.1154 8.8335 85.1691 8.84416 85.2191 8.86488C85.2691 8.8856 85.3146 8.91598 85.3529 8.95426C85.3911 8.99255 85.4215 9.03801 85.4422 9.08803C85.463 9.13806 85.4736 9.19168 85.4736 9.24583V10.441H86.6688C86.7761 10.4409 86.8792 10.4827 86.9562 10.5575C87.0332 10.6323 87.078 10.7341 87.0811 10.8414Z" fill="#F0F0F0"/>
<path d="M25.2104 72.2158H17.7406V75.6519H25.2104V72.2158Z" fill="#F5F5F5"/>
<path d="M33.3136 72.2158H25.8439V75.6519H33.3136V72.2158Z" fill="#F5F5F5"/>
<path d="M29.2622 76.2493H21.7925V79.6854H29.2622V76.2493Z" fill="#F5F5F5"/>
<path d="M122.351 7.93115H114.881V11.3672H122.351V7.93115Z" fill="#F5F5F5"/>
<path d="M130.457 7.93115H122.987V11.3672H130.457V7.93115Z" fill="#F5F5F5"/>
<path d="M126.405 11.9646H118.935V15.4007H126.405V11.9646Z" fill="#F5F5F5"/>
<path d="M33.5918 57.2556H29.1816V63.9634H33.5918V57.2556Z" fill="#F5F5F5"/>
<path d="M40.2577 53.3562H35.8475V63.9632H40.2577V53.3562Z" fill="#F5F5F5"/>
<path d="M46.9237 47.3477H42.5135V63.9634H46.9237V47.3477Z" fill="#F5F5F5"/>
<path d="M53.5896 40.9893H49.1794V63.9632H53.5896V40.9893Z" fill="#F5F5F5"/>
<path d="M111.543 75.9507H107.133V82.6585H111.543V75.9507Z" fill="#F5F5F5"/>
<path d="M118.209 72.0486H113.799V82.6556H118.209V72.0486Z" fill="#F5F5F5"/>
<path d="M124.875 66.0398H120.465V82.6555H124.875V66.0398Z" fill="#F5F5F5"/>
<path d="M131.541 59.6848H127.131V82.6588H131.541V59.6848Z" fill="#F5F5F5"/>
<path d="M134.625 115.798C134.625 116.434 108.523 116.951 76.3249 116.951C44.1272 116.951 18.0278 116.434 18.0278 115.798C18.0278 115.161 44.1272 114.647 76.3249 114.647C108.523 114.647 134.625 115.161 134.625 115.798Z" fill="#F5F5F5"/>
<path d="M114.474 83.1844L116.434 85.1295L116.703 85.3954L103.123 99.1248L98.7309 94.6848L77.7588 115.896H80.8632L98.7309 97.8251L103.123 102.268L118.272 86.9491L118.388 87.0656L120.348 89.0078L121.771 81.6038L114.474 83.1844Z" fill="#254791"/>
<path d="M40.1533 114.632L42.1223 103.962H28.7335L30.7026 114.626C30.7626 114.953 30.9354 115.249 31.1909 115.462C31.4464 115.675 31.7683 115.791 32.1009 115.791H38.755C39.0866 115.792 39.408 115.676 39.6633 115.464C39.9187 115.252 40.092 114.958 40.1533 114.632Z" fill="#263238"/>
<path d="M40.703 94.317C38.9401 93.8509 36.248 97.5111 35.4293 101.079V95.8947C36.109 94.7442 36.9977 93.7308 38.0497 92.9068C40.2607 91.114 42.2985 88.7924 40.5326 88.3263C38.8773 87.8901 36.4034 91.0871 35.4293 94.4336V87.7467C35.8388 87.128 36.343 86.5775 36.9233 86.1153C38.3186 84.9799 39.6124 83.5218 38.4889 83.226C37.5238 82.972 36.0986 84.6841 35.4233 86.6113V84.448C35.5465 83.5524 35.7886 82.6771 36.1434 81.8456C37.1683 79.5807 37.721 77.2472 36.3705 77.4235C35.02 77.5997 34.1385 81.6274 34.8765 84.7229V85.8374C34.3776 83.5726 32.6625 81.2271 31.542 81.5199C30.4216 81.8127 31.7123 83.2708 33.1077 84.4092C33.8438 84.9753 34.4474 85.6952 34.8765 86.5186V91.7743C34.0758 88.1889 31.3628 84.4898 29.5909 84.956C27.8191 85.4221 29.8628 87.7347 32.0769 89.5394C33.2391 90.4354 34.194 91.5718 34.8765 92.8709V99.1813C34.022 95.6616 31.3777 92.112 29.6387 92.5691C27.8998 93.0263 29.3878 94.7234 31.8737 96.7701C33.1072 97.7729 34.1238 99.0162 34.8616 100.424V103.962H35.4084V102.199C36.0991 100.912 37.0555 99.7868 38.214 98.8975C40.4311 97.0898 42.4688 94.7832 40.703 94.317Z" fill="#254791"/>
<path d="M42.9468 103.466H27.9087V104.93H42.9468V103.466Z" fill="#263238"/>
<path opacity="0.2" d="M42.9468 103.466H27.9087V104.93H42.9468V103.466Z" fill="white"/>
<path d="M120.856 35.7875C120.014 38.7885 118.205 41.4279 115.711 43.2969C113.216 45.1659 110.175 46.1601 107.058 46.1256H105.307V45.9971C104.662 45.9092 104.024 45.7765 103.398 45.5998C100.263 44.7198 97.5266 42.7865 95.6502 40.1253C93.7738 37.464 92.8717 34.2375 93.0959 30.989C93.32 27.7405 94.6568 24.6685 96.8809 22.2902C99.1051 19.9119 102.081 18.3728 105.307 17.9318V17.8003H107.058C109.257 17.7772 111.431 18.2661 113.409 19.2284C115.386 20.1907 117.112 21.5999 118.451 23.3447C119.789 25.0894 120.704 27.1217 121.121 29.2808C121.539 31.4399 121.448 33.6665 120.856 35.7845V35.7875Z" fill="#254791"/>
<path opacity="0.3" d="M120.856 35.7875C120.014 38.7885 118.205 41.4279 115.711 43.2969C113.216 45.1659 110.175 46.1601 107.058 46.1256H105.307V45.9971C104.662 45.9092 104.024 45.7765 103.398 45.5998C100.263 44.7198 97.5266 42.7865 95.6502 40.1253C93.7738 37.464 92.8717 34.2375 93.0959 30.989C93.32 27.7405 94.6568 24.6685 96.8809 22.2902C99.1051 19.9119 102.081 18.3728 105.307 17.9318V17.8003H107.058C109.257 17.7772 111.431 18.2661 113.409 19.2284C115.386 20.1907 117.112 21.5999 118.451 23.3447C119.789 25.0894 120.704 27.1217 121.121 29.2808C121.539 31.4399 121.448 33.6665 120.856 35.7845V35.7875Z" fill="black"/>
<path d="M110.776 45.0794C118.015 42.1221 121.486 33.856 118.529 26.6166C115.572 19.3771 107.306 15.9058 100.066 18.8631C92.8267 21.8204 89.3554 30.0865 92.3127 37.3259C95.27 44.5653 103.536 48.0367 110.776 45.0794Z" fill="#254791"/>
<path d="M110.012 42.1672C115.649 39.6313 118.164 33.0055 115.628 27.3681C113.092 21.7306 106.466 19.2164 100.829 21.7523C95.1911 24.2882 92.6769 30.914 95.2128 36.5514C97.7487 42.1889 104.375 44.7031 110.012 42.1672Z" fill="white"/>
<path d="M113.563 33.1694C114.225 28.6767 111.12 24.4975 106.628 23.8349C102.135 23.1723 97.9559 26.2772 97.2933 30.7698C96.6307 35.2625 99.7355 39.4417 104.228 40.1043C108.721 40.7669 112.9 37.6621 113.563 33.1694Z" fill="#254791"/>
<path d="M110.62 32.7529C111.055 29.883 109.08 27.2041 106.21 26.7696C103.34 26.335 100.662 28.3093 100.227 31.1793C99.7925 34.0492 101.767 36.728 104.637 37.1626C107.507 37.5971 110.185 35.6228 110.62 32.7529Z" fill="white"/>
<path d="M104.802 34.1679C105.237 34.2898 105.699 34.28 106.128 34.1396C106.558 33.9993 106.936 33.7348 107.216 33.3794C107.495 33.0241 107.663 32.594 107.698 32.1434C107.732 31.6928 107.633 31.242 107.412 30.8479C107.19 30.4538 106.857 30.1342 106.455 29.9293C106.052 29.7245 105.597 29.6437 105.148 29.6972C104.7 29.7506 104.277 29.9359 103.933 30.2296C103.59 30.5234 103.341 30.9123 103.218 31.3473C103.056 31.9313 103.131 32.556 103.428 33.0847C103.724 33.6133 104.219 34.0028 104.802 34.1679Z" fill="#254791"/>
<path d="M89.5727 23.2441L92.9909 22.7213L92.471 19.3031C92.4613 19.2551 92.4614 19.2056 92.4714 19.1576C92.4814 19.1096 92.5011 19.0642 92.5292 19.0241C92.5573 18.9839 92.5933 18.9499 92.6349 18.9241C92.6766 18.8983 92.7231 18.8812 92.7715 18.8739C92.82 18.8666 92.8694 18.8692 92.9168 18.8816C92.9642 18.894 93.0086 18.9159 93.0473 18.946C93.086 18.9761 93.1181 19.0137 93.1418 19.0566C93.1655 19.0995 93.1803 19.1468 93.1851 19.1955L93.7498 22.8886L95.0615 23.8537L94.6074 20.8658C94.5927 20.7707 94.6164 20.6737 94.6733 20.5961C94.7302 20.5184 94.8155 20.4666 94.9106 20.452C95.0057 20.4373 95.1027 20.461 95.1804 20.5179C95.258 20.5748 95.3098 20.6601 95.3245 20.7552L95.8802 24.4632L97.5385 25.6823L97.0873 22.6944C97.0797 22.6476 97.0813 22.5999 97.0922 22.5538C97.1031 22.5077 97.123 22.4643 97.1508 22.4259C97.1786 22.3876 97.2137 22.3552 97.2541 22.3305C97.2945 22.3058 97.3393 22.2893 97.3861 22.282C97.4802 22.2682 97.5761 22.2917 97.6531 22.3475C97.7301 22.4033 97.7823 22.4871 97.7984 22.5808L98.3721 26.2769L105.576 31.5804C106.027 31.9539 105.731 32.426 105.361 32.3214L97.8672 26.8057L94.3026 27.3495C94.2075 27.3642 94.1105 27.3405 94.0329 27.2836C93.9553 27.2267 93.9034 27.1413 93.8888 27.0462C93.8741 26.9511 93.8978 26.8541 93.9547 26.7765C94.0116 26.6989 94.0969 26.6471 94.192 26.6324L97.0395 26.1992L95.3812 24.9801L91.8196 25.5209C91.7246 25.5356 91.6275 25.5119 91.5499 25.455C91.4723 25.3981 91.4205 25.3127 91.4058 25.2176C91.3912 25.1226 91.4149 25.0255 91.4718 24.9479C91.5286 24.8703 91.614 24.8185 91.7091 24.8038L94.5566 24.3706L93.2449 23.4055L89.6803 23.9463C89.6323 23.956 89.5828 23.9559 89.5348 23.9459C89.4868 23.9359 89.4414 23.9162 89.4013 23.8881C89.3611 23.86 89.3271 23.824 89.3013 23.7824C89.2755 23.7407 89.2584 23.6942 89.2511 23.6458C89.2438 23.5973 89.2464 23.5479 89.2588 23.5005C89.2712 23.4531 89.2931 23.4087 89.3232 23.37C89.3533 23.3313 89.3909 23.2992 89.4338 23.2755C89.4767 23.2518 89.524 23.2371 89.5727 23.2322V23.2441Z" fill="#263238"/>
<path d="M58.1998 115.896H57.901V106.845H68.3318V97.9294H78.7655V89.0254H89.1963V80.1096H99.6301V71.2086H110.061V62.2927H120.641V62.5915H110.36V71.4954L110.21 71.5074H99.9289V80.4084H89.4951V89.3123L89.3457 89.3242H79.0643V98.2282H68.6306V107.129L68.4812 107.144H58.1998V115.896Z" fill="#263238"/>
<path d="M122.721 62.4426L120.641 64.5938V60.2913L122.721 62.4426Z" fill="#263238"/>
<path d="M72.5747 25.8586C73.2918 27.4841 73.976 29.1453 74.6662 30.7857L75.6851 33.2387C76.0317 34.0395 76.3723 34.8701 76.7219 35.5663C76.8267 35.8233 76.9742 36.0607 77.1581 36.2685C77.4197 36.5611 77.697 36.8394 77.9887 37.1021C78.5863 37.6818 79.2706 38.2465 79.9428 38.8201L84.0602 42.2353L82.9517 43.9862C81.2964 43.1855 79.6918 42.3309 78.1172 41.3718C77.3254 40.8937 76.5486 40.3888 75.7627 39.833C75.3477 39.5379 74.9487 39.2207 74.5676 38.8829C74.328 38.6725 74.1053 38.4437 73.9013 38.1987L73.7369 37.9776L73.6085 37.7863C73.5218 37.6579 73.4621 37.5563 73.3874 37.4367C73.1185 36.9945 72.8914 36.5822 72.6673 36.1669C72.4432 35.7516 72.2281 35.3422 72.0249 34.9299C71.6155 34.1052 71.2152 33.2836 70.8297 32.4559C70.0678 30.8006 69.3537 29.1453 68.6993 27.4422L72.5747 25.8586Z" fill="#9E6141"/>
<path d="M72.4941 25.5957L75.2818 30.8245C74.5379 32.5712 73.3312 34.0816 71.7919 35.1928L69.802 32.8921L72.4941 25.5957Z" fill="#254791"/>
<g opacity="0.5">
<path d="M72.4941 25.5957L75.2818 30.8245C74.5379 32.5712 73.3312 34.0816 71.7919 35.1928L69.802 32.8921L72.4941 25.5957Z" fill="white"/>
</g>
<path d="M68.3918 10.9728C67.5502 10.9082 66.7121 11.1364 66.0195 11.6188C65.3269 12.1013 64.8223 12.8083 64.5912 13.6201C63.7486 16.124 62.7596 17.5641 61.6033 18.0571C59.7179 18.8698 57.9132 20.5192 59.0636 22.8617C60.8832 26.5667 68.6249 26.1932 70.1397 24.6096C71.6546 23.026 70.0501 23.4144 71.6038 21.9683C73.1575 20.5221 74.8038 16.4227 73.7103 13.5334C73.1007 11.9349 70.7821 10.441 68.3918 10.9728Z" fill="#263238"/>
<path d="M71.768 19.3806C71.7322 19.5308 71.6526 19.6671 71.5394 19.772C71.4261 19.877 71.2842 19.946 71.1317 19.9702C70.9792 19.9944 70.8229 19.9728 70.6827 19.9081C70.5424 19.8434 70.4246 19.7386 70.344 19.6068C70.2635 19.4751 70.2238 19.3224 70.2301 19.1681C70.2365 19.0138 70.2885 18.8648 70.3795 18.7401C70.4706 18.6154 70.5967 18.5205 70.7417 18.4675C70.8868 18.4145 71.0443 18.4058 71.1943 18.4424C71.3945 18.4913 71.5672 18.6174 71.6747 18.7932C71.7821 18.969 71.8157 19.1802 71.768 19.3806Z" fill="white"/>
<path d="M61.0951 101.091L61.2535 104.53H63.091L63.5093 101.091H61.0951Z" fill="#9E6141"/>
<path d="M68.1856 106.95C68.1856 105.83 67.7314 105.495 67.1159 105.456C66.5004 105.417 64.2655 104.661 64.2655 104.661C64.2655 104.661 63.8561 103.95 63.4498 103.804C63.0434 103.657 62.5922 104.085 62.5922 104.085L61.4509 103.944C61.4509 103.944 61.1521 103.433 60.8742 103.881C60.438 104.578 60.2945 106.499 60.2766 106.95H68.1856Z" fill="#254791"/>
<path d="M68.0657 106.669H66.6315L60.3569 106.636C60.2763 106.636 60.3032 106.517 60.3838 106.52H60.8081C60.8081 106.52 60.8081 106.52 60.8081 106.502C60.9098 106.382 60.9842 106.242 61.0261 106.09C61.0681 105.939 61.0765 105.78 61.051 105.625C61.0254 105.47 60.9663 105.323 60.878 105.193C60.7896 105.063 60.674 104.954 60.5392 104.874C60.4765 104.838 60.5661 104.733 60.6258 104.772C61.1936 105.125 61.3848 105.827 60.9246 106.517H61.821L68.0956 106.55C68.1733 106.553 68.1434 106.672 68.0657 106.669Z" fill="black"/>
<path d="M63.8711 105.157C64.2326 104.781 64.7197 104.673 65.0394 104.957C65.0902 105.005 65.1768 104.9 65.126 104.855C64.7585 104.53 64.1908 104.67 63.7785 105.097C63.7187 105.16 63.8113 105.22 63.8711 105.157Z" fill="white"/>
<path d="M64.5074 105.358C64.869 104.981 65.356 104.874 65.6757 105.16C65.7265 105.205 65.8131 105.101 65.7623 105.056C65.3948 104.73 64.8271 104.871 64.4178 105.298C64.358 105.361 64.4477 105.42 64.5074 105.358Z" fill="white"/>
<path d="M65.1498 105.561C65.5113 105.182 65.9983 105.077 66.318 105.361C66.3688 105.406 66.4555 105.301 66.4017 105.256C66.0372 104.931 65.4695 105.071 65.0571 105.498C64.9974 105.561 65.09 105.621 65.1498 105.561Z" fill="white"/>
<path d="M70.0826 44.2313C70.0826 44.2313 69.9302 50.0099 69.3685 58.128C69.2579 59.6996 69.1324 61.3639 68.992 63.0909C68.6932 66.6764 68.3227 70.5308 67.8596 74.4449C66.7391 83.8717 63.6108 101.901 63.6108 101.901L60.7633 101.963C60.7633 101.963 57.9577 85.8288 61.0292 74.663C60.835 72.7329 60.6766 70.9222 60.5541 69.2191C60.1748 64.5901 60.0751 59.9425 60.2554 55.3015C60.2554 55.0206 60.2822 54.7457 60.2972 54.4768C60.3241 54.0286 60.3569 53.5954 60.3898 53.18C60.4406 52.5018 60.5063 51.8684 60.5721 51.2797C61.2145 45.785 62.3648 44.2014 62.3648 44.2014L70.0826 44.2313Z" fill="#263238"/>
<g opacity="0.2">
<path d="M69.3686 58.1281C69.2581 59.6998 69.1326 61.364 68.9922 63.091C66.1208 60.7694 62.2365 56.6073 60.2974 54.4769C60.3243 54.0287 60.3571 53.5955 60.39 53.1802L69.3686 58.1281Z" fill="black"/>
</g>
<path d="M77.0775 83.6057L80.5076 83.5071C82.3392 74.6869 87.4186 57.8889 84.7713 55.3313C75.4849 46.3526 57.934 42.1128 57.934 42.1128C55.8156 42.5341 54.2857 43.1914 53.8196 45.2262C53.3386 47.3177 53.6344 50.1473 56.1831 51.94C57.7398 53.0365 59.6879 53.7626 63.5961 55.5583C67.413 57.3687 71.3601 58.8908 75.4043 60.1119C76.9968 60.5989 77.5287 60.7573 78.3922 61.0083C76.5934 67.5099 77.0566 81.078 77.0775 83.6057Z" fill="#263238"/>
<path d="M77.5673 83.3877L77.5255 86.6475H79.3601L79.9846 83.3877H77.5673Z" fill="#9E6141"/>
<path d="M80.9796 84.4214L81.2127 83.2053H76.7726L76.7517 84.4214H80.9796Z" fill="#263238"/>
<path d="M84.4574 89.0824C84.4574 87.959 84.0003 87.6243 83.3878 87.5885C82.7753 87.5526 80.5343 86.7907 80.5343 86.7907C80.5343 86.7907 80.128 86.0796 79.7186 85.9362C79.3093 85.7927 78.8641 86.214 78.8641 86.214L77.7227 86.0766C77.7227 86.0766 77.4239 85.5627 77.146 86.0109C76.7098 86.707 76.5664 88.6313 76.5485 89.0824H84.4574Z" fill="#254791"/>
<path d="M84.3381 88.7867H82.9039L76.6293 88.7568C76.5486 88.7568 76.5755 88.6343 76.6562 88.6373H77.0804C77.0784 88.6315 77.0784 88.6252 77.0804 88.6194C77.1821 88.4997 77.2565 88.3593 77.2985 88.2079C77.3404 88.0565 77.3489 87.8978 77.3233 87.7429C77.2977 87.5879 77.2387 87.4404 77.1503 87.3105C77.0619 87.1807 76.9463 87.0716 76.8115 86.991C76.7488 86.9551 76.8384 86.8505 76.8982 86.8894C77.4629 87.2419 77.6571 87.9441 77.197 88.6373H78.0933L84.3679 88.6702C84.4456 88.6702 84.4158 88.7897 84.3381 88.7867Z" fill="black"/>
<path d="M80.1429 87.2779C80.5045 86.8985 80.9915 86.7909 81.3112 87.0777C81.362 87.1225 81.4487 87.018 81.3949 86.9732C81.0303 86.6475 80.4626 86.7879 80.0503 87.2152C79.9906 87.2779 80.0832 87.3377 80.1429 87.2779Z" fill="white"/>
<path d="M80.7707 87.4779C81.1323 87.0984 81.6193 86.9939 81.939 87.2777C81.9898 87.3225 82.0764 87.2209 82.0257 87.1731C81.6581 86.8474 81.0904 86.9909 80.6811 87.4181C80.6183 87.4809 80.711 87.5377 80.7707 87.4779Z" fill="white"/>
<path d="M81.4192 87.6783C81.7837 87.3019 82.2707 87.1943 82.5904 87.4782C82.6412 87.523 82.7249 87.4214 82.6741 87.3766C82.3096 87.0479 81.7419 87.1913 81.3295 87.6186C81.2698 87.6813 81.3594 87.7411 81.4192 87.6783Z" fill="white"/>
<path d="M63.829 102.567L64.1069 101.354H60.3242L60.3511 102.567H63.829Z" fill="#263238"/>
<path d="M53.8168 43.9533C59.6253 46.6872 69.9993 47.2758 70.2084 45.8954C70.806 42.0111 70.074 37.4665 70.8329 34.9776C74.027 33.3343 72.046 31.2577 72.7481 28.3325C73.0037 27.2604 72.8356 26.131 72.279 25.1797C71.7223 24.2285 70.8201 23.5287 69.7602 23.2262C69.2523 23.0768 68.7234 22.9274 68.2035 22.79L67.8868 22.7123C66.4888 22.3804 65.0705 22.1409 63.641 21.9952C63.1211 21.9324 62.5773 21.8757 62.0126 21.8129C61.4479 21.7502 60.8921 21.7113 60.3663 21.6874C59.9016 21.6621 59.4367 21.7323 59.0003 21.8939C58.5639 22.0554 58.1653 22.3048 57.8292 22.6267C57.4931 22.9485 57.2266 23.3359 57.0463 23.7648C56.866 24.1938 56.7756 24.6552 56.7808 25.1205C56.8557 27.7765 56.7559 30.4345 56.482 33.0773C56.4252 33.6241 56.3625 34.15 56.2908 34.6639C56.052 36.4783 55.6937 38.2749 55.2181 40.0421C55.2113 40.0755 55.2023 40.1084 55.1912 40.1407C54.992 40.8419 54.7849 41.4862 54.5697 42.0739C54.504 42.2591 54.4353 42.4354 54.3636 42.6057C54.2231 42.9583 53.9751 43.6067 53.8168 43.9533Z" fill="#254791"/>
<g opacity="0.3">
<path d="M53.8168 43.9533C59.6253 46.6872 69.9993 47.2758 70.2084 45.8954C70.806 42.0111 70.074 37.4665 70.8329 34.9776C74.027 33.3343 72.046 31.2577 72.7481 28.3325C73.0037 27.2604 72.8356 26.131 72.279 25.1797C71.7223 24.2285 70.8201 23.5287 69.7602 23.2262C69.2523 23.0768 68.7234 22.9274 68.2035 22.79L67.8868 22.7123C66.4888 22.3804 65.0705 22.1409 63.641 21.9952C63.1211 21.9324 62.5773 21.8757 62.0126 21.8129C61.4479 21.7502 60.8921 21.7113 60.3663 21.6874C59.9016 21.6621 59.4367 21.7323 59.0003 21.8939C58.5639 22.0554 58.1653 22.3048 57.8292 22.6267C57.4931 22.9485 57.2266 23.3359 57.0463 23.7648C56.866 24.1938 56.7756 24.6552 56.7808 25.1205C56.8557 27.7765 56.7559 30.4345 56.482 33.0773C56.4252 33.6241 56.3625 34.15 56.2908 34.6639C56.052 36.4783 55.6937 38.2749 55.2181 40.0421C55.2113 40.0755 55.2023 40.1084 55.1912 40.1407C54.992 40.8419 54.7849 41.4862 54.5697 42.0739C54.504 42.2591 54.4353 42.4354 54.3636 42.6057C54.2231 42.9583 53.9751 43.6067 53.8168 43.9533Z" fill="white"/>
</g>
<path d="M53.5476 26.292C53.5476 26.292 56.0485 21.595 59.4159 21.7743C61.5671 21.8878 61.2684 26.5012 58.875 29.9671C56.6461 29.0767 54.9818 28.0071 53.5476 26.292Z" fill="#254791"/>
<g opacity="0.5">
<path d="M53.5476 26.292C53.5476 26.292 56.0485 21.595 59.4159 21.7743C61.5671 21.8878 61.2684 26.5012 58.875 29.9671C56.6461 29.0767 54.9818 28.0071 53.5476 26.292Z" fill="white"/>
</g>
<path d="M63.6559 21.9956C64.7943 24.7146 68.0152 26.6508 68.0152 26.6508C68.6128 25.5661 68.6905 23.7196 68.2214 22.7934L67.9047 22.7157C66.5059 22.3821 65.0865 22.1416 63.6559 21.9956Z" fill="#9E6141"/>
<path d="M68.1707 23.5547C68.1772 23.5973 68.1903 23.6386 68.2096 23.6772C68.607 24.5138 67.9855 25.1711 67.1459 24.9949C67.0647 24.9799 66.9848 24.9589 66.9068 24.9321C66.6088 24.8333 66.3488 24.6443 66.1628 24.3913C65.5956 23.6132 64.9693 22.88 64.2894 22.1982C65.6459 21.6693 66.4049 19.3029 66.7066 17.803L68.3769 20.5578L68.6757 21.1554C68.457 21.439 68.2734 21.748 68.1289 22.0757C68.0144 22.3068 67.9584 22.5625 67.9657 22.8204C67.973 23.0782 68.0434 23.3304 68.1707 23.5547Z" fill="#9E6141"/>
<g opacity="0.2">
<path d="M68.1349 22.0698C68.2794 21.7421 68.463 21.4331 68.6817 21.1495L68.3829 20.5519L67.137 20.4294C67.2777 21.0721 67.6289 21.6493 68.1349 22.0698Z" fill="black"/>
</g>
<path d="M66.6707 15.0574C66.1718 17.5224 65.9088 18.5533 66.7783 20.1189C68.087 22.4734 71.1645 22.5272 72.3776 20.2594C73.4682 18.2156 74.1017 14.5286 72.031 12.945C69.9604 11.3614 67.1697 12.5924 66.6707 15.0574Z" fill="#9E6141"/>
<path d="M70.6952 12.2784C70.6952 12.2784 71.4183 14.848 72.8764 15.1049C74.3345 15.3619 73.3604 13.3122 72.0009 12.3142C71.4123 11.878 70.6952 12.2784 70.6952 12.2784Z" fill="#263238"/>
<path d="M69.9991 15.8193C70.015 15.8266 70.0323 15.8304 70.0499 15.8304C70.0674 15.8304 70.0847 15.8266 70.1006 15.8193C70.2372 15.7328 70.3922 15.6796 70.5531 15.6641C70.714 15.6485 70.8763 15.671 71.0269 15.7297C71.0423 15.7377 71.0592 15.7425 71.0765 15.7438C71.0939 15.7451 71.1113 15.7429 71.1277 15.7372C71.1441 15.7316 71.1593 15.7227 71.1722 15.7111C71.1851 15.6994 71.1955 15.6853 71.2028 15.6695C71.21 15.6537 71.214 15.6367 71.2145 15.6193C71.215 15.6019 71.212 15.5846 71.2056 15.5685C71.1992 15.5523 71.1896 15.5376 71.1774 15.5253C71.1652 15.5129 71.1506 15.5032 71.1345 15.4967C70.945 15.4198 70.7399 15.3893 70.5362 15.4074C70.3325 15.4256 70.1361 15.4921 69.9632 15.6012C69.9483 15.6095 69.9352 15.6208 69.9249 15.6344C69.9146 15.6479 69.9073 15.6635 69.9033 15.6801C69.8994 15.6967 69.899 15.714 69.9021 15.7307C69.9052 15.7475 69.9118 15.7634 69.9214 15.7775C69.9401 15.8046 69.9675 15.8247 69.9991 15.8343" fill="#263238"/>
<path d="M73.2797 16.5273C73.2939 16.5308 73.3087 16.5313 73.3231 16.5287C73.3375 16.5261 73.3513 16.5206 73.3634 16.5124C73.3765 16.5047 73.388 16.4944 73.3971 16.4823C73.4061 16.4701 73.4127 16.4562 73.4163 16.4414C73.4199 16.4266 73.4206 16.4113 73.4181 16.3963C73.4157 16.3813 73.4103 16.3669 73.4022 16.354C73.3088 16.1953 73.1786 16.0614 73.0226 15.9637C72.8666 15.8659 72.6894 15.8071 72.5058 15.7923C72.4907 15.7919 72.4756 15.7945 72.4615 15.8C72.4474 15.8056 72.4345 15.8139 72.4236 15.8245C72.4128 15.835 72.4041 15.8477 72.3982 15.8617C72.3923 15.8756 72.3893 15.8906 72.3893 15.9058C72.3889 15.921 72.3916 15.9361 72.3971 15.9502C72.4026 15.9643 72.4109 15.9772 72.4215 15.988C72.4321 15.9989 72.4447 16.0075 72.4587 16.0134C72.4727 16.0193 72.4877 16.0223 72.5029 16.0223C72.6474 16.0374 72.7863 16.0865 72.9083 16.1654C73.0303 16.2443 73.132 16.3509 73.205 16.4765C73.2135 16.4895 73.2244 16.5007 73.2372 16.5094C73.2501 16.5182 73.2645 16.5242 73.2797 16.5273Z" fill="#263238"/>
<path d="M65.9296 14.6451C65.9296 14.6451 65.0034 16.2107 66.1686 16.638C67.3339 17.0653 68.0152 16.2675 68.0062 15.5683C67.9972 14.8692 67.7881 14.1312 69.5002 14.4748C71.021 14.7735 71.9622 11.6153 69.9394 11.6661C68.6904 11.696 66.3927 12.4639 65.9296 14.6451Z" fill="#263238"/>
<path d="M71.4125 19.524C71.4125 19.524 70.2681 18.8278 70.0649 18.269C70.0649 18.269 69.7661 19.1893 70.3637 19.6166C70.5177 19.737 70.7117 19.7944 70.9064 19.7772C71.1011 19.76 71.282 19.6695 71.4125 19.524Z" fill="white"/>
<path d="M70.5192 16.8742C70.4654 17.0714 70.5192 17.2596 70.6567 17.2955C70.7941 17.3313 70.9345 17.1969 70.9883 16.9967C71.0421 16.7965 70.9883 16.6112 70.8479 16.5754C70.7075 16.5395 70.573 16.674 70.5192 16.8742Z" fill="#263238"/>
<path d="M72.4971 17.4596C72.4433 17.6568 72.4971 17.845 72.6346 17.8779C72.772 17.9108 72.9095 17.7793 72.9632 17.5791C73.017 17.3789 72.9632 17.1937 72.8258 17.1608C72.6883 17.1279 72.5479 17.2594 72.4971 17.4596Z" fill="#263238"/>
<path d="M72.7659 17.158H73.2768C73.2768 17.158 72.9332 17.4567 72.7659 17.158Z" fill="#263238"/>
<path d="M71.741 17.0923C71.741 17.0923 71.9412 17.7078 72.1892 18.2606C72.2099 18.3021 72.2206 18.3479 72.2205 18.3944C72.2204 18.4408 72.2095 18.4866 72.1886 18.528C72.1677 18.5695 72.1375 18.6055 72.1002 18.6333C72.063 18.661 72.0198 18.6797 71.9741 18.6878C71.7534 18.7278 71.5289 18.7429 71.3048 18.7326L71.741 17.0923Z" fill="#7A4224"/>
<path d="M65.3619 16.5065C65.3973 16.7326 65.4804 16.9486 65.6055 17.1402C65.7307 17.3318 65.8951 17.4947 66.0879 17.618C66.5869 17.9168 67.0112 17.3909 67.0202 16.7515C67.0202 16.1748 66.7781 15.3292 66.2075 15.3024C65.6368 15.2755 65.2543 15.8999 65.3619 16.4975" fill="#9E6141"/>
<path d="M66.3747 17.5614C66.3746 17.6211 66.3566 17.6794 66.3231 17.7288C66.2896 17.7782 66.242 17.8164 66.1865 17.8386C66.131 17.8607 66.0702 17.8656 66.0119 17.8528C65.9536 17.8401 65.9004 17.8101 65.8593 17.7668C65.8181 17.7235 65.7909 17.6689 65.7811 17.61C65.7714 17.5511 65.7794 17.4906 65.8044 17.4363C65.8293 17.382 65.8699 17.3365 65.921 17.3055C65.972 17.2745 66.0312 17.2596 66.0908 17.2626C66.1675 17.2664 66.2397 17.2996 66.2925 17.3552C66.3454 17.4108 66.3748 17.4846 66.3747 17.5614Z" fill="white"/>
<path d="M70.782 16.5747H71.2929C71.2929 16.5747 70.9523 16.8735 70.782 16.5747Z" fill="#263238"/>
<path d="M101.115 60.5571L110.455 62.2871L104.865 54.6052L101.115 60.5571Z" fill="#254791"/>
<g opacity="0.6">
<path d="M104.865 54.6052L108.833 60.0581L110.455 62.2871L107.775 61.7941L101.112 60.5571L104.865 54.6052Z" fill="white"/>
</g>
<path d="M108.833 60.0581L110.455 62.2871L107.766 61.7941C108.078 61.1896 108.434 60.6093 108.833 60.0581Z" fill="#263238"/>
<path d="M45.6414 17.2776L104.865 54.6054L106.362 56.6641L103.613 56.5894L104.981 58.899L102.364 58.5733L103.451 60.9905L101.112 60.5573L41.8916 23.2265L45.6414 17.2776Z" fill="#254791"/>
<path d="M45.6427 17.2712L41.891 23.2241L44.7904 25.0514L48.542 19.0984L45.6427 17.2712Z" fill="#263238"/>
<path d="M40.0155 18.751L40.7977 17.5099C41.1915 16.8851 41.8173 16.4423 42.5376 16.2789C43.2578 16.1155 44.0135 16.245 44.6383 16.6387L45.6494 17.276L41.8978 23.2289L40.8867 22.5917C40.2618 22.1979 39.819 21.572 39.6557 20.8518C39.4923 20.1315 39.6217 19.3759 40.0155 18.751Z" fill="#254791"/>
<g opacity="0.6">
<path d="M40.0154 18.7513L40.7976 17.5101C41.1913 16.8853 41.8172 16.4425 42.5375 16.2791C43.2577 16.1158 44.0134 16.2452 44.6382 16.639L45.6493 17.2762L41.8977 23.2291L40.8865 22.5919C40.2617 22.1981 39.8189 21.5723 39.6555 20.852C39.4922 20.1318 39.6216 19.3761 40.0154 18.7513Z" fill="white"/>
</g>
<path d="M102.325 58.546C102.313 58.5655 102.293 58.5795 102.27 58.585C102.247 58.5906 102.223 58.5873 102.203 58.5759L45.9825 23.1484C45.9623 23.1353 45.9481 23.1147 45.9431 23.0912C45.938 23.0677 45.9425 23.0431 45.9556 23.0229C45.9687 23.0027 45.9892 22.9885 46.0128 22.9835C46.0363 22.9784 46.0609 22.9829 46.0811 22.996L102.299 58.4265C102.318 58.4388 102.332 58.4583 102.337 58.4807C102.342 58.5031 102.338 58.5266 102.325 58.546Z" fill="#263238"/>
<path d="M103.577 56.5654C103.564 56.5851 103.544 56.5991 103.52 56.6046C103.497 56.6102 103.473 56.6068 103.452 56.5952L47.2434 21.1647C47.2236 21.1513 47.2097 21.1308 47.2047 21.1074C47.1997 21.084 47.2039 21.0596 47.2165 21.0392C47.2226 21.0292 47.2306 21.0205 47.2402 21.0137C47.2497 21.0069 47.2605 21.0021 47.272 20.9996C47.2835 20.9971 47.2953 20.9969 47.3068 20.9991C47.3183 21.0013 47.3293 21.0058 47.339 21.0124L103.547 56.4548C103.565 56.4664 103.578 56.4841 103.583 56.5044C103.589 56.5248 103.587 56.5465 103.577 56.5654Z" fill="#263238"/>
<path d="M65.8997 37.4188C65.6009 37.5592 65.317 37.6877 65.0302 37.8102C64.8628 37.8849 64.6985 37.9536 64.5312 38.0224C64.074 38.2136 63.6139 38.3988 63.1478 38.5691C62.2215 38.9157 61.2774 39.2235 60.3123 39.5014C59.3291 39.7829 58.3317 40.0122 57.3244 40.1886C56.8075 40.2812 56.2816 40.344 55.7288 40.3888C55.2073 40.4374 54.6826 40.4424 54.1602 40.4037L53.966 40.3888C53.7185 40.3619 53.4772 40.2943 53.2518 40.1886C52.9649 40.0525 52.7087 39.8593 52.4989 39.6209C52.2691 39.3537 52.0981 39.0412 51.9969 38.7036C51.9078 38.4126 51.8566 38.1113 51.8445 37.8072C51.8303 37.4582 51.8423 37.1087 51.8804 36.7615C51.934 36.2099 52.0157 35.6614 52.1254 35.1181C52.3256 34.0813 52.5587 33.0953 52.8156 32.1302C52.968 31.5565 53.1144 30.9888 53.2937 30.4211L57.1152 32.8294C57.0704 32.9728 57.0315 33.1282 56.9927 33.2626C56.7417 34.1799 56.4907 35.0942 56.2965 35.9816C56.2666 36.1191 56.2368 36.2565 56.2099 36.391C56.437 36.391 56.67 36.391 56.9031 36.376C57.7994 36.3432 58.6958 36.2535 59.634 36.1549C60.3959 36.0713 61.1638 35.9727 61.9347 35.8561L62.4337 35.7874L65.2543 35.384L65.8997 37.4188Z" fill="#9E6141"/>
<path d="M65.03 35.4258C65.03 35.4258 67.4831 34.652 68.0179 34.7416C68.6006 34.8432 68.4303 37.9118 67.6923 38.357C66.9542 38.8022 65.1824 37.4606 65.1824 37.4606L65.03 35.4258Z" fill="#9E6141"/>
<path d="M65.033 35.4529C65.319 35.0936 65.6799 34.801 66.0907 34.5954C66.6375 34.3833 67.1335 34.0367 67.3904 34.1263C67.6474 34.216 66.742 35.0496 66.742 35.0496L65.033 35.4529Z" fill="#9E6141"/>
<path d="M68.0062 34.7417C68.0062 34.7417 69.5271 35.1212 70.0261 35.7277C70.525 36.3342 69.1626 36.0026 69.1626 36.0026C69.1626 36.0026 70.7551 36.5225 70.1456 37.7445C69.8468 38.3421 68.0361 38.5214 67.1995 38.4377C67.1965 38.4377 67.1397 35.8831 68.0062 34.7417Z" fill="#9E6141"/>
<path d="M82.2644 39.6385C82.2644 39.6385 82.2226 39.4324 81.6489 39.2979C81.26 39.1907 80.8532 39.1643 80.4537 39.2202L81.8431 40.1166C81.8431 40.1166 81.6907 41.3386 82.3481 41.8854C83.6687 42.985 84.6876 42.3306 84.9714 42.0946C85.2553 41.8585 84.7832 40.7978 83.9526 40.1823C83.4655 39.8193 82.8718 39.6281 82.2644 39.6385Z" fill="#9E6141"/>
</svg>
