<svg width="131" height="117" viewBox="0 0 131 117" fill="none" xmlns="http://www.w3.org/2000/svg">
<path d="M29.3098 115.241V106.14C29.2095 106.174 29.107 106.2 29.0031 106.22C28.8088 106.266 28.5889 106.312 28.3435 106.358L27.6917 106.478C27.5025 106.516 27.4028 106.534 27.3926 106.534V105.432C27.546 105.396 27.7275 105.345 27.9294 105.284C28.142 105.217 28.3511 105.139 28.5557 105.051C28.7712 104.961 28.9761 104.847 29.1667 104.711C29.3565 104.581 29.524 104.42 29.6626 104.236H30.7618V115.241H29.3098Z" fill="#E0E0E0"/>
<path d="M57.6368 115.241V114.218L60.4335 109.857C60.6431 109.533 60.8348 109.229 61.0112 108.947C61.188 108.667 61.3337 108.369 61.4458 108.058C61.566 107.711 61.624 107.346 61.6171 106.979C61.6348 106.565 61.5468 106.153 61.3614 105.783C61.2743 105.637 61.1476 105.518 60.9961 105.441C60.8445 105.365 60.6743 105.332 60.505 105.348C60.3592 105.339 60.2131 105.36 60.0755 105.409C59.938 105.458 59.8119 105.535 59.7049 105.634C59.5045 105.84 59.3678 106.099 59.3112 106.381C59.2356 106.706 59.1987 107.039 59.2013 107.373V107.718H57.7468V107.337C57.7311 106.758 57.8176 106.181 58.0024 105.632C58.1618 105.18 58.462 104.792 58.8588 104.525C59.3321 104.243 59.8779 104.106 60.4284 104.131C61.3154 104.131 61.9775 104.387 62.4121 104.885C62.8467 105.384 63.0639 106.084 63.0639 106.971C63.0717 107.39 63.0139 107.808 62.8927 108.209C62.7834 108.554 62.636 108.887 62.453 109.2C62.2723 109.507 62.0729 109.824 61.8548 110.151L59.3266 114.009H62.8058V115.231L57.6368 115.241Z" fill="#E0E0E0"/>
<path d="M89.256 115.364C88.7364 115.383 88.2209 115.266 87.7606 115.024C87.3661 114.802 87.0527 114.46 86.8659 114.047C86.6567 113.573 86.5546 113.058 86.5668 112.539V112.171H88.006V112.427C88.0124 112.724 88.051 113.02 88.121 113.309C88.1768 113.55 88.3053 113.769 88.4891 113.935C88.7083 114.102 88.9809 114.184 89.256 114.165C89.5463 114.184 89.833 114.093 90.0587 113.909C90.2515 113.715 90.3792 113.466 90.4243 113.196C90.4915 112.847 90.5232 112.491 90.5189 112.135C90.5399 111.642 90.4297 111.153 90.1993 110.717C90.0806 110.528 89.9151 110.373 89.719 110.267C89.5228 110.161 89.3026 110.107 89.0796 110.111C89.0457 110.106 89.0113 110.106 88.9774 110.111H88.8726V108.638H89.0643C89.2679 108.649 89.4717 108.619 89.6633 108.549C89.8549 108.48 90.0303 108.371 90.1789 108.232C90.4038 107.978 90.5163 107.557 90.5163 106.969C90.5343 106.555 90.4464 106.143 90.2607 105.773C90.0919 105.473 89.7494 105.325 89.2611 105.325C88.7729 105.325 88.4329 105.489 88.2693 105.821C88.0906 106.224 87.9983 106.659 87.9983 107.099V107.332H86.5719V106.951C86.5576 106.432 86.6598 105.917 86.871 105.443C87.0632 105.035 87.3789 104.698 87.7734 104.479C88.2433 104.255 88.7572 104.139 89.2778 104.139C89.7983 104.139 90.3123 104.255 90.7822 104.479C91.176 104.7 91.49 105.04 91.6794 105.45C91.8903 105.927 91.9925 106.445 91.9785 106.966C92.0058 107.528 91.8565 108.084 91.5516 108.556C91.2712 108.95 90.8657 109.236 90.4013 109.369C90.7253 109.461 91.0191 109.638 91.2525 109.881C91.4961 110.149 91.6792 110.466 91.7894 110.811C91.9223 111.235 91.9861 111.678 91.9785 112.123C91.9908 112.702 91.899 113.28 91.7076 113.828C91.5459 114.287 91.2412 114.682 90.8384 114.955C90.3638 115.247 89.8125 115.389 89.256 115.364Z" fill="#E0E0E0"/>
<g opacity="0.3">
<path d="M96.1687 64.2035H77.625C77.5911 64.2035 77.5586 64.1901 77.5346 64.1661C77.5107 64.1421 77.4972 64.1096 77.4972 64.0757V48.776C77.4972 48.7421 77.5107 48.7096 77.5346 48.6856C77.5586 48.6617 77.5911 48.6482 77.625 48.6482H83.8395C83.8734 48.6482 83.9059 48.6617 83.9298 48.6856C83.9538 48.7096 83.9673 48.7421 83.9673 48.776V49.3946C83.9673 49.5404 84.0252 49.6802 84.1283 49.7833C84.2313 49.8864 84.3711 49.9443 84.5169 49.9443C84.6627 49.9443 84.8025 49.8864 84.9055 49.7833C85.0086 49.6802 85.0665 49.5404 85.0665 49.3946V48.776C85.0665 48.7421 85.08 48.7096 85.1039 48.6856C85.1279 48.6617 85.1604 48.6482 85.1943 48.6482H88.5968C88.6307 48.6482 88.6632 48.6617 88.6872 48.6856C88.7112 48.7096 88.7246 48.7421 88.7246 48.776V49.3946C88.7195 49.4698 88.7299 49.5452 88.7551 49.6162C88.7803 49.6872 88.8199 49.7522 88.8713 49.8073C88.9227 49.8623 88.9849 49.9062 89.054 49.9362C89.1231 49.9662 89.1976 49.9817 89.273 49.9817C89.3483 49.9817 89.4228 49.9662 89.4919 49.9362C89.561 49.9062 89.6232 49.8623 89.6746 49.8073C89.726 49.7522 89.7656 49.6872 89.7908 49.6162C89.8161 49.5452 89.8264 49.4698 89.8213 49.3946V48.776C89.8213 48.7421 89.8348 48.7096 89.8587 48.6856C89.8827 48.6617 89.9152 48.6482 89.9491 48.6482H96.1661C96.2 48.6482 96.2325 48.6617 96.2565 48.6856C96.2805 48.7096 96.2939 48.7421 96.2939 48.776V64.0757C96.2939 64.1092 96.2808 64.1413 96.2574 64.1652C96.234 64.1891 96.2021 64.2029 96.1687 64.2035ZM77.7631 63.9479H96.0306V48.9038H90.0795V49.3946C90.0856 49.504 90.0694 49.6135 90.0318 49.7164C89.9942 49.8194 89.936 49.9135 89.8607 49.9931C89.7855 50.0728 89.6947 50.1362 89.5941 50.1795C89.4935 50.2229 89.3851 50.2452 89.2755 50.2452C89.1659 50.2452 89.0575 50.2229 88.9569 50.1795C88.8563 50.1362 88.7656 50.0728 88.6903 49.9931C88.615 49.9135 88.5568 49.8194 88.5192 49.7164C88.4816 49.6135 88.4654 49.504 88.4715 49.3946V48.9038H85.3247V49.3946C85.3247 49.6082 85.2399 49.813 85.0888 49.964C84.9378 50.1151 84.733 50.1999 84.5194 50.1999C84.3059 50.1999 84.1011 50.1151 83.9501 49.964C83.799 49.813 83.7142 49.6082 83.7142 49.3946V48.9038H77.7554L77.7631 63.9479Z" fill="#F5F5F5"/>
<path d="M81.0758 55.5377H78.747C78.7131 55.5377 78.6805 55.5242 78.6566 55.5003C78.6326 55.4763 78.6191 55.4438 78.6191 55.4099V53.0836C78.6191 53.0497 78.6326 53.0172 78.6566 52.9932C78.6805 52.9693 78.7131 52.9558 78.747 52.9558H81.0758C81.1097 52.9558 81.1422 52.9693 81.1662 52.9932C81.1901 53.0172 81.2036 53.0497 81.2036 53.0836V55.4099C81.2036 55.4438 81.1901 55.4763 81.1662 55.5003C81.1422 55.5242 81.1097 55.5377 81.0758 55.5377ZM78.8748 55.2821H80.948V53.2114H78.8748V55.2821Z" fill="#F5F5F5"/>
<path d="M84.5702 55.5377H82.2413C82.2074 55.5377 82.1749 55.5242 82.151 55.5003C82.127 55.4763 82.1135 55.4438 82.1135 55.4099V53.0836C82.1135 53.0497 82.127 53.0172 82.151 52.9932C82.1749 52.9693 82.2074 52.9558 82.2413 52.9558H84.5702C84.6041 52.9558 84.6366 52.9693 84.6605 52.9932C84.6845 53.0172 84.698 53.0497 84.698 53.0836V55.4099C84.698 55.4438 84.6845 55.4763 84.6605 55.5003C84.6366 55.5242 84.6041 55.5377 84.5702 55.5377ZM82.3692 55.2821H84.4424V53.2114H82.3692V55.2821Z" fill="#F5F5F5"/>
<path d="M88.0625 55.5377H85.7337C85.6998 55.5377 85.6672 55.5242 85.6433 55.5003C85.6193 55.4763 85.6058 55.4438 85.6058 55.4099V53.0836C85.6058 53.0497 85.6193 53.0172 85.6433 52.9932C85.6672 52.9693 85.6998 52.9558 85.7337 52.9558H88.0625C88.0964 52.9558 88.1289 52.9693 88.1529 52.9932C88.1768 53.0172 88.1903 53.0497 88.1903 53.0836V55.4099C88.1903 55.4438 88.1768 55.4763 88.1529 55.5003C88.1289 55.5242 88.0964 55.5377 88.0625 55.5377ZM85.8615 55.2821H87.9347V53.2114H85.8615V55.2821Z" fill="#F5F5F5"/>
<path d="M91.5543 55.5377H89.2255C89.1916 55.5377 89.1591 55.5242 89.1351 55.5003C89.1111 55.4763 89.0977 55.4438 89.0977 55.4099V53.0836C89.0977 53.0497 89.1111 53.0172 89.1351 52.9932C89.1591 52.9693 89.1916 52.9558 89.2255 52.9558H91.5543C91.5882 52.9558 91.6207 52.9693 91.6447 52.9932C91.6686 53.0172 91.6821 53.0497 91.6821 53.0836V55.4099C91.6821 55.4438 91.6686 55.4763 91.6447 55.5003C91.6207 55.5242 91.5882 55.5377 91.5543 55.5377ZM89.3533 55.2821H91.429V53.2114H89.3558L89.3533 55.2821Z" fill="#F5F5F5"/>
<path d="M95.0486 55.5377H92.7197C92.6858 55.5377 92.6533 55.5242 92.6294 55.5003C92.6054 55.4763 92.5919 55.4438 92.5919 55.4099V53.0836C92.5919 53.0497 92.6054 53.0172 92.6294 52.9932C92.6533 52.9693 92.6858 52.9558 92.7197 52.9558H95.0486C95.0825 52.9558 95.115 52.9693 95.1389 52.9932C95.1629 53.0172 95.1764 53.0497 95.1764 53.0836V55.4099C95.1764 55.4438 95.1629 55.4763 95.1389 55.5003C95.115 55.5242 95.0825 55.5377 95.0486 55.5377ZM92.8476 55.2821H94.9207V53.2114H92.8476V55.2821Z" fill="#F5F5F5"/>
<path d="M81.0758 59.1296H78.747C78.7133 59.129 78.6811 59.1153 78.6573 59.0915C78.6335 59.0676 78.6198 59.0355 78.6191 59.0018V56.673C78.6191 56.6391 78.6326 56.6066 78.6566 56.5826C78.6805 56.5586 78.7131 56.5452 78.747 56.5452H81.0758C81.1097 56.5452 81.1422 56.5586 81.1662 56.5826C81.1901 56.6066 81.2036 56.6391 81.2036 56.673V59.0018C81.2036 59.0357 81.1901 59.0682 81.1662 59.0922C81.1422 59.1162 81.1097 59.1296 81.0758 59.1296ZM78.8748 58.874H80.948V56.8008H78.8748V58.874Z" fill="#F5F5F5"/>
<path d="M84.5702 59.1296H82.2413C82.2074 59.1296 82.1749 59.1162 82.151 59.0922C82.127 59.0682 82.1135 59.0357 82.1135 59.0018V56.673C82.1135 56.6391 82.127 56.6066 82.151 56.5826C82.1749 56.5586 82.2074 56.5452 82.2413 56.5452H84.5702C84.6041 56.5452 84.6366 56.5586 84.6605 56.5826C84.6845 56.6066 84.698 56.6391 84.698 56.673V59.0018C84.6973 59.0355 84.6837 59.0676 84.6598 59.0915C84.636 59.1153 84.6039 59.129 84.5702 59.1296ZM82.3692 58.874H84.4424V56.8008H82.3692V58.874Z" fill="#F5F5F5"/>
<path d="M88.0625 59.1296H85.7337C85.7 59.129 85.6678 59.1153 85.644 59.0915C85.6202 59.0676 85.6065 59.0355 85.6058 59.0018V56.673C85.6058 56.6391 85.6193 56.6066 85.6433 56.5826C85.6672 56.5586 85.6998 56.5452 85.7337 56.5452H88.0625C88.0964 56.5452 88.1289 56.5586 88.1529 56.5826C88.1768 56.6066 88.1903 56.6391 88.1903 56.673V59.0018C88.1903 59.0357 88.1768 59.0682 88.1529 59.0922C88.1289 59.1162 88.0964 59.1296 88.0625 59.1296ZM85.8615 58.874H87.9347V56.8008H85.8615V58.874Z" fill="#F5F5F5"/>
<path d="M91.5543 59.1296H89.2255C89.1918 59.129 89.1596 59.1153 89.1358 59.0915C89.112 59.0676 89.0983 59.0355 89.0977 59.0018V56.673C89.0977 56.6391 89.1111 56.6066 89.1351 56.5826C89.1591 56.5586 89.1916 56.5452 89.2255 56.5452H91.5543C91.5882 56.5452 91.6207 56.5586 91.6447 56.5826C91.6686 56.6066 91.6821 56.6391 91.6821 56.673V59.0018C91.6821 59.0357 91.6686 59.0682 91.6447 59.0922C91.6207 59.1162 91.5882 59.1296 91.5543 59.1296ZM89.3533 58.874H91.429V56.8008H89.3558L89.3533 58.874Z" fill="#F5F5F5"/>
<path d="M95.0486 59.1296H92.7197C92.6858 59.1296 92.6533 59.1162 92.6294 59.0922C92.6054 59.0682 92.5919 59.0357 92.5919 59.0018V56.673C92.5919 56.6391 92.6054 56.6066 92.6294 56.5826C92.6533 56.5586 92.6858 56.5452 92.7197 56.5452H95.0486C95.0825 56.5452 95.115 56.5586 95.1389 56.5826C95.1629 56.6066 95.1764 56.6391 95.1764 56.673V59.0018C95.1757 59.0355 95.162 59.0676 95.1382 59.0915C95.1144 59.1153 95.0823 59.129 95.0486 59.1296ZM92.8476 58.874H94.9207V56.8008H92.8476V58.874Z" fill="#F5F5F5"/>
<path d="M81.0758 62.7261H78.747C78.7131 62.7261 78.6805 62.7126 78.6566 62.6886C78.6326 62.6647 78.6191 62.6321 78.6191 62.5982V60.2694C78.6198 60.2357 78.6335 60.2036 78.6573 60.1798C78.6811 60.1559 78.7133 60.1423 78.747 60.1416H81.0758C81.1097 60.1416 81.1422 60.1551 81.1662 60.179C81.1901 60.203 81.2036 60.2355 81.2036 60.2694V62.5982C81.2036 62.6321 81.1901 62.6647 81.1662 62.6886C81.1422 62.7126 81.1097 62.7261 81.0758 62.7261ZM78.8748 62.4704H80.948V60.3972H78.8748V62.4704Z" fill="#F5F5F5"/>
<path d="M84.5702 62.7261H82.2413C82.2074 62.7261 82.1749 62.7126 82.151 62.6886C82.127 62.6647 82.1135 62.6321 82.1135 62.5982V60.2694C82.1135 60.2355 82.127 60.203 82.151 60.179C82.1749 60.1551 82.2074 60.1416 82.2413 60.1416H84.5702C84.6039 60.1423 84.636 60.1559 84.6598 60.1798C84.6837 60.2036 84.6973 60.2357 84.698 60.2694V62.5982C84.698 62.6321 84.6845 62.6647 84.6605 62.6886C84.6366 62.7126 84.6041 62.7261 84.5702 62.7261ZM82.3692 62.4704H84.4424V60.3972H82.3692V62.4704Z" fill="#F5F5F5"/>
<path d="M88.0625 62.7261H85.7337C85.6998 62.7261 85.6672 62.7126 85.6433 62.6886C85.6193 62.6647 85.6058 62.6321 85.6058 62.5982V60.2694C85.6065 60.2357 85.6202 60.2036 85.644 60.1798C85.6678 60.1559 85.7 60.1423 85.7337 60.1416H88.0625C88.0964 60.1416 88.1289 60.1551 88.1529 60.179C88.1768 60.203 88.1903 60.2355 88.1903 60.2694V62.5982C88.1903 62.6321 88.1768 62.6647 88.1529 62.6886C88.1289 62.7126 88.0964 62.7261 88.0625 62.7261ZM85.8615 62.4704H87.9347V60.3972H85.8615V62.4704Z" fill="#F5F5F5"/>
<path d="M91.5543 62.7261H89.2255C89.1916 62.7261 89.1591 62.7126 89.1351 62.6886C89.1111 62.6647 89.0977 62.6321 89.0977 62.5982V60.2694C89.0983 60.2357 89.112 60.2036 89.1358 60.1798C89.1596 60.1559 89.1918 60.1423 89.2255 60.1416H91.5543C91.5882 60.1416 91.6207 60.1551 91.6447 60.179C91.6686 60.203 91.6821 60.2355 91.6821 60.2694V62.5982C91.6821 62.6321 91.6686 62.6647 91.6447 62.6886C91.6207 62.7126 91.5882 62.7261 91.5543 62.7261ZM89.3533 62.4704H91.429V60.3972H89.3558L89.3533 62.4704Z" fill="#F5F5F5"/>
<path d="M95.0486 62.7261H92.7197C92.6858 62.7261 92.6533 62.7126 92.6294 62.6886C92.6054 62.6647 92.5919 62.6321 92.5919 62.5982V60.2694C92.5919 60.2355 92.6054 60.203 92.6294 60.179C92.6533 60.1551 92.6858 60.1416 92.7197 60.1416H95.0486C95.0823 60.1423 95.1144 60.1559 95.1382 60.1798C95.162 60.2036 95.1757 60.2357 95.1764 60.2694V62.5982C95.1764 62.6321 95.1629 62.6647 95.1389 62.6886C95.115 62.7126 95.0825 62.7261 95.0486 62.7261ZM92.8476 62.4704H94.9207V60.3972H92.8476V62.4704Z" fill="#F5F5F5"/>
<path d="M84.5269 50.2001C84.3136 50.1994 84.1091 50.1143 83.9583 49.9635C83.8074 49.8126 83.7224 49.6082 83.7217 49.3948V47.066C83.7217 46.8524 83.8065 46.6476 83.9575 46.4966C84.1085 46.3456 84.3134 46.2607 84.5269 46.2607C84.7405 46.2607 84.9453 46.3456 85.0963 46.4966C85.2473 46.6476 85.3322 46.8524 85.3322 47.066V49.3948C85.3322 49.5006 85.3113 49.6053 85.2709 49.703C85.2304 49.8007 85.1711 49.8894 85.0963 49.9642C85.0215 50.039 84.9328 50.0983 84.8351 50.1388C84.7374 50.1792 84.6327 50.2001 84.5269 50.2001ZM84.5269 46.5189C84.3816 46.5189 84.2422 46.5765 84.1392 46.679C84.0362 46.7815 83.978 46.9207 83.9773 47.066V49.3948C83.9773 49.5406 84.0352 49.6804 84.1383 49.7835C84.2414 49.8865 84.3812 49.9444 84.5269 49.9444C84.6727 49.9444 84.8125 49.8865 84.9156 49.7835C85.0186 49.6804 85.0765 49.5406 85.0765 49.3948V47.066C85.0765 46.9939 85.0623 46.9226 85.0346 46.8561C85.007 46.7895 84.9665 46.7291 84.9154 46.6783C84.8643 46.6274 84.8037 46.5872 84.7371 46.5598C84.6704 46.5325 84.599 46.5186 84.5269 46.5189Z" fill="#F5F5F5"/>
<path d="M89.2768 50.2004C89.0634 50.1997 88.859 50.1146 88.7082 49.9638C88.5573 49.8129 88.4722 49.6085 88.4716 49.3951V47.0663C88.4831 46.8609 88.5729 46.6677 88.7224 46.5264C88.8719 46.3851 89.0698 46.3064 89.2755 46.3064C89.4812 46.3064 89.6791 46.3851 89.8287 46.5264C89.9782 46.6677 90.0679 46.8609 90.0795 47.0663V49.3951C90.0795 49.6082 89.995 49.8127 89.8446 49.9636C89.6941 50.1146 89.4899 50.1997 89.2768 50.2004ZM89.2768 46.5192C89.1315 46.5192 88.9921 46.5768 88.8891 46.6793C88.7861 46.7818 88.7279 46.921 88.7272 47.0663V49.3951C88.7221 49.4703 88.7324 49.5457 88.7577 49.6167C88.7829 49.6876 88.8224 49.7527 88.8739 49.8077C88.9253 49.8628 88.9875 49.9067 89.0566 49.9367C89.1257 49.9667 89.2002 49.9822 89.2755 49.9822C89.3509 49.9822 89.4254 49.9667 89.4945 49.9367C89.5636 49.9067 89.6258 49.8628 89.6772 49.8077C89.7286 49.7527 89.7682 49.6876 89.7934 49.6167C89.8186 49.5457 89.829 49.4703 89.8239 49.3951V47.0663C89.8239 46.9212 89.7662 46.7821 89.6636 46.6795C89.561 46.5769 89.4219 46.5192 89.2768 46.5192Z" fill="#F5F5F5"/>
</g>
<g opacity="0.3">
<path d="M10.9042 41.199H8.16895C8.13506 41.199 8.10254 41.1856 8.07857 41.1616C8.0546 41.1376 8.04114 41.1051 8.04114 41.0712V34.7494C8.04114 34.7155 8.0546 34.683 8.07857 34.659C8.10254 34.6351 8.13506 34.6216 8.16895 34.6216H10.9042C10.9381 34.6216 10.9706 34.6351 10.9946 34.659C11.0186 34.683 11.0321 34.7155 11.0321 34.7494V41.0712C11.0321 41.1051 11.0186 41.1376 10.9946 41.1616C10.9706 41.1856 10.9381 41.199 10.9042 41.199ZM8.30444 40.9434H10.7764V34.8772H8.29677L8.30444 40.9434Z" fill="#F5F5F5"/>
<path d="M14.5498 41.1996H11.8222C11.7883 41.1996 11.7557 41.1861 11.7318 41.1621C11.7078 41.1381 11.6943 41.1056 11.6943 41.0717V31.5187C11.6943 31.4848 11.7078 31.4523 11.7318 31.4283C11.7557 31.4043 11.7883 31.3909 11.8222 31.3909H14.5498C14.5837 31.3909 14.6162 31.4043 14.6401 31.4283C14.6641 31.4523 14.6776 31.4848 14.6776 31.5187V41.0717C14.6776 41.1056 14.6641 41.1381 14.6401 41.1621C14.6162 41.1861 14.5837 41.1996 14.5498 41.1996ZM11.95 40.9439H14.4219V31.6465H11.95V40.9439Z" fill="#F5F5F5"/>
<path d="M18.203 41.1994H15.4728C15.4389 41.1994 15.4064 41.186 15.3824 41.162C15.3584 41.138 15.345 41.1055 15.345 41.0716V27.4489C15.345 27.415 15.3584 27.3825 15.3824 27.3585C15.4064 27.3345 15.4389 27.321 15.4728 27.321H18.203C18.2369 27.321 18.2694 27.3345 18.2933 27.3585C18.3173 27.3825 18.3308 27.415 18.3308 27.4489V41.0767C18.3294 41.1097 18.3154 41.1409 18.2916 41.1638C18.2677 41.1867 18.236 41.1995 18.203 41.1994ZM15.6006 40.9438H18.0751V27.5716H15.6006V40.9438Z" fill="#F5F5F5"/>
<path d="M21.8554 41.1994H19.1253C19.0914 41.1994 19.0588 41.1859 19.0349 41.162C19.0109 41.138 18.9974 41.1055 18.9974 41.0716V24.6369C18.9974 24.603 19.0109 24.5704 19.0349 24.5465C19.0588 24.5225 19.0914 24.509 19.1253 24.509H21.8554C21.8893 24.509 21.9218 24.5225 21.9458 24.5465C21.9698 24.5704 21.9832 24.603 21.9832 24.6369V41.0741C21.9826 41.1076 21.9688 41.1394 21.9449 41.1629C21.921 41.1863 21.8889 41.1994 21.8554 41.1994ZM19.2531 40.9438H21.7276V24.7621H19.2531V40.9438Z" fill="#F5F5F5"/>
</g>
<path d="M120.453 38.0438C125.755 32.7418 125.755 24.1454 120.453 18.8434C115.15 13.5414 106.554 13.5414 101.252 18.8434C95.9501 24.1454 95.9501 32.7418 101.252 38.0438C106.554 43.3458 115.15 43.3458 120.453 38.0438Z" fill="#254791"/>
<path d="M110.857 42.1474C108.147 42.1474 105.497 41.3436 103.244 39.8378C100.99 38.3319 99.2333 36.1915 98.196 33.6873C97.1588 31.1832 96.8874 28.4276 97.4162 25.7692C97.945 23.1108 99.2502 20.6689 101.167 18.7523C103.083 16.8356 105.525 15.5304 108.184 15.0016C110.842 14.4728 113.598 14.7442 116.102 15.7815C118.606 16.8187 120.746 18.5753 122.252 20.829C123.758 23.0827 124.562 25.7323 124.562 28.4428C124.558 32.0763 123.113 35.5597 120.543 38.1289C117.974 40.6982 114.491 42.1433 110.857 42.1474ZM110.857 14.9939C108.197 14.9939 105.597 15.7827 103.386 17.2605C101.174 18.7383 99.4501 20.8387 98.4322 23.2962C97.4143 25.7536 97.148 28.4578 97.6669 31.0666C98.1858 33.6754 99.4667 36.0718 101.348 37.9527C103.228 39.8335 105.625 41.1144 108.234 41.6333C110.842 42.1523 113.547 41.8859 116.004 40.868C118.461 39.8501 120.562 38.1263 122.04 35.9147C123.517 33.703 124.306 31.1028 124.306 28.4428C124.302 24.8772 122.884 21.4588 120.363 18.9375C117.841 16.4162 114.423 14.998 110.857 14.9939Z" fill="#263238"/>
<path d="M118.54 36.1314C122.786 31.8855 122.786 25.0017 118.54 20.7559C114.294 16.51 107.41 16.51 103.164 20.7559C98.9185 25.0017 98.9185 31.8855 103.164 36.1314C107.41 40.3772 114.294 40.3772 118.54 36.1314Z" fill="white"/>
<path d="M110.857 39.443C108.683 39.443 106.558 38.7984 104.75 37.5905C102.942 36.3827 101.533 34.6659 100.701 32.6573C99.8694 30.6488 99.6517 28.4386 100.076 26.3063C100.5 24.174 101.547 22.2154 103.084 20.6781C104.621 19.1408 106.58 18.0939 108.712 17.6697C110.845 17.2456 113.055 17.4633 115.063 18.2952C117.072 19.1272 118.789 20.5361 119.997 22.3438C121.204 24.1515 121.849 26.2767 121.849 28.4508C121.844 31.3644 120.684 34.1572 118.624 36.2175C116.563 38.2778 113.771 39.4376 110.857 39.443ZM110.857 17.6988C108.733 17.6988 106.658 18.3285 104.892 19.5082C103.126 20.688 101.75 22.3648 100.938 24.3267C100.125 26.2886 99.9123 28.4473 100.327 30.53C100.741 32.6128 101.763 34.5258 103.265 36.0274C104.766 37.5289 106.68 38.5515 108.762 38.9658C110.845 39.38 113.004 39.1674 114.966 38.3548C116.927 37.5422 118.604 36.166 119.784 34.4004C120.964 32.6348 121.593 30.5589 121.593 28.4354C121.588 25.5896 120.455 22.8618 118.443 20.8495C116.43 18.8371 113.703 17.7042 110.857 17.6988Z" fill="#263238"/>
<path d="M115.774 33.3657C118.492 30.6473 118.492 26.2399 115.774 23.5215C113.056 20.8031 108.648 20.8031 105.93 23.5215C103.211 26.2399 103.211 30.6473 105.93 33.3657C108.648 36.0841 113.056 36.0841 115.774 33.3657Z" fill="#254791"/>
<path d="M110.858 35.532C109.456 35.532 108.085 35.1162 106.919 34.3373C105.754 33.5584 104.845 32.4513 104.308 31.156C103.772 29.8607 103.631 28.4354 103.905 27.0603C104.179 25.6852 104.854 24.4221 105.845 23.4307C106.836 22.4394 108.1 21.7642 109.475 21.4907C110.85 21.2172 112.275 21.3576 113.57 21.8941C114.866 22.4306 115.973 23.3392 116.752 24.5049C117.53 25.6707 117.946 27.0412 117.946 28.4432C117.944 30.3227 117.197 32.1245 115.868 33.4535C114.539 34.7824 112.737 35.5299 110.858 35.532ZM110.858 21.6101C109.506 21.6101 108.185 22.0109 107.061 22.7617C105.938 23.5125 105.062 24.5797 104.545 25.8283C104.027 27.0769 103.892 28.4508 104.156 29.7763C104.419 31.1018 105.07 32.3193 106.026 33.275C106.981 34.2306 108.199 34.8814 109.524 35.145C110.85 35.4087 112.224 35.2734 113.472 34.7562C114.721 34.239 115.788 33.3632 116.539 32.2395C117.29 31.1158 117.691 29.7947 117.691 28.4432C117.689 26.6316 116.968 24.8948 115.687 23.6137C114.406 22.3327 112.669 21.6122 110.858 21.6101Z" fill="#263238"/>
<path d="M113.634 31.2255C115.17 29.6891 115.17 27.1981 113.634 25.6617C112.097 24.1253 109.606 24.1253 108.07 25.6617C106.533 27.1981 106.533 29.6891 108.07 31.2255C109.606 32.7619 112.097 32.7619 113.634 31.2255Z" fill="white"/>
<path d="M110.857 32.5049C110.054 32.5049 109.269 32.2667 108.601 31.8203C107.933 31.374 107.412 30.7396 107.104 29.9974C106.797 29.2551 106.717 28.4384 106.873 27.6504C107.03 26.8625 107.417 26.1387 107.985 25.5706C108.553 25.0025 109.277 24.6156 110.065 24.4589C110.853 24.3022 111.67 24.3826 112.412 24.6901C113.154 24.9975 113.788 25.5182 114.235 26.1861C114.681 26.8541 114.919 27.6395 114.919 28.4429C114.918 29.5198 114.49 30.5522 113.728 31.3137C112.967 32.0752 111.934 32.5036 110.857 32.5049ZM110.857 24.6365C110.104 24.6365 109.369 24.8597 108.743 25.278C108.117 25.6962 107.629 26.2907 107.341 26.9862C107.053 27.6818 106.977 28.4471 107.124 29.1855C107.271 29.9238 107.633 30.6021 108.166 31.1344C108.698 31.6668 109.376 32.0293 110.115 32.1761C110.853 32.323 111.618 32.2476 112.314 31.9595C113.009 31.6714 113.604 31.1836 114.022 30.5576C114.44 29.9317 114.664 29.1957 114.664 28.4429C114.662 27.4338 114.261 26.4664 113.547 25.7529C112.834 25.0393 111.866 24.6378 110.857 24.6365Z" fill="#263238"/>
<path d="M112.513 28.4431C112.513 28.1145 112.416 27.7932 112.233 27.52C112.051 27.2467 111.791 27.0337 111.488 26.908C111.184 26.7822 110.85 26.7493 110.528 26.8134C110.205 26.8775 109.909 27.0358 109.677 27.2682C109.444 27.5006 109.286 27.7966 109.222 28.119C109.158 28.4413 109.191 28.7754 109.317 29.079C109.442 29.3826 109.655 29.6421 109.929 29.8247C110.202 30.0073 110.523 30.1047 110.852 30.1047C111.292 30.1047 111.715 29.9297 112.027 29.6181C112.338 29.3064 112.513 28.8838 112.513 28.4431Z" fill="#263238"/>
<path d="M110.857 30.2324C110.503 30.2324 110.157 30.1275 109.863 29.9309C109.569 29.7342 109.34 29.4548 109.204 29.1278C109.069 28.8008 109.033 28.441 109.102 28.0939C109.171 27.7468 109.342 27.4279 109.592 27.1777C109.842 26.9274 110.161 26.757 110.508 26.6879C110.855 26.6189 111.215 26.6543 111.542 26.7898C111.869 26.9252 112.149 27.1546 112.345 27.4488C112.542 27.7431 112.647 28.0891 112.647 28.443C112.647 28.9176 112.458 29.3727 112.123 29.7083C111.787 30.0439 111.332 30.2324 110.857 30.2324ZM110.857 26.9092C110.554 26.9092 110.257 26.9992 110.005 27.1677C109.753 27.3362 109.556 27.5758 109.44 27.856C109.324 28.1363 109.294 28.4447 109.353 28.7422C109.412 29.0398 109.558 29.3131 109.773 29.5276C109.987 29.7421 110.261 29.8882 110.558 29.9473C110.856 30.0065 111.164 29.9761 111.444 29.8601C111.725 29.744 111.964 29.5474 112.133 29.2951C112.301 29.0429 112.391 28.7464 112.391 28.443C112.391 28.0362 112.23 27.6461 111.942 27.3584C111.654 27.0708 111.264 26.9092 110.857 26.9092Z" fill="#263238"/>
<path d="M110.522 28.7726H92.2648V28.113H110.522C110.61 28.113 110.693 28.1478 110.755 28.2096C110.817 28.2715 110.852 28.3553 110.852 28.4428C110.852 28.4861 110.843 28.529 110.827 28.569C110.81 28.609 110.786 28.6454 110.755 28.676C110.725 28.7066 110.688 28.7309 110.648 28.7475C110.608 28.764 110.565 28.7726 110.522 28.7726Z" fill="#263238"/>
<path d="M110.522 28.9008H92.2651C92.2312 28.9008 92.1987 28.8873 92.1748 28.8633C92.1508 28.8394 92.1373 28.8068 92.1373 28.7729V28.1134C92.1373 28.0795 92.1508 28.047 92.1748 28.023C92.1987 27.9991 92.2312 27.9856 92.2651 27.9856H110.522C110.583 27.9856 110.642 27.9974 110.698 28.0204C110.753 28.0434 110.804 28.0771 110.846 28.1196C110.889 28.1621 110.922 28.2126 110.945 28.2681C110.968 28.3236 110.98 28.3831 110.98 28.4432C110.98 28.5033 110.968 28.5628 110.945 28.6183C110.922 28.6738 110.889 28.7242 110.846 28.7667C110.804 28.8092 110.753 28.8429 110.698 28.8659C110.642 28.8889 110.583 28.9008 110.522 28.9008ZM92.393 28.6451H110.522C110.576 28.6451 110.627 28.6239 110.665 28.586C110.703 28.5481 110.724 28.4967 110.724 28.4432C110.724 28.3896 110.703 28.3383 110.665 28.3004C110.627 28.2625 110.576 28.2412 110.522 28.2412H92.393V28.6451Z" fill="#263238"/>
<path d="M90.6419 26.1013L90.7442 26.2189L92.6512 28.1106H86.9429L84.9004 26.1013H90.6419Z" fill="#263238"/>
<path d="M92.651 28.2381H86.9427C86.9094 28.2383 86.8772 28.2254 86.8532 28.2023L84.8082 26.193C84.7898 26.1752 84.7771 26.1523 84.7717 26.1273C84.7662 26.1023 84.7682 26.0763 84.7775 26.0524C84.7872 26.0287 84.8039 26.0084 84.8253 25.9943C84.8468 25.9801 84.872 25.9728 84.8976 25.9732H90.6392C90.6576 25.9728 90.6758 25.9766 90.6926 25.9841C90.7094 25.9916 90.7243 26.0027 90.7363 26.0166L90.8386 26.1342L92.7405 28.0208C92.7579 28.0387 92.7698 28.0612 92.7748 28.0857C92.7798 28.1102 92.7776 28.1356 92.7686 28.1588C92.759 28.1822 92.7427 28.2022 92.7218 28.2163C92.7009 28.2304 92.6762 28.238 92.651 28.2381ZM86.9938 27.9824H92.3417L90.5829 26.2288H85.2146L86.9938 27.9824Z" fill="#263238"/>
<path d="M84.9004 30.7082L86.9455 28.7654H92.6538C91.9071 29.3337 91.2278 29.9856 90.6291 30.7082H84.9004Z" fill="#263238"/>
<path d="M90.6266 30.8359H84.9004C84.8745 30.8357 84.8492 30.8279 84.8278 30.8133C84.8064 30.7987 84.7899 30.7781 84.7802 30.7541C84.7708 30.7307 84.7688 30.705 84.7742 30.6803C84.7797 30.6557 84.7925 30.6333 84.8109 30.6161L86.856 28.6732C86.8803 28.6505 86.9122 28.6378 86.9454 28.6375H92.6537C92.6811 28.6373 92.7077 28.6459 92.7298 28.662C92.7519 28.6781 92.7682 28.7009 92.7764 28.7269C92.7856 28.7521 92.786 28.7797 92.7776 28.8051C92.7693 28.8306 92.7527 28.8526 92.7304 28.8675C91.9918 29.4304 91.3194 30.0753 90.7263 30.7899C90.7138 30.8041 90.6985 30.8155 90.6813 30.8235C90.6641 30.8314 90.6455 30.8356 90.6266 30.8359ZM85.2199 30.5803H90.5652C91.0822 29.9648 91.6566 29.3999 92.2805 28.8931H86.994L85.2199 30.5803Z" fill="#263238"/>
<path opacity="0.3" d="M9.04333 28.1565L8.89762 27.9468L31.6362 12.302L31.7052 12.3378L54.4796 24.097C54.7488 24.2361 55.0442 24.3173 55.3467 24.3353C55.6491 24.3534 55.952 24.3079 56.2358 24.2018L70.2471 18.9741L69.5569 23.0259L80.6923 12.7519L65.5614 12.2867L68.7287 14.8916L55.6172 19.7793L55.5686 19.7538L32.4722 7.84376C32.1227 7.6641 31.7312 7.58253 31.3391 7.60774C30.947 7.63294 30.5691 7.76399 30.2456 7.98692L6.43587 24.3807L6.29016 24.1686L30.0999 7.76452C30.4617 7.51534 30.8844 7.369 31.3229 7.34109C31.7614 7.31318 32.1992 7.40474 32.5897 7.60602L55.6402 19.5058L68.2276 14.8098L64.8175 11.9978L81.3212 12.5091L69.1888 23.711L69.9327 19.3652L56.3253 24.4319C56.0083 24.5499 55.6702 24.6004 55.3325 24.5801C54.9949 24.5599 54.6652 24.4693 54.3646 24.3143L31.6541 12.6011L9.04333 28.1565Z" fill="#F5F5F5"/>
<path opacity="0.3" d="M23.9111 58.7303L23.8242 58.49L69.2042 42.0399L68.4527 46.0815L79.7312 35.984L64.608 35.2963L67.742 37.9472L67.535 38.0239L22.3671 54.3947L22.2802 54.1544L67.241 37.8578L63.8717 35.0049L80.3678 35.7564L68.0641 46.7717L68.8694 42.4336L23.9111 58.7303Z" fill="#F5F5F5"/>
<path opacity="0.3" d="M2.57845 93.2082L2.49154 92.9679L58.8076 72.9006L58.0561 76.9397L69.3346 66.8421L54.2113 66.1545L57.3479 68.8079L57.1383 68.8821L1.03187 88.8727L0.94751 88.6324L56.8444 68.7159L53.4751 65.863L69.9711 66.6172L57.6675 77.6299L58.4753 73.2892L2.57845 93.2082Z" fill="#F5F5F5"/>
<path d="M14.9718 116.726C14.9379 116.726 14.9054 116.712 14.8814 116.688C14.8575 116.664 14.844 116.632 14.844 116.598V102.38C14.844 102.346 14.8575 102.313 14.8814 102.289C14.9054 102.265 14.9379 102.252 14.9718 102.252H29.7423V96.5129C29.7423 96.479 29.7558 96.4465 29.7798 96.4225C29.8037 96.3985 29.8362 96.3851 29.8701 96.3851H44.6483V90.6461C44.6483 90.6122 44.6618 90.5797 44.6858 90.5557C44.7097 90.5317 44.7422 90.5183 44.7761 90.5183H59.5415V84.7818C59.5415 84.7479 59.555 84.7154 59.579 84.6915C59.6029 84.6675 59.6354 84.654 59.6693 84.654H74.4373V78.915C74.4373 78.8811 74.4508 78.8486 74.4747 78.8246C74.4987 78.8007 74.5312 78.7872 74.5651 78.7872H89.3331V73.0508C89.3331 73.0169 89.3465 72.9844 89.3705 72.9604C89.3945 72.9364 89.427 72.923 89.4609 72.923H104.211V67.184C104.211 67.1501 104.224 67.1176 104.248 67.0936C104.272 67.0696 104.305 67.0562 104.339 67.0562H119.242C119.276 67.0562 119.309 67.0696 119.333 67.0936C119.357 67.1176 119.37 67.1501 119.37 67.184C119.369 67.2177 119.356 67.2498 119.332 67.2736C119.308 67.2975 119.276 67.3111 119.242 67.3118H104.467V73.0508C104.467 73.0847 104.453 73.1172 104.429 73.1412C104.405 73.1651 104.373 73.1786 104.339 73.1786H89.5785V78.915C89.5785 78.9489 89.565 78.9814 89.541 79.0054C89.5171 79.0294 89.4846 79.0428 89.4507 79.0428H74.6827V84.7818C74.6827 84.8157 74.6692 84.8482 74.6453 84.8722C74.6213 84.8962 74.5888 84.9096 74.5549 84.9096H59.7869V90.6461C59.7869 90.68 59.7735 90.7125 59.7495 90.7365C59.7255 90.7604 59.693 90.7739 59.6591 90.7739H44.9039V96.5129C44.9039 96.5468 44.8905 96.5793 44.8665 96.6033C44.8425 96.6272 44.81 96.6407 44.7761 96.6407H29.998V102.38C29.9973 102.413 29.9836 102.446 29.9598 102.469C29.936 102.493 29.9038 102.507 29.8701 102.508H15.0996V116.598C15.0996 116.615 15.0963 116.631 15.0899 116.647C15.0835 116.662 15.0741 116.677 15.0622 116.688C15.0503 116.7 15.0362 116.71 15.0207 116.716C15.0052 116.723 14.9886 116.726 14.9718 116.726Z" fill="#E0E0E0"/>
<path d="M44.7655 116.951C44.7316 116.951 44.6991 116.937 44.6751 116.913C44.6512 116.889 44.6377 116.857 44.6377 116.823V98.3483C44.6377 98.3144 44.6512 98.2819 44.6751 98.2579C44.6991 98.2339 44.7316 98.2205 44.7655 98.2205C44.7994 98.2205 44.8319 98.2339 44.8559 98.2579C44.8799 98.2819 44.8933 98.3144 44.8933 98.3483V116.823C44.8933 116.857 44.8799 116.889 44.8559 116.913C44.8319 116.937 44.7994 116.951 44.7655 116.951Z" fill="#E0E0E0"/>
<path d="M74.6696 116.951C74.6357 116.951 74.6032 116.937 74.5792 116.914C74.5552 116.89 74.5417 116.857 74.5417 116.823V87.2999C74.5424 87.2662 74.5561 87.2341 74.5799 87.2103C74.6037 87.1864 74.6359 87.1728 74.6696 87.1721C74.7035 87.1721 74.736 87.1856 74.7599 87.2096C74.7839 87.2335 74.7974 87.266 74.7974 87.2999V116.823C74.7974 116.857 74.7839 116.89 74.7599 116.914C74.736 116.937 74.7035 116.951 74.6696 116.951Z" fill="#E0E0E0"/>
<path d="M104.574 116.951C104.54 116.951 104.507 116.937 104.483 116.913C104.459 116.889 104.446 116.857 104.446 116.823V77.3966C104.446 77.3627 104.459 77.3302 104.483 77.3062C104.507 77.2823 104.54 77.2688 104.574 77.2688C104.608 77.2688 104.64 77.2823 104.664 77.3062C104.688 77.3302 104.701 77.3627 104.701 77.3966V116.823C104.701 116.857 104.688 116.889 104.664 116.913C104.64 116.937 104.608 116.951 104.574 116.951Z" fill="#E0E0E0"/>
<path d="M16.2266 93.4202L16.1193 94.6549L16.9117 96.3267C16.9117 96.3267 17.7119 97.155 17.5738 97.4438C17.5279 97.5605 17.4469 97.66 17.3421 97.7286C17.2373 97.7973 17.1137 97.8318 16.9884 97.8273C16.7737 97.812 14.1253 96.5798 13.4428 96.25C12.7603 95.9203 12.5557 94.4044 12.4203 93.9493C12.2848 93.4943 11.0168 92.2519 11.3262 91.4237C11.6355 90.5954 13.1795 89.7876 13.1795 89.7876L16.2266 93.4202Z" fill="white"/>
<path d="M17.0393 97.9552H16.9933C16.7044 97.9347 13.4323 96.383 13.399 96.3651C12.783 96.0686 12.5376 94.9668 12.3918 94.3201C12.3612 94.182 12.3382 94.0644 12.3126 93.9852C12.2086 93.7685 12.079 93.5651 11.9266 93.3793C11.5227 92.7965 10.9654 92.0015 11.2006 91.3726C11.5252 90.5086 13.0514 89.7008 13.1153 89.6675C13.1412 89.6536 13.1711 89.6491 13.2 89.6547C13.2289 89.6603 13.2549 89.6756 13.2738 89.6982L16.3235 93.3384C16.3346 93.3509 16.343 93.3655 16.3483 93.3813C16.3536 93.3971 16.3556 93.4138 16.3542 93.4305L16.2494 94.6319L17.0163 96.2527C17.2719 96.5287 17.842 97.1729 17.686 97.4976C17.6328 97.6274 17.5437 97.7394 17.4292 97.8204C17.3146 97.9015 17.1794 97.9482 17.0393 97.9552ZM13.1536 89.9436C12.8264 90.1277 11.6991 90.8 11.4511 91.4621C11.2619 91.9733 11.7732 92.6968 12.1464 93.2336C12.3104 93.4411 12.4454 93.6698 12.5478 93.9136C12.5708 93.998 12.5989 94.1207 12.6296 94.2613C12.7548 94.8339 12.9926 95.8999 13.4962 96.1427C14.4318 96.5927 16.7862 97.6765 17.0009 97.7072C17.1002 97.7095 17.1977 97.6807 17.2798 97.6248C17.3619 97.5688 17.4244 97.4886 17.4585 97.3953C17.5096 97.2854 17.2029 96.8227 16.8194 96.4214L16.7964 96.3881L16.0167 94.7112C16.0105 94.6895 16.0105 94.6664 16.0167 94.6447L16.119 93.4611L13.1536 89.9436Z" fill="#263238"/>
<path d="M24.7087 69.4033L25.3555 78.6471L13.6398 89.0232L12.4767 90.2375C12.4767 90.2375 13.9031 92.6149 14.5039 93.1364C14.9693 93.4949 15.5022 93.7558 16.0709 93.9033C16.3654 93.5971 16.5934 93.2333 16.7407 92.8348C16.9809 92.1778 17.2519 91.145 17.2519 91.145C17.2519 91.145 30.7085 82.4356 31.0152 82.1211C31.322 81.8067 32.6513 71.7015 32.6513 71.7015L24.7087 69.4033Z" fill="#263238"/>
<path d="M16.0707 94.0188H16.04C15.4517 93.8711 14.9 93.604 14.4193 93.234C13.8109 92.7074 12.4254 90.4041 12.3742 90.307C12.3607 90.2824 12.3551 90.2541 12.3583 90.2262C12.3615 90.1982 12.3733 90.172 12.3921 90.151L13.5553 88.9368L25.2198 78.5938L24.5756 69.414C24.5738 69.3933 24.577 69.3725 24.585 69.3533C24.5931 69.3342 24.6056 69.3173 24.6216 69.3041C24.6378 69.2917 24.6565 69.2832 24.6765 69.2792C24.6964 69.2752 24.717 69.2758 24.7367 69.2811L32.6843 71.5664C32.7134 71.5748 32.7385 71.5933 32.7549 71.6187C32.7713 71.6441 32.7781 71.6745 32.7738 71.7045C32.4619 74.0844 31.4164 81.8762 31.102 82.1983C30.7875 82.5204 18.9236 90.2022 17.3591 91.2145C17.3029 91.4267 17.0728 92.2907 16.8632 92.8659C16.7106 93.2833 16.472 93.6639 16.1627 93.983C16.1378 94.0063 16.1048 94.0191 16.0707 94.0188ZM12.6375 90.2559C12.8932 90.6802 14.0716 92.5923 14.5855 93.0397C15.0161 93.3693 15.5079 93.61 16.0324 93.7478C16.2881 93.4651 16.4876 93.1363 16.6203 92.779C16.8555 92.1348 17.1316 91.1122 17.1316 91.102C17.14 91.071 17.159 91.0438 17.1853 91.0253C20.9098 88.6172 30.6341 82.3031 30.9281 82.0193C31.1454 81.6768 31.9916 75.7486 32.5156 71.7812L24.8466 69.5776L25.4755 78.6373C25.4769 78.6567 25.474 78.6762 25.4669 78.6943C25.4598 78.7125 25.4488 78.7288 25.4346 78.7421L13.7163 89.1183L12.6375 90.2559Z" fill="#263238"/>
<path d="M21.2831 84.0052C21.2492 84.0052 21.2167 83.9917 21.1927 83.9677C21.1687 83.9438 21.1553 83.9112 21.1553 83.8773C21.1553 83.8434 21.1687 83.8109 21.1927 83.787C21.2167 83.763 21.2492 83.7495 21.2831 83.7495C22.7198 83.6064 29.241 82.001 29.3074 81.9831C29.3403 81.9754 29.3749 81.981 29.4036 81.9988C29.4324 82.0165 29.4529 82.0449 29.4608 82.0777C29.465 82.0938 29.4659 82.1106 29.4636 82.1271C29.4612 82.1436 29.4556 82.1594 29.447 82.1737C29.4384 82.188 29.4271 82.2004 29.4137 82.2103C29.4002 82.2201 29.385 82.2272 29.3688 82.2311C29.0978 82.2975 22.7632 83.8595 21.3087 84.0052H21.2831Z" fill="white"/>
<path d="M21.426 83.2258C21.3921 83.2285 21.3586 83.2176 21.3327 83.1956C21.3068 83.1735 21.2907 83.1421 21.288 83.1082C21.2853 83.0743 21.2962 83.0407 21.3182 83.0148C21.3403 82.989 21.3717 82.9729 21.4056 82.9702L23.9236 82.5586C23.9402 82.5561 23.9572 82.5568 23.9735 82.5608C23.9898 82.5649 24.0052 82.5721 24.0187 82.582C24.0323 82.592 24.0437 82.6046 24.0524 82.619C24.061 82.6334 24.0668 82.6493 24.0693 82.666C24.0722 82.6824 24.0718 82.6993 24.0681 82.7156C24.0644 82.732 24.0574 82.7474 24.0476 82.7609C24.0379 82.7745 24.0255 82.786 24.0112 82.7947C23.9969 82.8034 23.981 82.8092 23.9645 82.8117L21.4465 83.2232L21.426 83.2258Z" fill="white"/>
<path d="M36.4344 92.5487L38.7837 94.218C38.7837 94.218 40.3737 95.1178 40.6115 95.1459C40.7385 95.1506 40.8586 95.2049 40.9461 95.2971C41.0336 95.3894 41.0814 95.5122 41.0793 95.6393C41.0486 95.9179 40.5195 96.3423 39.5864 96.4062C38.6533 96.4701 36.0075 95.9716 35.8158 95.9486C35.6241 95.9256 33.0422 94.8366 32.3392 94.6372C31.6362 94.4378 31.4956 93.538 31.6387 92.9909C31.7819 92.4439 32.7277 91.1401 32.7277 91.1401L36.4344 92.5487Z" fill="white"/>
<path d="M39.42 96.5316C38.5688 96.5316 36.8816 96.2479 36.1326 96.1226C35.9562 96.0919 35.8386 96.0715 35.8003 96.0689C35.7031 96.0561 35.3222 95.9079 34.4122 95.5576C33.5993 95.233 32.679 94.8674 32.3058 94.7626C31.5056 94.5377 31.3599 93.5535 31.5133 92.9732C31.6667 92.3929 32.5844 91.1326 32.6253 91.0789C32.6419 91.0565 32.6653 91.0401 32.6921 91.0323C32.7189 91.0244 32.7475 91.0255 32.7736 91.0355L36.4803 92.4517L36.5084 92.467L38.8576 94.1363C39.4251 94.4795 40.0162 94.782 40.6266 95.0413C40.7785 95.0588 40.9208 95.1242 41.0331 95.2279C41.0956 95.2837 41.144 95.3536 41.1742 95.4319C41.2045 95.5101 41.2157 95.5944 41.2069 95.6778C41.166 96.051 40.5372 96.4933 39.5939 96.5495C39.5351 96.5316 39.4839 96.5316 39.42 96.5316ZM32.7736 91.286C32.5691 91.5749 31.8763 92.5642 31.751 93.0141C31.6181 93.5254 31.751 94.3357 32.3645 94.507C32.7506 94.6169 33.6785 94.985 34.4965 95.3097C35.0743 95.5397 35.7287 95.7979 35.8207 95.8209L36.1658 95.8772C36.9608 96.0127 38.827 96.3245 39.5683 96.2811C40.4426 96.2248 40.9206 95.8363 40.9436 95.6343C40.9472 95.5905 40.9405 95.5464 40.924 95.5056C40.9076 95.4648 40.8819 95.4283 40.849 95.3991C40.7774 95.3349 40.6885 95.2931 40.5934 95.279C40.3378 95.2534 38.9855 94.4891 38.7145 94.3357L36.3678 92.6715L32.7736 91.286Z" fill="#263238"/>
<path d="M22.6635 60.8474C22.6635 60.8474 21.7406 64.6973 21.7841 66.0854C21.8275 67.4735 23.7269 69.5134 24.1282 69.9045C24.5296 70.2957 26.5363 70.9117 26.6846 71.0268C26.8328 71.1418 37.8788 75.6793 37.8788 75.6793C37.8788 75.6793 37.1349 77.4688 36.6006 78.7009C36.0663 79.9331 33.2774 89.9923 33.2774 89.9923L32.6638 90.616L32.3136 92.0092L37.1988 93.0752C37.1988 93.0752 37.6385 92.1064 37.7101 91.8201C37.7816 91.5337 37.6436 90.1814 37.6717 89.9386C37.6998 89.6957 43.697 76.6226 43.9935 75.7177C44.2901 74.8127 45.2717 73.1409 44.9317 72.6091C44.5917 72.0774 34.1951 65.684 34.1951 65.684L34.3408 63.4779C34.3408 63.4779 26.3267 62.982 22.6635 60.8474Z" fill="#263238"/>
<path d="M37.1808 93.2031H37.1527L32.2675 92.1243C32.234 92.1164 32.205 92.0956 32.1868 92.0664C32.1686 92.0372 32.1627 92.002 32.1704 91.9684L32.5232 90.5752C32.5285 90.5529 32.54 90.5325 32.5564 90.5164L33.1444 89.9157C33.3489 89.1845 35.9563 79.836 36.4676 78.6396C36.9124 77.6171 37.5157 76.16 37.6895 75.7382C34.2973 74.3475 26.7152 71.2262 26.5822 71.1138C26.5362 71.0831 26.2499 70.9783 25.9713 70.876C25.2734 70.6204 24.3148 70.2625 24.031 69.9864C24.008 69.9634 21.6996 67.6729 21.6485 66.0803C21.6051 64.6897 22.4921 60.9676 22.5305 60.8066C22.5352 60.7873 22.5444 60.7695 22.5573 60.7544C22.5701 60.7393 22.5863 60.7274 22.6046 60.7197C22.6225 60.7109 22.6422 60.7063 22.6621 60.7063C22.682 60.7063 22.7017 60.7109 22.7196 60.7197C26.3189 62.8159 34.2487 63.3271 34.3279 63.3323C34.3451 63.3327 34.362 63.3368 34.3774 63.3443C34.3928 63.3518 34.4065 63.3625 34.4174 63.3757C34.4285 63.3882 34.437 63.4027 34.4422 63.4186C34.4475 63.4344 34.4495 63.4511 34.4481 63.4677L34.3075 65.5972C35.6445 66.4203 44.6913 71.988 45.0262 72.5223C45.2997 72.9543 44.8882 73.8899 44.4894 74.7949C44.336 75.1451 44.1877 75.4774 44.1034 75.7382C43.9398 76.2316 42.1938 80.0993 40.5066 83.8392C39.1927 86.7484 37.8352 89.7546 37.7841 89.9438C37.7841 90.0179 37.7841 90.3068 37.8097 90.5829C37.8558 90.9991 37.8558 91.4192 37.8097 91.8355C37.7253 92.1294 37.2984 93.0702 37.2805 93.1136C37.2741 93.1365 37.2613 93.157 37.2436 93.1728C37.226 93.1887 37.2042 93.1992 37.1808 93.2031ZM32.4516 91.9122L37.1067 92.9347C37.2166 92.6791 37.5157 92.017 37.5796 91.792C37.6071 91.4028 37.6011 91.012 37.5617 90.6238C37.5404 90.3935 37.5318 90.1622 37.5361 89.931C37.5361 89.816 38.1982 88.364 40.2765 83.76C41.8845 80.199 43.7071 76.1625 43.8554 75.6845C43.9449 75.411 44.0931 75.0735 44.2516 74.7156C44.5865 73.9487 45.0058 73.0029 44.8064 72.6859C44.5507 72.2999 38.2647 68.358 34.103 65.8017C34.0832 65.7894 34.067 65.772 34.0562 65.7513C34.0454 65.7306 34.0404 65.7074 34.0416 65.6841L34.1797 63.6032C33.1571 63.5291 26.186 62.9616 22.735 61.0469C22.5611 61.7984 21.8607 64.8814 21.899 66.088C21.9374 67.3406 23.6195 69.2476 24.1997 69.8177C24.4554 70.058 25.4498 70.4287 26.0505 70.6511C26.2881 70.7217 26.5177 70.8168 26.7356 70.9348C26.9913 71.078 34.8776 74.3271 37.8966 75.5669C37.9277 75.5801 37.9524 75.6049 37.9656 75.6359C37.9784 75.667 37.9784 75.702 37.9656 75.7331C37.9656 75.751 37.2166 77.543 36.6874 78.7572C36.1583 79.9715 33.3923 89.931 33.3642 90.0307C33.3598 90.0521 33.3491 90.0716 33.3335 90.0869L32.7456 90.6851L32.4516 91.9122Z" fill="#263238"/>
<path d="M33.4972 65.2825C33.4749 65.2826 33.453 65.2773 33.4333 65.2671C32.766 64.8964 31.6975 64.3264 31.4981 64.2701C31.3396 64.2241 30.3554 64.444 29.4965 64.6817C29.4797 64.6862 29.4622 64.6874 29.445 64.6852C29.4277 64.683 29.4111 64.6773 29.396 64.6687C29.3809 64.66 29.3677 64.6485 29.3571 64.6347C29.3465 64.6209 29.3387 64.6052 29.3342 64.5884C29.3296 64.5716 29.3285 64.5541 29.3307 64.5369C29.3329 64.5196 29.3385 64.503 29.3472 64.4879C29.3559 64.4728 29.3674 64.4596 29.3812 64.449C29.395 64.4384 29.4107 64.4306 29.4275 64.4261C29.7317 64.3417 31.2629 63.9148 31.5671 64.0145C31.8713 64.1142 33.3847 64.9373 33.5585 65.037C33.5823 65.0512 33.6009 65.0726 33.6115 65.0982C33.6221 65.1238 33.6241 65.1521 33.6171 65.179C33.6102 65.2058 33.5948 65.2296 33.5731 65.2469C33.5515 65.2642 33.5248 65.274 33.4972 65.2748V65.2825Z" fill="white"/>
<path d="M27.7299 65.5895C27.7143 65.5898 27.6989 65.587 27.6844 65.5813C27.6699 65.5756 27.6567 65.5671 27.6455 65.5562C27.6333 65.5448 27.6236 65.5309 27.6169 65.5155C27.6102 65.5001 27.6068 65.4835 27.6068 65.4668C27.6068 65.45 27.6102 65.4334 27.6169 65.418C27.6236 65.4026 27.6333 65.3888 27.6455 65.3773C27.965 65.044 28.3427 64.7719 28.7601 64.5746C28.7755 64.5675 28.7922 64.5635 28.8091 64.563C28.8261 64.5625 28.8429 64.5655 28.8587 64.5717C28.8745 64.5779 28.8888 64.5873 28.9009 64.5992C28.9129 64.6111 28.9224 64.6254 28.9288 64.6411C28.942 64.672 28.9427 64.7068 28.9308 64.7383C28.9189 64.7697 28.8953 64.7953 28.8649 64.8098C28.4822 64.9922 28.1358 65.2425 27.8424 65.5486C27.8288 65.5646 27.8113 65.5769 27.7916 65.584C27.7719 65.5912 27.7506 65.5931 27.7299 65.5895Z" fill="white"/>
<path d="M26.6128 64.9709C26.5945 64.9707 26.5765 64.9668 26.5597 64.9593C26.543 64.9518 26.528 64.941 26.5157 64.9274C26.4941 64.9011 26.4836 64.8675 26.4864 64.8336C26.4893 64.7996 26.5053 64.7682 26.531 64.7459C27.5357 63.8972 29.4427 63.8563 29.5245 63.8538C29.558 63.8543 29.5901 63.8676 29.6143 63.8908C29.6385 63.914 29.653 63.9455 29.6549 63.979C29.6552 63.9958 29.6523 64.0125 29.6461 64.0281C29.64 64.0438 29.6309 64.058 29.6193 64.0702C29.6076 64.0823 29.5937 64.092 29.5784 64.0987C29.563 64.1054 29.5464 64.1091 29.5296 64.1094C29.5092 64.1094 27.6303 64.1503 26.6972 64.9428C26.6733 64.9617 26.6434 64.9717 26.6128 64.9709Z" fill="white"/>
<path d="M38.5126 75.8277C38.4872 75.8279 38.4625 75.8204 38.4415 75.8063C38.4205 75.7922 38.4043 75.772 38.395 75.7484C38.3887 75.7328 38.3856 75.7161 38.3859 75.6993C38.3861 75.6825 38.3896 75.6659 38.3963 75.6505C38.4029 75.6351 38.4126 75.6211 38.4246 75.6094C38.4367 75.5977 38.4509 75.5885 38.4665 75.5823C39.5274 75.1681 42.0454 73.6369 42.0761 73.6216C42.1052 73.6039 42.1402 73.5986 42.1733 73.6068C42.2064 73.6149 42.2348 73.6359 42.2525 73.665C42.2701 73.6942 42.2754 73.7291 42.2673 73.7622C42.2591 73.7953 42.2382 73.8238 42.209 73.8414C42.1042 73.9053 39.6527 75.3982 38.5586 75.82L38.5126 75.8277Z" fill="white"/>
<path d="M43.0576 58.0177L44.3153 57.9972L45.7137 57.7876C45.7137 57.7876 48.1575 58.3832 48.1703 58.6261C48.1808 58.8019 48.1474 58.9776 48.0732 59.1374C48.0144 59.2933 47.3063 61.2796 47.1222 61.502C47.071 61.5866 46.9924 61.6513 46.8994 61.6852C46.8064 61.7191 46.7047 61.7203 46.6109 61.6886C46.3706 61.6605 45.2663 61.4176 45.2663 61.4176C45.2663 61.4176 43.9242 61.1057 43.6123 60.9907C43.2947 60.8439 42.9887 60.6729 42.6972 60.4794L42.1859 60.3005L43.0576 58.0177Z" fill="white"/>
<path d="M46.7848 61.8316C46.7241 61.8306 46.6636 61.8264 46.6033 61.8188C46.3477 61.7933 45.2894 61.5632 45.2434 61.5453C45.1974 61.5274 43.8885 61.2309 43.5741 61.1158C43.2522 60.9693 42.9419 60.7984 42.6461 60.6046L42.1528 60.4307C42.1369 60.4251 42.1224 60.4164 42.1101 60.4049C42.0978 60.3935 42.0879 60.3797 42.0812 60.3643C42.0743 60.349 42.0707 60.3324 42.0707 60.3157C42.0707 60.2989 42.0743 60.2824 42.0812 60.2671L42.9427 57.9664C42.952 57.9425 42.9681 57.9218 42.989 57.9068C43.0098 57.8919 43.0346 57.8833 43.0603 57.8821L44.318 57.8616L45.7009 57.6545H45.7495C48.2854 58.2732 48.3059 58.5186 48.3059 58.6132C48.3202 58.7945 48.2885 58.9765 48.2138 59.1423L48.1653 59.2804C47.4878 61.1465 47.3063 61.4865 47.2296 61.5811C47.1839 61.6582 47.1188 61.7219 47.0407 61.7658C46.9627 61.8098 46.8744 61.8325 46.7848 61.8316ZM42.3624 60.2339L42.7458 60.3694L42.7714 60.3822C43.0561 60.5671 43.3533 60.732 43.661 60.8755C43.9626 60.9855 45.2868 61.2948 45.2996 61.2973C45.3124 61.2999 46.4014 61.5402 46.6315 61.553C46.8615 61.5657 46.8871 61.5811 47.0251 61.4098C47.0711 61.3561 47.2501 61.0289 47.9147 59.1883L47.9684 59.0452C48.0247 58.921 48.051 58.7852 48.0451 58.649C47.8789 58.5007 46.726 58.153 45.7086 57.9051L44.3333 58.1096L43.1472 58.1326L42.3624 60.2339Z" fill="#263238"/>
<path d="M43.7633 58.5829C43.7633 58.5829 44.929 57.5348 45.1028 57.4325C45.2767 57.3303 46.2557 57.4913 46.5318 57.5603C46.8079 57.6293 47.2092 57.908 47.1121 58.0716C47.015 58.2352 46.7414 59.861 46.6008 60.0042C46.5167 60.0897 46.4065 60.1449 46.2876 60.1611C46.1687 60.1773 46.0478 60.1536 45.9439 60.0937C45.7163 59.9454 45.8467 58.5087 45.8467 58.5087C45.8467 58.5087 45.655 59.7869 45.2281 59.9735C44.8012 60.1601 44.0189 59.9198 44.0189 59.9198" fill="white"/>
<path d="M46.2049 60.2821C46.0881 60.2833 45.9735 60.2505 45.8751 60.1876C45.7601 60.1109 45.7064 59.8629 45.6885 59.5613C45.617 59.7732 45.4742 59.9538 45.2846 60.0725C44.8168 60.2873 44.0065 60.0367 43.9835 60.0265C43.9512 60.0159 43.9243 59.9932 43.9086 59.9631C43.8928 59.933 43.8894 59.898 43.8991 59.8655C43.9097 59.8332 43.9324 59.8063 43.9625 59.7906C43.9926 59.7748 44.0276 59.7714 44.0601 59.7811C44.2646 59.8476 44.8654 59.9831 45.1773 59.8399C45.4329 59.7197 45.6527 58.9375 45.7243 58.4723C45.7284 58.4384 45.7458 58.4075 45.7726 58.3864C45.7994 58.3653 45.8336 58.3557 45.8675 58.3598C45.9014 58.3638 45.9323 58.3812 45.9534 58.4081C45.9745 58.4349 45.984 58.469 45.98 58.5029C45.916 59.2059 45.9365 59.8782 46.0234 59.9728C46.1016 60.0153 46.1914 60.0312 46.2795 60.0183C46.3675 60.0054 46.449 59.9643 46.5117 59.9012C46.6293 59.5532 46.7208 59.1969 46.7852 58.8353C46.8283 58.5451 46.9028 58.2605 47.0076 57.9865C46.8689 57.8394 46.6918 57.7341 46.4963 57.6823C46.1384 57.5903 45.2897 57.4778 45.1645 57.5392C45.0392 57.6005 44.2953 58.2729 43.848 58.6742C43.8358 58.6866 43.8212 58.6965 43.805 58.703C43.7889 58.7096 43.7716 58.7128 43.7542 58.7125C43.7367 58.7121 43.7196 58.7082 43.7037 58.701C43.6879 58.6938 43.6737 58.6834 43.662 58.6705C43.6503 58.6576 43.6414 58.6424 43.6357 58.6259C43.6301 58.6094 43.6279 58.5919 43.6293 58.5746C43.6307 58.5572 43.6356 58.5403 43.6438 58.5249C43.6519 58.5095 43.6631 58.4959 43.6767 58.485C43.7968 58.3777 44.8577 57.4242 45.0367 57.3193C45.2923 57.1685 46.4375 57.4037 46.5705 57.4344C46.8473 57.5008 47.088 57.671 47.2428 57.9099C47.2575 57.9443 47.2638 57.9817 47.2611 58.0191C47.2585 58.0564 47.2469 58.0926 47.2274 58.1246C47.1496 58.3762 47.0873 58.6323 47.0408 58.8915C46.8772 59.6405 46.7852 59.9805 46.7034 60.0776C46.6382 60.1433 46.5605 60.1952 46.4748 60.2303C46.3892 60.2655 46.2974 60.2831 46.2049 60.2821Z" fill="#263238"/>
<path d="M45.7114 59.6487L45.3689 60.9064L45.7191 61.0266" fill="white"/>
<path d="M45.7192 61.1543C45.7056 61.1567 45.6918 61.1567 45.6782 61.1543L45.328 61.0341C45.2972 61.0241 45.2714 61.0025 45.2562 60.9739C45.2409 60.9453 45.2374 60.9119 45.2462 60.8807L45.5862 59.623C45.595 59.5891 45.617 59.5601 45.6472 59.5424C45.6774 59.5246 45.7134 59.5196 45.7473 59.5284C45.7812 59.5372 45.8102 59.5591 45.8279 59.5894C45.8457 59.6196 45.8507 59.6556 45.8419 59.6895L45.53 60.8322L45.7677 60.914C45.8016 60.9194 45.832 60.938 45.8521 60.9659C45.8722 60.9937 45.8805 61.0283 45.8751 61.0622C45.8697 61.0961 45.851 61.1265 45.8232 61.1466C45.7954 61.1668 45.7607 61.175 45.7268 61.1696L45.7192 61.1543Z" fill="#263238"/>
<path d="M43.4235 58.0173L42.3652 60.612L34.7448 59.6048L36.1405 54.6992L43.4235 58.0173Z" fill="white"/>
<path d="M42.3653 60.7401H42.3474L34.7296 59.7329C34.7115 59.7303 34.6943 59.7239 34.6789 59.7142C34.6635 59.7045 34.6503 59.6917 34.6401 59.6766C34.6298 59.6609 34.623 59.6433 34.6199 59.6248C34.6168 59.6063 34.6176 59.5874 34.6222 59.5693L36.018 54.6662C36.0229 54.6484 36.0317 54.6319 36.0437 54.6178C36.0556 54.6037 36.0705 54.5924 36.0873 54.5846C36.1041 54.5768 36.1223 54.5728 36.1408 54.5728C36.1593 54.5727 36.1775 54.5767 36.1943 54.5844L43.4748 57.9076C43.5052 57.9206 43.5293 57.9451 43.5418 57.9757C43.5542 58.0064 43.554 58.0407 43.5413 58.0712L42.4829 60.6659C42.4728 60.6885 42.4563 60.7076 42.4354 60.7208C42.4144 60.734 42.3901 60.7407 42.3653 60.7401ZM34.9085 59.4977L42.2835 60.4742L43.2575 58.084L36.2122 54.8784L34.9085 59.4977Z" fill="#263238"/>
<path d="M40.9697 60.546H40.9313C40.8992 60.5355 40.8725 60.5126 40.8571 60.4824C40.8418 60.4522 40.8391 60.4172 40.8495 60.385L41.7903 57.3583C41.7953 57.3415 41.8036 57.3259 41.8147 57.3123C41.8258 57.2987 41.8394 57.2874 41.8548 57.2791C41.8703 57.2708 41.8872 57.2656 41.9046 57.2639C41.922 57.2621 41.9396 57.2638 41.9564 57.2688C41.9732 57.2738 41.9888 57.2821 42.0024 57.2932C42.016 57.3043 42.0273 57.3179 42.0356 57.3334C42.0439 57.3488 42.0491 57.3657 42.0508 57.3831C42.0526 57.4006 42.0509 57.4182 42.0459 57.435L41.1052 60.4463C41.0985 60.4765 41.0811 60.5033 41.0561 60.5216C41.0312 60.54 41.0005 60.5486 40.9697 60.546Z" fill="#263238"/>
<path d="M31.9355 38.7607C31.9355 38.7607 26.6643 42.787 26.1607 45.0647C25.6571 47.3424 24.1668 52.3298 24.1668 52.3298C24.1668 52.3298 22.1217 60.6328 22.1549 61.0214C22.1882 61.4099 23.4331 61.8829 23.9776 62.1232C24.5221 62.3635 28.2441 63.57 30.5193 63.8231C31.7922 63.9785 33.0786 63.9888 34.3538 63.8538C34.3538 63.8538 34.9903 63.3119 35.0235 62.9923C35.0568 62.6728 35.361 59.9707 35.3712 59.8633C35.3814 59.756 37.0098 49.638 36.8641 47.0816C36.7184 44.5253 36.9357 43.5258 36.9357 43.5258L38.2138 42.1198L36.3733 41.1944L31.9355 38.7607Z" fill="white"/>
<path d="M32.6713 64.0811C31.947 64.0801 31.2233 64.0391 30.5035 63.9584C28.259 63.7028 24.5421 62.5217 23.9261 62.2508L23.6704 62.1408C22.791 61.7702 22.0599 61.4327 22.0318 61.0416C22.0037 60.6505 23.8366 53.1502 24.0462 52.2989C24.0615 52.2427 25.5417 47.291 26.0401 45.0389C26.5514 42.7382 31.6462 38.8244 31.8609 38.648C31.882 38.6349 31.9064 38.6279 31.9312 38.6279C31.9561 38.6279 31.9804 38.6349 32.0015 38.648L36.4444 41.0842L38.2824 42.0071C38.2998 42.0161 38.3149 42.029 38.3265 42.0447C38.3381 42.0605 38.3459 42.0787 38.3494 42.098C38.3529 42.1172 38.3519 42.137 38.3464 42.1558C38.341 42.1747 38.3314 42.192 38.3182 42.2065L37.0707 43.5869C37.0375 43.7761 36.879 44.8063 37.0094 47.0763C37.127 49.1214 36.1479 55.8394 35.5523 59.6535C35.5318 59.7941 35.519 59.8759 35.5165 59.8887L35.1688 63.0151C35.1279 63.3755 34.5221 63.9021 34.453 63.9609C34.435 63.9764 34.4128 63.9862 34.3891 63.9891C33.8191 64.0568 33.2453 64.0875 32.6713 64.0811ZM31.9453 38.9139C31.3394 39.3843 26.7534 43.0168 26.2856 45.0875C25.7743 47.3498 24.3018 52.3117 24.2865 52.3603C23.4761 55.6656 22.2721 60.7067 22.2823 61.0186C22.3002 61.2742 23.3279 61.7165 23.765 61.9005L24.0206 62.013C24.4987 62.2226 28.2054 63.442 30.524 63.7002C31.7783 63.8502 33.0453 63.8622 34.3022 63.736C34.5349 63.534 34.8825 63.171 34.903 62.9691L35.2506 59.8427C35.2506 59.8427 35.2506 59.7481 35.2864 59.587C36.309 53.1118 36.8202 48.5462 36.741 47.061C36.5953 44.5046 36.8049 43.5128 36.8151 43.4821C36.8207 43.4604 36.8312 43.4403 36.8458 43.4233L38.0038 42.1451L36.3141 41.2964L31.9453 38.9139Z" fill="#263238"/>
<path d="M38.2187 42.1221L37.7458 44.1211L37.1578 43.2622L38.2187 42.1221Z" fill="white"/>
<path d="M37.746 44.2493C37.7252 44.2493 37.7048 44.2442 37.6865 44.2344C37.6682 44.2245 37.6526 44.2103 37.6412 44.193L37.0507 43.3366C37.0344 43.3123 37.0268 43.2831 37.0291 43.2539C37.0314 43.2247 37.0435 43.1971 37.0634 43.1756L38.1269 42.0355C38.1461 42.0154 38.1714 42.0021 38.1988 41.9977C38.2262 41.9933 38.2544 41.9979 38.2789 42.0109C38.3035 42.024 38.3232 42.0446 38.3349 42.0698C38.3467 42.095 38.3499 42.1233 38.3442 42.1505L37.8687 44.1496C37.8629 44.1735 37.8505 44.1953 37.8329 44.2125C37.8152 44.2297 37.7931 44.2416 37.769 44.2467L37.746 44.2493ZM37.3216 43.2753L37.6872 43.8096L37.9837 42.5621L37.3216 43.2753Z" fill="#263238"/>
<path d="M39.9645 30.6188C40.4619 31.3469 40.7412 32.2018 40.7697 33.0831C40.8209 34.5658 41.1072 34.9212 41.4139 35.0618C41.7207 35.2024 41.8638 35.5449 41.5673 35.9437C41.3535 36.2215 41.1203 36.4837 40.8694 36.7285C40.8694 36.7285 40.4988 39.1008 40.2661 39.5788C40.0335 40.0569 39.4992 39.745 38.7477 39.6248C38.3884 39.5826 38.0356 39.4967 37.697 39.3692L36.7844 41.4143L32.408 38.3748L33.1391 36.3297C33.1391 36.3297 32.6099 35.5858 32.9141 33.1726C33.2183 30.7594 37.7456 29.8673 39.9645 30.6188Z" fill="white"/>
<path d="M36.7842 41.5496C36.7585 41.5498 36.7334 41.5417 36.7126 41.5266L32.3362 38.4871C32.3125 38.4715 32.2948 38.4484 32.286 38.4214C32.2772 38.3945 32.2778 38.3654 32.2876 38.3388L32.9983 36.3525C32.8781 36.1276 32.5228 35.2584 32.7861 33.1673C32.8781 32.426 33.3613 31.7639 34.1793 31.2526C35.7131 30.294 38.3768 29.9463 40.0052 30.4985C40.0288 30.5067 40.0493 30.5218 40.064 30.542C40.5818 31.2886 40.8713 32.1696 40.8974 33.0779C40.9485 34.5171 41.2144 34.8289 41.4674 34.9465C41.5568 34.9856 41.6363 35.0443 41.7 35.1181C41.7637 35.192 41.81 35.2793 41.8355 35.3734C41.8585 35.4874 41.8552 35.605 41.8259 35.7175C41.7967 35.83 41.7423 35.9344 41.6668 36.0228C41.4566 36.2933 41.2286 36.5495 40.9843 36.7897C40.9306 37.1194 40.5983 39.1722 40.3733 39.6323C40.1484 40.0925 39.7087 39.9723 39.2357 39.8573C39.0747 39.8189 38.906 39.778 38.7245 39.7499C38.3984 39.7018 38.0769 39.6266 37.7633 39.525L36.8993 41.4729C36.8913 41.4895 36.8799 41.5043 36.8658 41.5162C36.8517 41.5281 36.8352 41.5368 36.8175 41.5419C36.807 41.5466 36.7957 41.5492 36.7842 41.5496ZM32.5612 38.3311L36.7229 41.23L37.5716 39.3128C37.5859 39.2822 37.6116 39.2583 37.6432 39.2463C37.6588 39.2393 37.6758 39.2357 37.693 39.2357C37.7102 39.2357 37.7272 39.2393 37.7428 39.2463C38.073 39.3695 38.416 39.4553 38.7654 39.5019C38.9597 39.5326 39.1386 39.5761 39.2997 39.6144C39.8314 39.7422 40.0282 39.7678 40.1484 39.525C40.3324 39.1466 40.6366 37.3674 40.7389 36.713C40.7437 36.6849 40.7571 36.659 40.7772 36.6388C41.0242 36.4005 41.2532 36.1442 41.4623 35.8719C41.5156 35.8142 41.5548 35.7449 41.577 35.6696C41.5991 35.5942 41.6036 35.5147 41.5901 35.4374C41.5732 35.3799 41.5435 35.3271 41.5032 35.2828C41.4629 35.2386 41.4131 35.204 41.3575 35.1817C41.0175 35.0232 40.6954 34.6705 40.6392 33.0906C40.6049 32.2479 40.3396 31.4308 39.8723 30.7286C38.3027 30.2173 35.7642 30.5547 34.302 31.4699C33.5505 31.9428 33.1108 32.541 33.0239 33.2006C32.7324 35.5013 33.2232 36.2682 33.2284 36.2682C33.2397 36.2853 33.2469 36.3048 33.2496 36.3252C33.2522 36.3456 33.2502 36.3663 33.2437 36.3858L32.5612 38.3311Z" fill="#263238"/>
<path d="M40.3431 35.629C40.2204 35.629 40.0491 35.5574 39.9188 35.2123C39.7418 34.6569 39.7418 34.0601 39.9188 33.5047C40.0491 33.157 40.2204 33.0854 40.3406 33.0854C40.4607 33.0854 40.632 33.157 40.7624 33.5021C40.8565 33.7768 40.9032 34.0656 40.9004 34.356C40.9059 34.6461 40.8609 34.935 40.7675 35.2098C40.6397 35.5549 40.4684 35.629 40.3457 35.629H40.3431ZM40.3431 33.3411C40.3124 33.3411 40.2332 33.3922 40.1591 33.5967C40.0012 34.0958 40.0012 34.6314 40.1591 35.1305C40.2332 35.3299 40.3124 35.3862 40.3431 35.3862C40.3738 35.3862 40.453 35.3325 40.5272 35.1305C40.6086 34.8832 40.6475 34.6239 40.6422 34.3636C40.6459 34.103 40.6053 33.8437 40.5221 33.5967C40.4454 33.4024 40.3687 33.3513 40.338 33.3513L40.3431 33.3411Z" fill="#263238"/>
<path d="M39.9108 34.4968L35.5011 34.3178C35.4843 34.3172 35.4678 34.3132 35.4526 34.3062C35.4373 34.2991 35.4236 34.2892 35.4122 34.2768C35.4008 34.2645 35.3919 34.25 35.3861 34.2342C35.3803 34.2184 35.3777 34.2017 35.3784 34.1849C35.3783 34.1679 35.3818 34.1511 35.3886 34.1355C35.3954 34.1199 35.4054 34.1058 35.4179 34.0943C35.4304 34.0828 35.4451 34.074 35.4612 34.0684C35.4773 34.0629 35.4944 34.0608 35.5113 34.0622L39.921 34.2411C39.9549 34.2411 39.9874 34.2546 40.0114 34.2786C40.0354 34.3025 40.0488 34.3351 40.0488 34.369C40.0488 34.4029 40.0354 34.4354 40.0114 34.4593C39.9874 34.4833 39.9549 34.4968 39.921 34.4968H39.9108Z" fill="#263238"/>
<path d="M40.4964 33.0727C40.477 33.0721 40.4579 33.0677 40.4401 33.0599C40.1584 32.9523 39.8663 32.8743 39.5684 32.8273C39.5351 32.821 39.5055 32.802 39.4859 32.7744C39.4664 32.7467 39.4584 32.7125 39.4636 32.679C39.4661 32.6624 39.4718 32.6466 39.4806 32.6323C39.4893 32.618 39.5008 32.6056 39.5143 32.5958C39.5279 32.5861 39.5433 32.5791 39.5596 32.5754C39.5759 32.5717 39.5928 32.5713 39.6093 32.5742C39.9329 32.6249 40.2501 32.7106 40.5552 32.8298C40.5703 32.8371 40.5838 32.8474 40.5949 32.8601C40.606 32.8728 40.6144 32.8875 40.6196 32.9035C40.6249 32.9195 40.6269 32.9364 40.6254 32.9531C40.624 32.9699 40.6193 32.9862 40.6114 33.0011C40.6009 33.0226 40.5845 33.0407 40.5641 33.0534C40.5438 33.066 40.5203 33.0727 40.4964 33.0727Z" fill="#263238"/>
<path d="M40.4342 37.5282H40.4189L39.9595 37.4771C39.9427 37.4755 39.9264 37.4706 39.9116 37.4627C39.8967 37.4548 39.8835 37.444 39.8728 37.4309C39.8622 37.4178 39.8542 37.4028 39.8493 37.3867C39.8445 37.3705 39.8429 37.3535 39.8447 37.3368C39.8492 37.3029 39.8665 37.2721 39.8931 37.2507C39.9197 37.2293 39.9536 37.219 39.9876 37.2219L40.447 37.273C40.4811 37.2768 40.5123 37.294 40.5338 37.3208C40.5553 37.3475 40.5654 37.3817 40.5618 37.4159C40.5575 37.4468 40.5423 37.4751 40.5189 37.4957C40.4955 37.5163 40.4654 37.5279 40.4342 37.5282Z" fill="#263238"/>
<path d="M35.5011 34.1898C35.5011 34.1898 36.6157 34.2051 36.5083 33.8702C36.4009 33.5354 36.0328 33.2772 36.2527 33.0139C36.4725 32.7506 37.3596 32.4515 37.38 31.9504C37.4005 31.4494 37.1244 31.2398 37.2215 31.1043C37.3187 30.9688 38.8397 31.4289 39.1516 31.2116C39.4634 30.9944 39.2308 30.8231 39.2308 30.8231C39.2308 30.8231 41.0535 31.6028 41.3602 31.0966C41.667 30.5905 41.4702 29.1282 39.3458 28.1722C37.2215 27.2161 33.1314 27.0883 32.0884 28.052C31.0454 29.0158 30.1533 30.5726 30.1967 32.1243C30.2402 33.676 31.3905 35.6392 31.7459 36.3269C32.1012 37.0145 32.8297 37.6051 33.5046 37.3494C34.1795 37.0938 34.7828 35.8156 34.9157 35.0232C35.0486 34.2307 35.5011 34.1898 35.5011 34.1898Z" fill="#263238"/>
<path d="M33.1651 37.5362C32.5413 37.5362 31.9457 37.0096 31.6313 36.3858L31.4856 36.1123C31.0382 35.2764 30.1077 33.538 30.0668 32.1269C30.0208 30.4142 31.0357 28.8497 31.9994 27.9575C33.1344 26.9094 37.3115 27.1191 39.3974 28.0572C40.9031 28.7347 41.3735 29.6217 41.5192 30.1023C41.5836 30.275 41.6122 30.459 41.6034 30.6431C41.5946 30.8272 41.5486 31.0076 41.4681 31.1734C41.1767 31.6489 40.0033 31.2731 39.423 31.0558C39.3895 31.1692 39.3147 31.2659 39.2134 31.3268C39.0063 31.47 38.5308 31.4035 37.879 31.2936C37.6898 31.2629 37.4444 31.2194 37.3268 31.2169C37.3268 31.2424 37.3498 31.2782 37.3626 31.3064C37.4572 31.513 37.5027 31.7387 37.4955 31.9659C37.4776 32.3621 37.0507 32.628 36.7056 32.8402C36.5729 32.9087 36.45 32.9947 36.3401 33.0958C36.2685 33.1878 36.3119 33.2722 36.4423 33.4767C36.5191 33.5874 36.581 33.7077 36.6264 33.8346C36.6395 33.8734 36.6431 33.9148 36.6368 33.9553C36.6306 33.9957 36.6147 34.0341 36.5906 34.0672C36.4091 34.3228 35.7317 34.3228 35.5093 34.3228C35.4556 34.3228 35.1258 34.4276 35.0287 35.0488C34.8983 35.8796 34.2618 37.2064 33.5358 37.4748C33.4168 37.5168 33.2913 37.5376 33.1651 37.5362ZM35.0363 27.5153C33.7582 27.5153 32.6257 27.7224 32.1656 28.1467C31.2836 28.9622 30.2688 30.4909 30.3148 32.1218C30.3531 33.469 31.2657 35.1741 31.7029 35.9921L31.8511 36.2682C32.1783 36.8996 32.8507 37.4518 33.4514 37.2294C34.0521 37.007 34.6631 35.7391 34.7781 35.0028C34.9136 34.1388 35.4632 34.0646 35.4862 34.0621H35.5016C35.9208 34.0621 36.3477 33.9931 36.3886 33.9113C36.3486 33.8053 36.2953 33.7048 36.2301 33.6122C36.1049 33.4179 35.9515 33.1776 36.1432 32.9347C36.2684 32.8053 36.4134 32.6966 36.5727 32.6126C36.8667 32.4311 37.2322 32.2062 37.2425 31.9454C37.2484 31.7551 37.2099 31.5661 37.13 31.3933C37.0788 31.268 37.0303 31.1376 37.1044 31.0354C37.1785 30.9331 37.36 30.9382 37.925 31.0354C38.3033 31.0967 38.9322 31.2041 39.0702 31.1095C39.1495 31.0533 39.1776 31.0098 39.1776 30.9843C39.1738 30.9621 39.1619 30.9421 39.1444 30.928C39.1204 30.9085 39.1041 30.881 39.0985 30.8506C39.0928 30.8201 39.0982 30.7887 39.1137 30.7619C39.1292 30.7353 39.1538 30.7153 39.1829 30.7055C39.212 30.6956 39.2437 30.6966 39.2722 30.7082C39.9649 31.0047 41.0616 31.314 41.2431 31.0328C41.3047 30.8977 41.3385 30.7516 41.3424 30.6031C41.3464 30.4547 41.3204 30.307 41.2661 30.1688C41.1332 29.7419 40.7012 28.929 39.285 28.2924C38.1448 27.7786 36.4883 27.5153 35.0363 27.5153Z" fill="#263238"/>
<path d="M35.6679 34.6398C35.6679 34.6398 35.6117 33.5176 35.0237 33.3079C34.4358 33.0983 33.8197 33.786 34.0447 34.6756C34.073 34.8335 34.1345 34.9836 34.2252 35.1159C34.3159 35.2482 34.4336 35.3597 34.5707 35.4431C34.7077 35.5265 34.8609 35.5798 35.0201 35.5995C35.1793 35.6193 35.3409 35.6049 35.4941 35.5575" fill="white"/>
<path d="M35.1894 35.7468C35.0018 35.7447 34.8169 35.702 34.6474 35.6215C34.4678 35.5315 34.3105 35.4027 34.1867 35.2444C34.0629 35.0861 33.9758 34.9024 33.9316 34.7064C33.8612 34.4749 33.8547 34.2286 33.9127 33.9937C33.9708 33.7588 34.0913 33.544 34.2614 33.372C34.3669 33.2679 34.4995 33.1954 34.6441 33.1629C34.7887 33.1303 34.9395 33.139 35.0794 33.1879C35.739 33.4231 35.8054 34.5837 35.808 34.6348C35.8087 34.6516 35.8061 34.6683 35.8003 34.6841C35.7945 34.6999 35.7856 34.7144 35.7742 34.7267C35.7628 34.7391 35.7491 34.749 35.7338 34.7561C35.7186 34.7631 35.7021 34.7671 35.6853 34.7677C35.6686 34.7688 35.6519 34.7665 35.6362 34.7609C35.6204 34.7554 35.6059 34.7468 35.5935 34.7356C35.5812 34.7244 35.5711 34.7109 35.5641 34.6958C35.557 34.6806 35.553 34.6643 35.5524 34.6476C35.537 34.3587 35.4092 33.5765 34.9925 33.4308C34.8964 33.3978 34.7929 33.3926 34.6939 33.4156C34.5949 33.4387 34.5044 33.4891 34.4327 33.5611C34.3161 33.6959 34.2311 33.855 34.1839 34.0269C34.1367 34.1987 34.1285 34.3789 34.1598 34.5543C34.1912 34.7298 34.2613 34.896 34.3652 35.0408C34.469 35.1856 34.6038 35.3054 34.7599 35.3915C34.8659 35.4465 34.9821 35.4791 35.1013 35.4875C35.2204 35.4958 35.34 35.4797 35.4527 35.44C35.4835 35.4262 35.5186 35.4252 35.5502 35.4371C35.5818 35.4491 35.6074 35.4731 35.6214 35.504C35.6287 35.519 35.6329 35.5354 35.6337 35.5521C35.6346 35.5688 35.632 35.5855 35.6263 35.6013C35.6206 35.617 35.6118 35.6314 35.6004 35.6437C35.589 35.6559 35.5753 35.6658 35.56 35.6727C35.4431 35.7232 35.3168 35.7485 35.1894 35.7468Z" fill="#263238"/>
<path d="M37.6974 39.3639C37.3044 39.2462 36.9356 39.0592 36.6084 38.8118C36.3764 38.6378 36.1692 38.4331 35.9923 38.2034L36.9944 40.8338L37.6974 39.3639Z" fill="#263238"/>
<path d="M36.9942 40.9619C36.9692 40.9608 36.9451 40.9524 36.9247 40.9379C36.9043 40.9234 36.8885 40.9033 36.8792 40.8801L35.8771 38.2496C35.866 38.2204 35.866 38.1881 35.8771 38.1588C35.8882 38.1296 35.9097 38.1054 35.9374 38.091C35.9651 38.0765 35.9972 38.0726 36.0275 38.0802C36.0579 38.0878 36.0844 38.1062 36.1021 38.132C36.2732 38.35 36.4717 38.545 36.6926 38.7123C37.0081 38.9475 37.3618 39.1265 37.7381 39.2415C37.7562 39.2467 37.7729 39.2558 37.787 39.2681C37.8011 39.2805 37.8124 39.2959 37.8199 39.3131C37.8281 39.3298 37.8323 39.3481 37.8323 39.3667C37.8323 39.3853 37.8281 39.4037 37.8199 39.4204L37.1169 40.8903C37.1058 40.9131 37.0883 40.932 37.0664 40.9447C37.0446 40.9575 37.0195 40.9634 36.9942 40.9619ZM36.3372 38.7507L37.007 40.5094L37.5183 39.4409C37.161 39.3198 36.826 39.141 36.5264 38.9117L36.3372 38.7507Z" fill="#263238"/>
<path d="M32.1216 51.5039C32.0881 51.504 32.056 51.4908 32.0321 51.4674C32.0082 51.444 31.9944 51.4121 31.9938 51.3787C31.9931 51.3618 31.9958 51.345 32.0018 51.3292C32.0078 51.3134 32.0169 51.299 32.0286 51.2868C32.0403 51.2746 32.0543 51.2649 32.0699 51.2583C32.0854 51.2517 32.1021 51.2483 32.119 51.2483C32.3815 51.2465 32.6436 51.2286 32.9038 51.1946C32.9206 51.1925 32.9377 51.1937 32.954 51.1982C32.9703 51.2027 32.9856 51.2105 32.9989 51.2209C33.0122 51.2314 33.0233 51.2444 33.0316 51.2592C33.0398 51.274 33.0451 51.2903 33.047 51.3071C33.0491 51.3236 33.048 51.3403 33.0436 51.3563C33.0392 51.3723 33.0317 51.3873 33.0214 51.4004C33.0112 51.4135 32.9985 51.4244 32.984 51.4325C32.9695 51.4407 32.9535 51.4458 32.937 51.4477C32.6673 51.4812 32.3959 51.5 32.1241 51.5039H32.1216Z" fill="#263238"/>
<path d="M31.4037 51.4787C30.3971 51.4043 29.4027 51.2121 28.4409 50.9061C28.4092 50.895 28.3831 50.8719 28.3682 50.8418C28.3534 50.8117 28.351 50.7769 28.3616 50.745C28.3671 50.729 28.3757 50.7142 28.3869 50.7016C28.3981 50.6889 28.4117 50.6786 28.4269 50.6712C28.4421 50.6639 28.4586 50.6596 28.4755 50.6586C28.4924 50.6577 28.5093 50.6601 28.5252 50.6658C29.4634 50.9623 30.4327 51.1493 31.4139 51.223C31.4474 51.2257 31.4785 51.2413 31.5005 51.2667C31.5225 51.292 31.5336 51.325 31.5315 51.3585C31.5302 51.3913 31.516 51.4223 31.4921 51.4447C31.4682 51.4672 31.4365 51.4794 31.4037 51.4787Z" fill="#263238"/>
<path d="M32.4565 53.6307H32.4232C32.1332 53.5484 31.8481 53.4494 31.5694 53.3342C31.5379 53.3217 31.5126 53.2971 31.4992 53.2659C31.4858 53.2348 31.4853 53.1996 31.4978 53.168C31.5104 53.1365 31.5349 53.1113 31.5661 53.0978C31.5973 53.0844 31.6325 53.0839 31.664 53.0965C31.9334 53.2086 32.2091 53.305 32.4897 53.3853C32.5061 53.3891 32.5216 53.3963 32.5351 53.4064C32.5487 53.4164 32.56 53.4292 32.5684 53.4438C32.5768 53.4584 32.5821 53.4746 32.5839 53.4914C32.5858 53.5082 32.5842 53.5252 32.5792 53.5413C32.571 53.5673 32.5546 53.5901 32.5325 53.6062C32.5105 53.6223 32.4838 53.6309 32.4565 53.6307Z" fill="#263238"/>
<path d="M31.0402 53.0861C31.0225 53.0897 31.0043 53.0897 30.9866 53.0861C30.1333 52.6836 29.3014 52.2374 28.4941 51.7491C28.4653 51.7312 28.4448 51.7025 28.4371 51.6694C28.4295 51.6363 28.4353 51.6016 28.4532 51.5727C28.4712 51.5439 28.4999 51.5234 28.5329 51.5158C28.566 51.5081 28.6008 51.5139 28.6296 51.5318C29.4269 52.0159 30.2496 52.4571 31.0939 52.8535C31.1198 52.866 31.1407 52.8869 31.1533 52.9128C31.1658 52.9387 31.1693 52.968 31.163 52.9961C31.1568 53.0242 31.1413 53.0494 31.1191 53.0676C31.0968 53.0857 31.069 53.0959 31.0402 53.0963V53.0861Z" fill="#263238"/>
<path d="M28.9114 56.7269C28.8918 56.7278 28.8724 56.7234 28.8552 56.7141C28.5427 56.55 28.2581 56.3378 28.0116 56.0852C27.9996 56.0733 27.9901 56.0592 27.9836 56.0436C27.9771 56.028 27.9738 56.0113 27.9738 55.9945C27.9738 55.9776 27.9771 55.9609 27.9836 55.9453C27.9901 55.9297 27.9996 55.9156 28.0116 55.9037C28.0359 55.8801 28.0684 55.8669 28.1023 55.8669C28.1362 55.8669 28.1687 55.8801 28.1931 55.9037C28.4177 56.1357 28.6763 56.3322 28.96 56.4866C28.9753 56.4936 28.9891 56.5038 29.0004 56.5163C29.0118 56.5289 29.0205 56.5436 29.026 56.5596C29.0315 56.5756 29.0337 56.5926 29.0324 56.6095C29.0312 56.6263 29.0265 56.6428 29.0188 56.6578C29.0089 56.6781 28.9937 56.6952 28.9748 56.7074C28.9558 56.7196 28.9339 56.7263 28.9114 56.7269Z" fill="#263238"/>
<path d="M27.446 55.4049C27.427 55.405 27.4083 55.4009 27.391 55.3929C27.3738 55.385 27.3586 55.3734 27.3463 55.3589C26.6744 54.5083 26.0685 53.6075 25.5338 52.6645C25.5256 52.6497 25.5204 52.6335 25.5184 52.6167C25.5165 52.5999 25.5179 52.5829 25.5225 52.5666C25.5271 52.5504 25.5349 52.5352 25.5454 52.5219C25.5559 52.5087 25.5689 52.4976 25.5837 52.4894C25.5985 52.4812 25.6147 52.4759 25.6315 52.474C25.6483 52.4721 25.6653 52.4734 25.6816 52.4781C25.6978 52.4827 25.713 52.4905 25.7263 52.501C25.7395 52.5115 25.7506 52.5245 25.7588 52.5393C26.2861 53.4693 26.8843 54.3573 27.5482 55.1953C27.569 55.2221 27.5786 55.2559 27.5753 55.2896C27.572 55.3233 27.5559 55.3545 27.5303 55.3768C27.5061 55.3952 27.4764 55.4051 27.446 55.4049Z" fill="#263238"/>
<path d="M35.6519 42.5569L36.4494 44.7682L36.8124 48.301C36.8124 48.301 37.362 46.5985 37.5001 46.0003C37.5629 45.5826 37.4836 45.1559 37.2751 44.7886L36.9479 43.5283L36.7843 44.3387L36.0174 42.5237L35.6519 42.5569Z" fill="#254791"/>
<path d="M36.8128 48.4286C36.7839 48.4258 36.7569 48.413 36.7364 48.3925C36.7159 48.372 36.7031 48.345 36.7003 48.3161L36.3373 44.7986L35.5448 42.6027C35.5361 42.5852 35.5315 42.566 35.5315 42.5464C35.5315 42.5269 35.5361 42.5077 35.5448 42.4902C35.5548 42.4736 35.5686 42.4597 35.5851 42.4495C35.6015 42.4392 35.6201 42.4331 35.6394 42.4314L36.005 42.4007C36.0317 42.3981 36.0585 42.4042 36.0815 42.418C36.1045 42.4318 36.1225 42.4526 36.1328 42.4774L36.7412 43.909L36.823 43.5051C36.8283 43.4768 36.8431 43.4513 36.865 43.4327C36.8868 43.414 36.9144 43.4035 36.9431 43.4028C36.9717 43.4031 36.9994 43.4124 37.0224 43.4294C37.0453 43.4464 37.0623 43.4702 37.071 43.4974L37.3956 44.7423C37.6151 45.1346 37.6961 45.5894 37.6257 46.0333C37.4876 46.6264 36.9585 48.2727 36.9355 48.334C36.9282 48.361 36.9123 48.3849 36.8901 48.402C36.8679 48.4191 36.8408 48.4284 36.8128 48.4286ZM35.8286 42.6691L36.5699 44.7142V44.7449L36.869 47.6642C37.0428 47.1146 37.2831 46.3247 37.3803 45.9617C37.4356 45.5756 37.3619 45.182 37.1707 44.842C37.1692 44.831 37.1692 44.8198 37.1707 44.8088L36.9815 44.0879L36.9278 44.3436C36.9225 44.3697 36.909 44.3935 36.8892 44.4114C36.8694 44.4294 36.8444 44.4405 36.8179 44.4432C36.7905 44.4462 36.7628 44.4403 36.7389 44.4265C36.7151 44.4128 36.6962 44.3918 36.685 44.3666L35.9513 42.6385L35.8286 42.6691Z" fill="#263238"/>
<path d="M32.1962 37.71L31.4957 38.8194L35.4785 43.472L37.4571 41.2096L32.1962 37.71Z" fill="white"/>
<path d="M35.4786 43.5999C35.4602 43.6002 35.4419 43.5965 35.4251 43.589C35.4083 43.5815 35.3934 43.5703 35.3814 43.5564L31.3986 38.9039C31.3826 38.882 31.374 38.8556 31.374 38.8285C31.374 38.8013 31.3826 38.7749 31.3986 38.753L32.0965 37.641C32.1155 37.6124 32.1448 37.5923 32.1783 37.5848C32.2118 37.5778 32.2467 37.5842 32.2755 37.6027L37.539 41.1023C37.5541 41.1122 37.5667 41.1254 37.576 41.1409C37.5853 41.1564 37.591 41.1738 37.5926 41.1918C37.5954 41.2099 37.5943 41.2283 37.5895 41.2459C37.5846 41.2635 37.5761 41.2799 37.5645 41.2941L35.5757 43.5539C35.5636 43.5679 35.5487 43.5792 35.532 43.5871C35.5153 43.595 35.4971 43.5994 35.4786 43.5999ZM31.6441 38.8093L35.4786 43.2778L37.268 41.2327L32.2371 37.8864L31.6441 38.8093Z" fill="#263238"/>
<path d="M36.8125 48.3005C36.8125 48.3005 33.6554 55.7932 33.0649 57.102C32.4744 58.4109 30.9636 60.4687 30.9636 60.4687L31.1017 63.1094L33.8804 61.4478C33.8804 61.4478 35.7798 56.3351 36.3166 53.1167C36.8534 49.8983 36.8125 48.3005 36.8125 48.3005Z" fill="#254791"/>
<path d="M31.0995 63.2375C31.0789 63.2377 31.0586 63.2324 31.0407 63.2222C31.021 63.2123 31.0043 63.1975 30.9922 63.1791C30.98 63.1607 30.973 63.1394 30.9717 63.1174L30.8439 60.469C30.8433 60.4397 30.8523 60.411 30.8695 60.3872C30.8848 60.3668 32.4033 58.3217 32.9554 57.0461C33.5076 55.7705 36.6723 48.3238 36.703 48.2497C36.7147 48.2226 36.7352 48.2003 36.7612 48.1864C36.7872 48.1724 36.8172 48.1677 36.8462 48.173C36.8746 48.1788 36.9002 48.1941 36.9188 48.2164C36.9374 48.2387 36.9479 48.2667 36.9484 48.2957C36.9484 48.3136 36.9817 49.9343 36.4499 53.1247C35.9182 56.315 34.0265 61.4276 34.0061 61.4788C33.9974 61.507 33.9782 61.5308 33.9524 61.5452L31.1762 63.2145C31.1539 63.2306 31.1269 63.2387 31.0995 63.2375ZM31.0995 60.5074L31.2248 62.8924L33.7811 61.3586C33.9626 60.8627 35.6933 56.1053 36.1943 53.0914C36.4342 51.7309 36.5947 50.3575 36.6749 48.9783C35.908 50.8009 33.661 56.09 33.1881 57.1586C32.6333 58.3805 31.3091 60.2083 31.0995 60.5023V60.5074Z" fill="#263238"/>
<path d="M32.9451 42.3625C32.9451 42.3625 31.8791 41.6774 31.0585 41.8103C30.238 41.9433 28.3284 42.9862 27.4797 43.9679C26.631 44.9495 19.8746 48.5693 19.6113 49.0806C19.348 49.5918 15.0917 60.2058 15.0917 60.2058L17.717 61.42L20.1583 57.6622L23.5327 51.6037L31.7692 48.7917" fill="white"/>
<path d="M17.7196 61.5532C17.7019 61.5569 17.6836 61.5569 17.6659 61.5532L15.0406 60.3364C15.011 60.3224 14.9879 60.2977 14.976 60.2673C14.9642 60.2369 14.9644 60.2031 14.9766 60.1728C15.1505 59.7408 19.2381 49.5563 19.4988 49.0374C19.6317 48.7817 20.8128 48.0634 22.8859 46.8261C24.7904 45.6911 26.948 44.4053 27.3851 43.8966C28.2159 42.9303 30.1485 41.8361 31.0381 41.693C31.9277 41.5498 32.9707 42.2349 33.0142 42.2631C33.0284 42.2719 33.0408 42.2835 33.0506 42.2972C33.0604 42.3109 33.0674 42.3264 33.0712 42.3428C33.075 42.3591 33.0756 42.3761 33.0728 42.3927C33.07 42.4093 33.064 42.4252 33.055 42.4394C33.0366 42.4685 33.0075 42.4891 32.974 42.4967C32.9405 42.5044 32.9053 42.4985 32.8761 42.4803C32.8761 42.4803 31.8536 41.8234 31.0867 41.9461C30.3198 42.0688 28.4281 43.0862 27.5871 44.0627C27.1218 44.6047 25.0307 45.8522 23.024 47.046C21.5362 47.933 19.8516 48.9377 19.7365 49.1524C19.4809 49.633 15.7231 59.0148 15.2655 60.1574L17.6812 61.2746L20.0612 57.6088L23.4304 51.5477C23.4457 51.5205 23.4702 51.4996 23.4995 51.4889L31.7385 48.6769C31.7704 48.6663 31.8052 48.6687 31.8353 48.6835C31.8655 48.6983 31.8885 48.7244 31.8996 48.7562C31.9103 48.7884 31.908 48.8235 31.8932 48.8541C31.8784 48.8846 31.8523 48.9082 31.8203 48.9198L23.6401 51.7138L20.2913 57.7264L17.8449 61.4944C17.8318 61.5152 17.8131 61.5318 17.7909 61.5422C17.7687 61.5527 17.7439 61.5565 17.7196 61.5532Z" fill="#263238"/>
<path d="M18.2819 60.5253C18.2651 60.5291 18.2476 60.5291 18.2308 60.5253L15.4188 59.2931C15.39 59.278 15.3681 59.2524 15.3575 59.2216C15.347 59.1909 15.3485 59.1572 15.3619 59.1276C15.3752 59.0979 15.3994 59.0744 15.4295 59.062C15.4595 59.0495 15.4932 59.049 15.5236 59.0605L18.3356 60.2901C18.3664 60.3041 18.3906 60.3295 18.403 60.361C18.4154 60.3925 18.415 60.4276 18.4021 60.4588C18.3904 60.4802 18.3729 60.4978 18.3517 60.5096C18.3304 60.5213 18.3062 60.5268 18.2819 60.5253Z" fill="#263238"/>
<path d="M17.7195 61.4252L17.9752 63.7259L17.5508 64.7715C17.6076 65.0694 17.6444 65.3709 17.6607 65.6738C17.6428 65.8783 17.7349 65.9883 17.4281 65.8988C17.1214 65.8093 16.7814 65.1319 16.7814 65.1319L16.311 66.0343C16.311 66.0343 16.1602 66.1135 15.7256 65.9039C15.5844 65.8167 15.4622 65.7021 15.366 65.5669C15.2699 65.4317 15.2018 65.2785 15.1658 65.1166C15.1658 65.1166 13.8339 64.2602 13.7163 63.8537C13.6462 63.47 13.6462 63.0768 13.7163 62.6931L15.0993 60.2109L17.7195 61.4252Z" fill="white"/>
<path d="M16.2136 66.1721C16.0227 66.1599 15.8368 66.1058 15.6692 66.0136C15.517 65.9247 15.3842 65.8063 15.2784 65.6654C15.1726 65.5245 15.096 65.3639 15.0531 65.193C14.7974 65.0243 13.711 64.3059 13.5832 63.8918C13.5065 63.4881 13.5065 63.0736 13.5832 62.6699C13.5856 62.6554 13.5908 62.6415 13.5985 62.629L14.9789 60.1493C14.9947 60.121 15.0206 60.0997 15.0514 60.0897C15.0823 60.0797 15.1158 60.0818 15.1451 60.0956L17.7705 61.3099C17.7908 61.3189 17.8083 61.333 17.8214 61.351C17.8344 61.369 17.8424 61.3901 17.8446 61.4122L18.1002 63.7129C18.1065 63.7328 18.1065 63.7543 18.1002 63.7742L17.6887 64.7789C17.7474 65.0763 17.7816 65.3782 17.7909 65.6812C17.7909 65.7196 17.7909 65.7554 17.7909 65.7861C17.7993 65.8265 17.7972 65.8685 17.7846 65.9079C17.7721 65.9473 17.7496 65.9829 17.7193 66.011C17.6452 66.0724 17.5429 66.0596 17.3972 66.011C17.1595 65.9394 16.9243 65.6122 16.7888 65.3847L16.4284 66.0775C16.4161 66.0987 16.3985 66.1163 16.3773 66.1286C16.3276 66.1575 16.2711 66.1726 16.2136 66.1721ZM13.8337 62.7261C13.7675 63.0827 13.7675 63.4484 13.8337 63.8049C13.9181 64.0733 14.7412 64.6766 15.2422 64.9936C15.2708 65.0126 15.291 65.0419 15.2985 65.0754C15.3265 65.2212 15.3834 65.3599 15.466 65.4833C15.5485 65.6067 15.655 65.7122 15.7791 65.7937C15.915 65.8715 16.0674 65.9162 16.2239 65.9241L16.6687 65.078C16.6789 65.0569 16.6949 65.0393 16.7148 65.027C16.7348 65.0148 16.7578 65.0085 16.7812 65.0089C16.805 65.0092 16.8284 65.016 16.8487 65.0286C16.869 65.0412 16.8854 65.0592 16.8962 65.0805C17.0266 65.3361 17.2899 65.7349 17.4637 65.7861L17.5302 65.804C17.5277 65.7605 17.5277 65.717 17.5302 65.6736C17.5152 65.3808 17.4793 65.0895 17.4228 64.8019C17.4165 64.7784 17.4165 64.7537 17.4228 64.7303L17.8395 63.7231L17.5838 61.5221L15.1298 60.3871L13.8337 62.7261Z" fill="#263238"/>
<path d="M13.716 62.6934C13.716 62.6934 12.8622 62.7752 12.7062 63.0206C12.5503 63.266 11.8575 64.6413 11.8575 64.6413L12.4046 65.0503C12.4046 65.0503 12.765 64.2425 13.013 63.8156C13.0718 63.6984 13.165 63.602 13.2802 63.5394C13.3953 63.4768 13.5269 63.451 13.6572 63.4654L13.716 62.6934Z" fill="#263238"/>
<path d="M12.3999 65.1777C12.372 65.1788 12.3448 65.1697 12.3232 65.1522L11.7761 64.7432C11.7523 64.7253 11.7356 64.6995 11.729 64.6705C11.7225 64.6415 11.7265 64.611 11.7403 64.5847C11.7684 64.5284 12.4382 63.1991 12.5941 62.9512C12.7501 62.7032 13.5476 62.5805 13.6985 62.5652C13.7171 62.5636 13.7358 62.566 13.7534 62.5722C13.771 62.5783 13.7872 62.5881 13.8007 62.6009C13.8144 62.614 13.825 62.63 13.8316 62.6477C13.8383 62.6654 13.8408 62.6844 13.8391 62.7032L13.7803 63.4701C13.7781 63.4876 13.7724 63.5045 13.7636 63.5198C13.7548 63.5352 13.743 63.5485 13.729 63.5593C13.715 63.57 13.6989 63.5778 13.6818 63.5822C13.6647 63.5867 13.6469 63.5876 13.6295 63.5851C13.5246 63.5751 13.4192 63.5978 13.3277 63.6499C13.2362 63.7021 13.163 63.7812 13.1182 63.8766C12.8626 64.2907 12.5174 65.0908 12.5123 65.0985C12.5047 65.1161 12.4931 65.1317 12.4785 65.1441C12.4639 65.1565 12.4466 65.1654 12.428 65.1701L12.3999 65.1777ZM12.0164 64.6051L12.3487 64.8608C12.4638 64.6051 12.7117 64.0811 12.8983 63.759C12.959 63.6401 13.0497 63.5392 13.1613 63.4661C13.2729 63.3931 13.4017 63.3504 13.5349 63.3423L13.5732 62.8464C13.2307 62.8924 12.8753 62.9921 12.8063 63.102C12.6938 63.2886 12.1826 64.2881 12.0164 64.6051Z" fill="#263238"/>
<path d="M17.165 64.0706L16.8608 64.8068C16.8608 64.8068 17.3337 65.0803 17.2059 65.3768C17.0781 65.6734 16.462 67.0717 16.462 67.0717L17.0807 67.3759C17.0807 67.3759 17.9345 66.1744 17.9217 65.5072C17.9178 65.225 17.8472 64.9478 17.7157 64.6981C17.5842 64.4484 17.3955 64.2334 17.165 64.0706Z" fill="#263238"/>
<path d="M17.0803 67.502C17.0599 67.5027 17.0397 67.4983 17.0215 67.4892L16.4054 67.185C16.3761 67.1701 16.3536 67.1448 16.3422 67.114C16.3308 67.0831 16.3315 67.0492 16.3441 67.0189C16.3441 67.0189 16.9627 65.6205 17.0879 65.3266C17.157 65.1706 16.8937 64.9763 16.7965 64.9201C16.7694 64.9045 16.749 64.8795 16.7391 64.8498C16.7292 64.8201 16.7305 64.7878 16.7428 64.759L17.0394 64.0203C17.0469 64.0031 17.0581 63.9877 17.0723 63.9753C17.0864 63.963 17.1031 63.9539 17.1212 63.9487C17.1391 63.943 17.158 63.9415 17.1766 63.9441C17.1952 63.9468 17.2129 63.9536 17.2285 63.964C17.4748 64.138 17.6768 64.3675 17.818 64.6339C17.9592 64.9004 18.0358 65.1963 18.0415 65.4978C18.0568 66.2008 17.2106 67.3946 17.1749 67.4432C17.1648 67.4598 17.1511 67.4737 17.1346 67.484C17.1182 67.4942 17.0996 67.5004 17.0803 67.502ZM16.6278 67.0086L17.0368 67.2106C17.2285 66.9268 17.8037 66.027 17.8037 65.5081C17.7983 65.2711 17.7437 65.0378 17.6434 64.8231C17.5431 64.6083 17.3992 64.4168 17.2209 64.2606L17.0189 64.7718C17.2183 64.915 17.4407 65.1681 17.3231 65.439C17.2055 65.71 16.7837 66.6712 16.6278 67.0086Z" fill="#263238"/>
<path d="M9.39584 62.9666L20.0609 69.2629C20.0609 69.2629 20.7511 69.9326 20.5006 70.4337C20.25 70.9347 16.3005 79.6365 16.1343 79.841C15.9682 80.0455 15.7892 80.3114 15.0888 80.2117C14.3884 80.112 3.93806 73.2508 3.82303 73.1127C3.70799 72.9747 3.24785 72.581 3.51371 72.034C3.77957 71.4869 8.15346 63.644 8.26594 63.2606C8.37842 62.8771 9.07886 62.9819 9.39584 62.9666Z" fill="#656565"/>
<path d="M15.3699 80.365C15.2697 80.3654 15.1697 80.3578 15.0708 80.342C14.2272 80.2193 3.77688 73.2583 3.72575 73.2072L3.67974 73.1561C3.51358 72.9771 3.12502 72.5553 3.39854 71.9878C3.5008 71.7757 4.16544 70.5537 5.02437 69.0071C6.23863 66.7985 8.07664 63.465 8.1431 63.2349C8.26325 62.8259 8.82309 62.8387 9.19631 62.8464H9.3906C9.41448 62.846 9.43812 62.8513 9.45962 62.8617L20.1272 69.1605L20.1502 69.1784C20.1809 69.2091 20.9171 69.9223 20.6155 70.4975C20.526 70.6739 19.9764 71.8728 19.2785 73.3938C17.3382 77.6271 16.3336 79.8 16.2365 79.9253C16.1443 80.0691 16.0154 80.1858 15.863 80.2631C15.7106 80.3404 15.5404 80.3756 15.3699 80.365ZM9.01993 63.0892C8.74895 63.0892 8.44219 63.1148 8.38851 63.2963C8.32205 63.5289 6.98764 65.9625 5.24933 69.1196C4.4313 70.6023 3.72831 71.883 3.62861 72.0875C3.42922 72.4991 3.71553 72.8084 3.86891 72.972L3.92004 73.0308C3.9865 73.0871 14.4266 79.9866 15.1066 80.0838C15.7124 80.1732 15.8735 79.9713 16.0192 79.7796C16.1649 79.5878 17.8981 75.7866 19.0484 73.2788C19.7438 71.7578 20.2959 70.5563 20.3854 70.3748C20.5541 70.0425 20.1604 69.544 19.9815 69.365L9.37014 63.0943H9.01993V63.0892Z" fill="#263238"/>
<path d="M16.8939 73.9867C16.8705 73.9872 16.8474 73.981 16.8274 73.9688L6.27232 67.6521C6.25764 67.6439 6.24479 67.6328 6.23457 67.6195C6.22434 67.6062 6.21697 67.5909 6.21289 67.5746C6.20882 67.5583 6.20813 67.5413 6.21088 67.5248C6.21363 67.5082 6.21975 67.4924 6.22886 67.4783C6.23707 67.4636 6.24813 67.4508 6.26139 67.4405C6.27465 67.4303 6.28983 67.4228 6.30604 67.4185C6.32225 67.4142 6.33916 67.4132 6.35577 67.4156C6.37237 67.4179 6.38833 67.4236 6.40269 67.4322L16.9578 73.7515C16.9825 73.765 17.002 73.7864 17.0131 73.8124C17.0241 73.8383 17.0261 73.8672 17.0187 73.8944C17.0113 73.9216 16.995 73.9454 16.9724 73.9622C16.9497 73.979 16.9221 73.9876 16.8939 73.9867Z" fill="#263238"/>
<path d="M15.1378 79.9897H15.1021C14.5908 79.8389 14.5269 79.504 14.5627 79.2483C14.624 78.8189 18.6528 70.4929 19.0541 69.9688C19.1122 69.88 19.1873 69.8037 19.2752 69.7444C19.3631 69.685 19.462 69.6437 19.566 69.623C19.67 69.6023 19.7771 69.6026 19.8811 69.6237C19.985 69.6449 20.0837 69.6866 20.1713 69.7464C20.1853 69.7559 20.1973 69.7681 20.2066 69.7823C20.2158 69.7964 20.2222 69.8123 20.2253 69.8289C20.2284 69.8456 20.2281 69.8627 20.2246 69.8792C20.221 69.8958 20.2142 69.9115 20.2045 69.9254C20.1845 69.9526 20.1548 69.9712 20.1216 69.9774C20.0884 69.9836 20.054 69.9769 20.0256 69.9586C19.9651 69.9167 19.8966 69.8876 19.8245 69.8733C19.7523 69.8589 19.6779 69.8595 19.606 69.8751C19.5341 69.8907 19.4661 69.9209 19.4064 69.9638C19.3466 70.0068 19.2964 70.0616 19.2587 70.1248C18.7908 70.7357 14.8797 78.9825 14.8157 79.2867C14.7825 79.5219 14.8899 79.6599 15.1736 79.7443C15.2075 79.749 15.2382 79.767 15.2588 79.7944C15.2794 79.8217 15.2883 79.8561 15.2835 79.89C15.2788 79.9239 15.2608 79.9545 15.2335 79.9751C15.2061 79.9957 15.1717 80.0047 15.1378 79.9999V79.9897Z" fill="#263238"/>
</svg>
