<svg width="141" height="118" viewBox="0 0 141 118" fill="none" xmlns="http://www.w3.org/2000/svg">
<path d="M124.639 77.7259H74.1778C73.2755 77.7259 72.5413 76.9916 72.5413 76.0893V2.5875C72.5413 1.68518 73.2755 0.950928 74.1778 0.950928H124.639C125.542 0.950928 126.276 1.6849 126.276 2.5875V76.089C126.276 76.9916 125.542 77.7256 124.639 77.7256V77.7259ZM74.1778 1.02072C73.3138 1.02072 72.6111 1.72371 72.6111 2.5875V76.089C72.6111 76.9531 73.314 77.6558 74.1778 77.6558H124.639C125.503 77.6558 126.206 76.9531 126.206 76.089V2.5875C126.206 1.72371 125.503 1.02072 124.639 1.02072H74.1778Z" fill="#E0E0E0"/>
<path d="M66.4499 77.7259H15.9883C15.0859 77.7259 14.3517 76.9916 14.3517 76.0893V2.5875C14.3517 1.68518 15.0857 0.950928 15.9883 0.950928H66.4499C67.3523 0.950928 68.0865 1.6849 68.0865 2.5875V76.089C68.0865 76.9916 67.3523 77.7256 66.4499 77.7256V77.7259ZM15.9883 1.02072C15.1245 1.02072 14.4215 1.72371 14.4215 2.5875V76.089C14.4215 76.9531 15.1245 77.6558 15.9883 77.6558H66.4499C67.314 77.6558 68.0167 76.9531 68.0167 76.089V2.5875C68.0167 1.72371 67.3137 1.02072 66.4499 1.02072H15.9883Z" fill="#E0E0E0"/>
<path d="M140.296 94.7751H0.703979V94.8449H140.296V94.7751Z" fill="#E0E0E0"/>
<path d="M19.6138 98.7573H15.1301V98.8271H19.6138V98.7573Z" fill="#E0E0E0"/>
<path d="M63.2081 98.001H48.2634V98.0708H63.2081V98.001Z" fill="#E0E0E0"/>
<path d="M30.0132 101.351H19.8928V101.421H30.0132V101.351Z" fill="#E0E0E0"/>
<path d="M118.392 97.9648H106.334V98.0346H118.392V97.9648Z" fill="#E0E0E0"/>
<path d="M122.646 97.9648H120.879V98.0346H122.646V97.9648Z" fill="#E0E0E0"/>
<path d="M104.031 99.7039H88.9854V99.7737H104.031V99.7039Z" fill="#E0E0E0"/>
<path d="M100.385 16.5131C99.579 17.7409 99.0369 19.0899 98.7476 20.4811L96.5317 20.6896V24.981L98.7476 25.1898C99.036 26.5807 99.5788 27.9294 100.385 29.1578L98.9696 30.8673L102.004 33.9017L103.713 32.4865C104.942 33.2928 106.29 33.8353 107.682 34.124L107.89 36.3401H112.181L112.39 34.1242C113.781 33.8353 115.13 33.2928 116.358 32.4865L118.067 33.9017L121.102 30.8673L119.687 29.1578C120.493 27.9297 121.035 26.581 121.324 25.1898L123.54 24.981V20.6899L121.324 20.4811C121.035 19.0902 120.493 17.7412 119.686 16.5133L121.102 14.8039L118.067 11.7694L116.358 13.1846C115.13 12.3783 113.781 11.8356 112.39 11.5469L112.181 9.33105H107.89L107.681 11.5472C106.29 11.8359 104.941 12.3783 103.713 13.1846L102.004 11.7694L98.9693 14.8039L100.385 16.5133L100.385 16.5131ZM114.144 18.7278C116.413 20.9962 116.413 24.6747 114.144 26.9434C111.875 29.212 108.197 29.212 105.929 26.9434C103.66 24.6747 103.66 20.9965 105.929 18.7278C108.197 16.4592 111.875 16.4592 114.144 18.7278H114.144Z" fill="#EBEBEB"/>
<path d="M24.1398 82.8978C23.247 84.2574 22.6468 85.7508 22.3268 87.2913L19.8734 87.5222V92.2733L22.3268 92.5045C22.6462 94.0445 23.247 95.5378 24.1398 96.8977L22.5728 98.7906L25.9325 102.15L27.8254 100.584C29.1853 101.476 30.6786 102.077 32.2189 102.397L32.4498 104.85H37.2009L37.4321 102.397C38.9723 102.077 40.4657 101.476 41.8256 100.584L43.7185 102.151L47.0782 98.7909L45.5114 96.898C46.4039 95.5381 47.0045 94.0448 47.3241 92.5048L49.7773 92.2736V87.5225L47.3241 87.2913C47.0045 85.7513 46.4037 84.258 45.5108 82.8981L47.0779 81.0052L43.7182 77.6455L41.8256 79.2126C40.4657 78.3197 38.9723 77.7189 37.4324 77.3993L37.2012 74.9458H32.45L32.2192 77.3995C30.6789 77.7192 29.1855 78.3197 27.8259 79.2126L25.933 77.6455L22.5733 81.0055L24.1404 82.8983L24.1398 82.8978ZM39.3738 85.3499C41.8853 87.8617 41.8856 91.9344 39.3738 94.4462C36.8617 96.958 32.789 96.9578 30.2774 94.4462C27.7656 91.9344 27.7656 87.8619 30.2774 85.3499C32.7892 82.838 36.8617 82.838 39.3738 85.3499Z" fill="#EBEBEB"/>
<path d="M87.82 11.0295C87.4713 11.5605 87.2368 12.144 87.1118 12.7459L86.1533 12.8361V14.6921L87.1118 14.7823C87.2366 15.3839 87.4713 15.9674 87.82 16.4984L87.2078 17.238L88.5202 18.5504L89.2595 17.9382C89.7908 18.2869 90.374 18.5214 90.9757 18.6465L91.0658 19.6049H92.9219L93.012 18.6465C93.6137 18.5214 94.1972 18.2869 94.7285 17.9382L95.4677 18.5504L96.7802 17.238L96.1682 16.4987C96.5169 15.9674 96.7514 15.3842 96.8765 14.7826L97.8349 14.6924V12.8364L96.8765 12.7462C96.7517 12.1446 96.5169 11.5611 96.1682 11.0301L96.7805 10.2905L95.468 8.97806L94.7287 9.59031C94.1975 9.24161 93.614 9.00682 93.0126 8.88202L92.9224 7.92358H91.0664L90.9762 8.88202C90.3746 9.00682 89.7911 9.24161 89.2601 9.59031L88.5208 8.97806L87.2084 10.2905L87.8206 11.0298L87.82 11.0295ZM93.7711 11.9874C94.7522 12.9687 94.7522 14.5595 93.7711 15.5408C92.7898 16.5222 91.1987 16.5219 90.2177 15.5408C89.2364 14.5595 89.2364 12.9687 90.2177 11.9874C91.199 11.0063 92.7898 11.006 93.7711 11.9874Z" fill="#EBEBEB"/>
<path d="M115.489 115.701C115.489 116.595 95.3469 117.319 70.5001 117.319C45.6532 117.319 25.5112 116.595 25.5112 115.701C25.5112 114.808 45.6532 114.084 70.5001 114.084C95.3469 114.084 115.489 114.808 115.489 115.701Z" fill="#F5F5F5"/>
<path d="M104.123 76.7971L70.8017 77.6229L37.48 76.7971C36.7884 81.4006 37.3164 86.5532 40.5141 89.9361C42.8411 92.3979 46.2796 93.566 49.6588 93.8022C53.0381 94.0387 56.4137 93.4359 59.7474 92.8359C62.9346 95.0284 67.2809 95.3617 70.802 93.7927C74.323 95.3617 78.6694 95.0281 81.8563 92.8359C85.1903 93.4359 88.5656 94.0387 91.9449 93.8022C95.3241 93.5657 98.7625 92.3979 101.09 89.9361C104.287 86.5529 104.815 81.4006 104.124 76.7971H104.123Z" fill="#254791"/>
<g opacity="0.2">
<path d="M104.123 76.7971L70.8017 77.6229L37.48 76.7971C36.7884 81.4006 37.3164 86.5532 40.5141 89.9361C42.8411 92.3979 46.2796 93.566 49.6588 93.8022C53.0381 94.0387 56.4137 93.4359 59.7474 92.8359C62.9346 95.0284 67.2809 95.3617 70.802 93.7927C74.323 95.3617 78.6694 95.0281 81.8563 92.8359C85.1903 93.4359 88.5656 94.0387 91.9449 93.8022C95.3241 93.5657 98.7625 92.3979 101.09 89.9361C104.287 86.5529 104.815 81.4006 104.124 76.7971H104.123Z" fill="white"/>
</g>
<g opacity="0.1">
<path d="M84.6243 83.373C84.5695 81.936 84.0438 80.5641 83.5248 79.2229L57.2067 85.5537C56.9577 87.1084 57.7288 88.778 59.0739 89.5965C59.9706 90.1421 61.0723 90.3294 61.8836 90.9952C62.473 91.4791 62.851 92.1695 63.3686 92.7295C65.0359 94.5342 67.7839 94.6975 70.2404 94.7374C72.0065 94.7662 73.8056 94.7905 75.4975 94.2826C77.1893 93.7751 78.7876 92.6407 79.403 90.9852C79.666 90.2777 79.7522 89.4832 80.209 88.8824C80.8748 88.0069 82.1041 87.8142 83.0025 87.1794C84.177 86.3496 84.679 84.8099 84.6243 83.373Z" fill="black"/>
</g>
<path d="M80.4285 81.4316L78.1459 70.6007L72.6217 69.3204V68.2522L70.3173 68.7863L68.0127 68.2522V69.3204L62.4884 70.6007L60.2058 81.4316C60.0478 84.174 61.4965 86.9508 63.8363 88.3903C64.3104 88.682 64.8498 88.9567 65.0793 89.464C65.299 89.9495 65.1717 90.5118 65.0815 91.0369C64.7546 92.9418 64.9843 94.9391 65.7351 96.72C66.3409 98.1572 67.294 99.7237 66.6745 101.155C66.38 101.836 65.7367 102.509 66.007 103.199C66.2655 103.86 67.2374 104.055 67.4124 104.742C67.6352 105.615 66.3627 106.474 66.8901 107.277C67.0584 107.533 67.363 107.671 67.6695 107.66C67.8856 107.653 68.0825 107.632 68.265 107.602C69.6258 107.375 71.0077 107.375 72.3685 107.602C72.5511 107.632 72.7479 107.653 72.964 107.66C73.2705 107.671 73.5751 107.533 73.7435 107.277C74.2709 106.474 72.9983 105.615 73.2211 104.742C73.3964 104.055 74.3683 103.859 74.6265 103.199C74.8968 102.509 74.2535 101.836 73.959 101.155C73.3395 99.7234 74.2926 98.1572 74.8985 96.72C75.6492 94.9391 75.879 92.9418 75.552 91.0369C75.4618 90.5118 75.3345 89.9495 75.5543 89.464C75.7837 88.957 76.3231 88.682 76.7972 88.3903C79.137 86.9508 80.5857 84.1743 80.4277 81.4316H80.4285Z" fill="#254791"/>
<g opacity="0.2">
<path d="M80.4285 81.4316L78.1459 70.6007L72.6217 69.3204V68.2522L70.3173 68.7863L68.0127 68.2522V69.3204L62.4884 70.6007L60.2058 81.4316C60.0478 84.174 61.4965 86.9508 63.8363 88.3903C64.3104 88.682 64.8498 88.9567 65.0793 89.464C65.299 89.9495 65.1717 90.5118 65.0815 91.0369C64.7546 92.9418 64.9843 94.9391 65.7351 96.72C66.3409 98.1572 67.294 99.7237 66.6745 101.155C66.38 101.836 65.7367 102.509 66.007 103.199C66.2655 103.86 67.2374 104.055 67.4124 104.742C67.6352 105.615 66.3627 106.474 66.8901 107.277C67.0584 107.533 67.363 107.671 67.6695 107.66C67.8856 107.653 68.0825 107.632 68.265 107.602C69.6258 107.375 71.0077 107.375 72.3685 107.602C72.5511 107.632 72.7479 107.653 72.964 107.66C73.2705 107.671 73.5751 107.533 73.7435 107.277C74.2709 106.474 72.9983 105.615 73.2211 104.742C73.3964 104.055 74.3683 103.859 74.6265 103.199C74.8968 102.509 74.2535 101.836 73.959 101.155C73.3395 99.7234 74.2926 98.1572 74.8985 96.72C75.6492 94.9391 75.879 92.9418 75.552 91.0369C75.4618 90.5118 75.3345 89.9495 75.5543 89.464C75.7837 88.957 76.3231 88.682 76.7972 88.3903C79.137 86.9508 80.5857 84.1743 80.4277 81.4316H80.4285Z" fill="black"/>
</g>
<g opacity="0.2">
<path d="M76.4192 72.2929L70.5831 70.9403V70.8169L70.3171 70.8786L70.0513 70.8169V70.9403L64.2149 72.2929L62.2347 81.6891C62.1758 83.6465 63.2358 85.6273 64.9043 86.6536L65.0561 86.7457C65.6198 87.0844 66.4719 87.5967 66.9367 88.6235C67.3976 89.6428 67.2259 90.6152 67.112 91.2587L67.0905 91.3813C66.8306 92.8964 67.0163 94.5109 67.6135 95.9278C67.7036 96.1416 67.8025 96.3588 67.9019 96.578C68.5445 97.994 69.4245 99.9335 68.5454 101.964C68.5219 102.019 68.4976 102.072 68.4731 102.124C68.353 102.376 68.4111 102.673 68.6062 102.873C68.9253 103.201 69.2364 103.642 69.3882 104.237C69.4966 104.662 68.6582 107.191 68.6015 107.55C69.8587 107.373 71.0575 107.404 72.3694 107.602C72.3127 107.242 71.1387 104.662 71.247 104.238C71.3992 103.641 71.7122 103.198 72.0324 102.869C72.2253 102.671 72.2828 102.378 72.1639 102.128C72.1385 102.075 72.1133 102.02 72.0891 101.964C71.2099 99.933 72.0902 97.9935 72.7328 96.5769C72.8322 96.358 72.9308 96.1414 73.021 95.9278C73.6179 94.5112 73.8035 92.8964 73.5433 91.3807L73.5215 91.2562C73.4082 90.6132 73.2368 89.6411 73.698 88.6224C74.1626 87.5961 75.0143 87.0841 75.578 86.7454L75.7296 86.6536C77.398 85.627 78.4581 83.6462 78.3992 81.6889L76.4189 72.2927L76.4192 72.2929Z" fill="black"/>
</g>
<path opacity="0.2" d="M55.4918 86.5005C55.4918 86.5005 59.0223 87.6399 61.7999 84.5382C64.5775 81.4364 66.0589 76.9756 66.2903 75.5027C66.2903 75.5027 71.1975 74.2519 70.6207 68.6038L66.244 69.1228L57.6152 74.4926L55.4918 86.5003V86.5005Z" fill="black"/>
<path opacity="0.2" d="M85.9899 86.5005C85.9899 86.5005 82.4593 87.6399 79.6817 84.5382C76.9041 81.4364 75.4228 76.9756 75.1913 75.5027C75.1913 75.5027 70.2841 74.2519 70.8609 68.6038L75.2377 69.1228L83.8664 74.4926L85.9899 86.5003V86.5005Z" fill="black"/>
<path d="M74.8897 12.771H67.3059V68.6044H74.8897V12.771Z" fill="#254791"/>
<path opacity="0.2" d="M74.8897 12.771H67.3059V68.6044H74.8897V12.771Z" fill="black"/>
<path d="M71.2265 13.6621C71.2265 13.6621 69.5874 10.04 63.5003 12.6741C63.5003 12.6741 50.9063 11.796 41.1458 24.7482C41.1458 24.7482 28.2612 31.0443 27.5023 46.3721L27.5018 51.0919C27.5018 51.0919 20.9943 59.8033 27.5018 67.4669C27.5018 67.4669 25.6134 73.3741 30.7559 77.6552C30.7559 77.6552 32.6452 84.0217 41.566 86.8755C50.4867 89.7293 62.6611 86.7657 64.97 79.9604C67.2788 73.155 66.6492 74.5819 66.6492 74.5819C69.5916 73.8767 71.6695 71.1264 71.6452 67.9694L71.2265 13.6621Z" fill="#254791"/>
<g opacity="0.4">
<path d="M71.3427 51.8789C66.7749 54.824 60.4776 53.3443 57.4971 48.8442C56.5046 47.4167 55.8616 45.755 55.6556 44.0559C56.0766 45.714 56.8371 47.2548 57.8497 48.5882C60.947 52.7877 66.6459 54.1342 71.3427 51.8789Z" fill="black"/>
<path d="M56.8335 48.5813C53.1295 51.604 47.7161 52.5209 43.2405 50.8159C47.8797 51.7221 52.7222 50.9044 56.8335 48.5813Z" fill="black"/>
<path d="M49.7815 51.4512C48.4121 52.49 48.0017 54.2924 47.9057 55.9234C47.7466 59.237 49.224 62.6129 51.9851 64.5136C53.3456 65.4626 54.9596 66.0748 56.6584 66.213C54.9417 66.2962 53.1988 65.8012 51.7439 64.8766C48.743 63.0275 47.1259 59.3607 47.473 55.8919C47.6449 54.2215 48.2424 52.3259 49.7815 51.4512Z" fill="black"/>
<path d="M71.3415 61.2215C66.6817 63.7065 59.3263 62.9636 56.1947 58.3861C55.779 57.7055 55.4699 56.9561 55.3638 56.1775C55.8013 57.6815 56.8256 58.9037 58.0697 59.8077C61.8845 62.4602 67.0231 62.7417 71.3415 61.2215Z" fill="black"/>
<path d="M56.4442 31.6522C58.3675 31.0738 59.929 29.6544 60.6205 27.773C60.8545 27.1574 61.0052 26.5058 61.0884 25.8198C61.7174 28.6131 59.3578 31.7315 56.4442 31.6522Z" fill="black"/>
<path d="M71.244 39.7521C65.6056 39.8677 62.079 34.3789 60.0236 29.7981C60.7699 30.8797 61.4681 31.9866 62.2102 33.0548C64.3585 36.2042 67.2704 39.2638 71.2443 39.7521H71.244Z" fill="black"/>
<path d="M71.0422 28.6471C69.0184 25.6601 66.5228 22.0575 62.5598 21.9732C61.3336 21.9696 60.0795 22.3643 59.1099 23.2128C59.9112 22.194 61.227 21.6108 62.5467 21.5377C66.7065 21.3632 69.5341 25.226 71.0422 28.6471Z" fill="black"/>
<path d="M63.4734 21.5408C63.5605 19.9453 62.4229 18.7334 61.1319 17.9801C60.6936 17.7115 60.2279 17.4639 59.7776 17.166C60.8502 17.336 61.9131 17.7096 62.7219 18.4768C63.5103 19.2297 64.0019 20.5279 63.4734 21.5408Z" fill="black"/>
<path d="M54.3191 19.1873C53.5028 21.7719 53.2814 24.5063 53.7825 27.1688C53.9447 28.0508 54.182 28.9213 54.4852 29.7839L54.4241 29.806L54.3912 29.5346L54.4875 29.7906L54.4263 29.8127C53.94 29.0313 53.581 28.1664 53.3389 27.2699C52.6312 24.5964 52.8992 21.584 54.3188 19.1875L54.3191 19.1873Z" fill="black"/>
<path d="M56.8034 28.3508C53.7564 30.5461 51.1234 34.3282 52.4836 38.18C52.9202 39.3621 53.7402 40.4439 54.9178 41.0531C54.2793 40.8557 53.7008 40.4839 53.2209 40.0162C51.1996 38.0519 51.1946 34.7871 52.4986 32.4241C53.4481 30.6482 55.0417 29.2562 56.8034 28.3508Z" fill="black"/>
<path d="M52.1608 38.2523C48.2857 38.6685 44.5963 40.6329 42.3929 43.8937C43.9067 40.1602 48.2075 37.8427 52.1608 38.2523Z" fill="black"/>
<path d="M36.5849 47.1557C35.624 42.0092 38.5817 36.2907 43.5087 34.3755C39.0325 37.0288 36.4827 41.9933 36.5849 47.1557Z" fill="black"/>
<path d="M39.8786 36.925C39.1703 33.4637 40.5565 29.5535 43.3598 27.3828C41.1704 30.0909 39.98 33.4509 39.8786 36.925Z" fill="black"/>
<path d="M39.5569 37.0486C37.6018 36.8501 35.7072 37.112 33.8685 37.8016C35.3267 36.3934 37.7833 36.0634 39.5569 37.0486Z" fill="black"/>
<path d="M44.9691 22.693C47.2701 20.5449 51.3543 20.9302 53.2393 23.4414C50.8124 21.6307 47.6785 21.325 44.9691 22.693Z" fill="black"/>
<path d="M67.6494 13.7646C69.0942 13.6236 70.5462 14.8638 70.6841 16.2993C69.8173 15.2468 68.8563 14.4067 67.6494 13.7646Z" fill="black"/>
<path d="M34.0295 41.1267C32.2293 45.5392 30.378 50.5436 32.2849 55.2146C32.8834 56.6976 33.8374 58.0782 35.2121 58.9992C34.4675 58.6421 33.8117 58.1053 33.2466 57.4908C29.1505 52.683 31.1715 46.0149 34.0298 41.1267H34.0295Z" fill="black"/>
<path d="M36.2574 53.9253C34.01 58.9676 36.2792 65.4849 41.7615 67.1192C43.4657 67.655 45.346 67.7184 47.1043 67.1745C45.4094 67.935 43.433 68.0229 41.6395 67.5377C35.8082 66.0717 33.2911 58.9576 36.2574 53.9253Z" fill="black"/>
<path d="M27.062 60.6367C27.7156 58.3904 30.1657 56.7094 32.503 57.0272C30.2941 57.5328 28.4155 58.831 27.062 60.6367Z" fill="black"/>
<path d="M27.715 51.1736C27.854 53.5087 28.7187 55.7089 30.2815 57.4586C28.1447 56.3055 27.0324 53.4894 27.715 51.1736Z" fill="black"/>
<path d="M32.1859 68.2522C31.9453 75.5037 36.7095 82.4389 44.3673 82.6159C45.3522 82.6262 46.4288 82.5598 47.4112 82.5503C46.4341 82.6798 45.3567 82.8144 44.3698 82.8898C36.4842 83.2215 31.1471 75.6857 32.1859 68.2522Z" fill="black"/>
<path d="M27.3586 67.6606C28.8151 68.7509 30.3782 69.544 32.134 70.0276C30.2794 70.3464 28.2425 69.3129 27.3586 67.6606Z" fill="black"/>
<path d="M44.8631 76.5424C48.129 75.9994 51.6584 75.9907 54.6884 77.5357C56.9384 78.7086 58.7547 80.8039 59.3388 83.2911C59.5164 84.113 59.57 84.9643 59.4298 85.7828C59.4778 84.12 58.9105 82.5242 58.0082 81.1942C55.1075 76.8528 49.6701 76.3291 44.8631 76.5427V76.5424Z" fill="black"/>
<g opacity="0.2">
<path d="M44.5526 51.3365C46.4449 53.0169 49.084 53.7352 51.5194 53.233C53.9547 52.7307 56.1354 50.6293 57.2761 48.3232C55.6354 49.3314 52.537 50.8133 50.7229 51.4149" fill="black"/>
</g>
<path opacity="0.2" d="M36.5265 44.0562C36.5265 44.0562 36.2211 38.9053 39.5571 35.6958C42.8931 32.4866 47.3879 32.9386 47.3879 32.9386C47.3879 32.9386 39.8405 33.9294 36.5265 44.0562Z" fill="black"/>
<g opacity="0.2">
<path d="M61.0913 27.3796C60.6848 29.1547 59.4835 30.602 57.9195 31.4119C58.9466 32.0233 60.3777 31.7469 61.1284 30.7924C61.8792 29.8379 61.8627 28.316 61.0913 27.3796Z" fill="black"/>
</g>
<path opacity="0.2" d="M57.0154 59.1612C57.1201 59.2673 58.8583 63.5751 64.234 63.6203C69.6094 63.6655 70.3556 61.6068 70.3556 61.6068C70.3556 61.6068 66.0113 63.0611 61.3293 61.391C56.6474 59.7209 57.0154 59.1612 57.0154 59.1612Z" fill="black"/>
</g>
<path opacity="0.2" d="M38.2741 65.4595C38.2741 65.4595 40.9509 69.8485 45.3031 69.3641C49.6553 68.8797 50.3527 65.9743 50.3527 65.9743C50.3527 65.9743 48.6369 67.4305 44.3134 67.6924C40.8446 67.9023 38.2741 65.4595 38.2741 65.4595Z" fill="black"/>
<path opacity="0.2" d="M62.8506 34.3755C62.8506 34.3755 63.5969 38.7668 67.3279 40.5463C70.0888 41.8629 71.4409 41.4807 71.4409 41.4807L71.4275 39.7523C71.4275 39.7523 67.599 40.673 62.8506 34.3755Z" fill="black"/>
<g opacity="0.2">
<path d="M60.2943 22.1971C61.8469 21.1239 63.8997 20.888 65.6379 21.5835C67.3761 22.2789 68.7547 23.8873 69.226 25.7701C67.3501 22.9263 63.8143 21.395 60.5654 22.0196" fill="black"/>
</g>
<g opacity="0.2">
<path d="M39.6112 36.9279C38.5392 34.0646 39.1096 30.6013 41.0354 28.2782C41.9729 27.1472 43.2725 26.2586 44.7019 26.1863C41.6337 28.6833 39.7614 32.7136 39.7804 36.7799" fill="black"/>
</g>
<g opacity="0.2">
<path d="M47.1843 76.1452C48.786 74.9481 50.9229 74.5729 52.8104 75.1569C54.6983 75.741 56.2958 77.2718 57.0172 79.1875C54.2709 77.085 50.7824 76.069 47.3923 76.3845" fill="black"/>
</g>
<path opacity="0.2" d="M45.9087 51.4511C45.7987 51.4402 47.6628 52.3174 47.6628 52.3174C47.6628 52.3174 44.5624 57.8224 49.0224 61.689C49.0224 61.689 47.1156 57.599 47.8683 54.6374C48.6209 51.6758 50.5445 51.1462 50.5445 51.1462C50.5445 51.1462 47.7491 51.632 45.9087 51.4514V51.4511Z" fill="black"/>
<path opacity="0.2" d="M43.6372 42.081C43.6372 42.081 44.9865 38.7417 47.5723 37.5962C50.1584 36.4507 50.9145 36.9281 50.9145 36.9281C50.9145 36.9281 50.5389 34.1103 52.7554 32.5C52.7554 32.5 51.4117 36.6998 52.1607 38.2523C52.1607 38.2523 47.277 37.9539 43.637 42.081H43.6372Z" fill="black"/>
<g opacity="0.2">
<path d="M52.807 41.4472C52.6546 41.2147 52.4742 41.0204 52.2746 40.8534C51.4097 40.1312 50.2304 39.9745 49.1882 40.3637C47.5768 40.9657 46.1239 41.9503 44.9254 43.2566C44.3502 43.8834 43.8042 44.7631 44.2894 45.5797C44.4438 45.8394 44.6872 46.0303 44.9594 46.1417C45.6476 46.4231 46.3593 46.2539 47.0374 46.0594C48.6139 45.6074 50.1525 45.0102 51.6297 44.2773C52.3676 43.911 53.1621 43.4345 53.1205 42.3914C53.1071 42.0534 52.9899 41.7261 52.807 41.447V41.4472Z" fill="white"/>
</g>
<g opacity="0.2">
<path d="M49.14 35.503C48.6006 34.4672 47.406 34.0122 46.3345 34.3801C43.46 35.3673 40.9437 37.4785 39.4244 40.2179C39.2658 40.5038 39.119 40.8765 39.3362 41.1392C39.4517 41.279 39.6402 41.331 39.8147 41.3022C40.1243 41.2514 40.3451 41.02 40.5595 40.8011C42.9591 38.3504 45.9355 36.522 49.1509 35.524L49.14 35.503Z" fill="white"/>
</g>
<g opacity="0.2">
<path d="M59.6307 18.6859C59.3261 18.2741 58.7954 18.1105 58.2976 18.1138C57.1574 18.1216 56.1015 18.8992 55.5264 19.9291C54.9513 20.959 54.8078 22.203 54.9133 23.3904C55.0189 24.5778 55.3578 25.7274 55.6945 26.8668L55.979 26.8271C56.357 24.7104 57.9257 23.0919 59.1519 21.3621C59.4302 20.9693 59.698 20.5556 59.8247 20.0849C59.9512 19.6142 59.9166 19.0725 59.6307 18.6859Z" fill="white"/>
</g>
<g opacity="0.2">
<path d="M68.1007 16.734C67.5616 15.5134 65.9438 14.728 64.681 14.4765C63.9953 14.4625 63.2759 14.4567 62.6692 14.7911C62.0625 15.1256 61.6298 15.9221 61.9135 16.5751C62.091 16.9836 62.4877 17.2295 62.8613 17.4501C64.0442 18.1478 65.2631 18.8586 66.6079 19.0545C67.0491 19.1188 67.5365 19.1137 67.8914 18.8323C68.4712 18.3722 68.4059 17.425 68.1007 16.734Z" fill="white"/>
</g>
<g opacity="0.2">
<path d="M68.6911 30.7533C68.5872 29.5643 68.1023 28.5229 67.5959 27.4896C67.4233 27.1373 67.2421 26.8525 67.0562 26.6219C66.0126 25.3296 63.9874 25.867 63.6074 27.5109C63.4787 28.0681 63.4826 28.6644 63.6323 29.2139C63.9935 30.5403 65.0648 31.5691 66.2851 32.092C67.1051 32.4435 68.2243 32.5256 68.6065 31.5127C68.697 31.2729 68.7137 31.0099 68.6914 30.7533H68.6911Z" fill="white"/>
</g>
<g opacity="0.2">
<path d="M63.0848 72.1862C63.4634 74.3886 63.3034 76.7343 62.3645 78.7453C61.4256 80.7563 59.6528 82.3875 57.5559 82.8331C55.4589 83.2784 53.0926 82.399 51.9365 80.5159C48.1482 83.081 42.1122 84.1277 37.8128 81.0815C33.5134 78.0353 31.525 72.9028 32.1342 67.509C29.2338 66.4263 26.4846 63.5061 25.6814 60.3968C24.8779 57.2875 25.6197 53.7874 27.6039 51.3242L27.4498 51.165C26.8515 52.0087 21.3373 60.2078 27.502 67.4677C27.502 67.4677 25.6136 73.3749 30.7562 77.6559C30.7562 77.6559 32.6451 84.0224 41.5662 86.8762C50.4869 89.7301 62.6613 86.7665 64.9702 79.9609C66.2784 76.1048 66.643 74.8926 66.7134 74.5654C69.6216 73.8356 71.6695 71.1038 71.6452 67.9697L71.612 63.6699L71.5944 63.6429C70.9581 68.014 67.2868 71.7004 63.0848 72.1867V72.1862Z" fill="black"/>
</g>
<path opacity="0.2" d="M27.5024 46.3724L27.5018 49.9507C27.5049 49.2349 27.6693 40.3186 33.8689 32.9166C40.3323 25.1997 43.5086 26.4393 43.5086 26.4393C43.5086 26.4393 43.7288 20.9031 52.7554 16.5272C61.7817 12.1512 63.499 15.0316 63.499 15.0316C63.499 15.0316 65.5951 11.8123 70.8013 13.0527C69.9984 12.1501 67.9255 10.7592 63.5001 12.6744C63.5001 12.6744 50.9061 11.7964 41.1456 24.7486C41.1456 24.7486 28.2612 31.0447 27.5024 46.3724Z" fill="white"/>
<path d="M71.3125 13.6621C71.3125 13.6621 72.9514 10.04 79.0387 12.6741C79.0387 12.6741 91.6327 11.796 101.393 24.7482C101.393 24.7482 114.278 31.0443 115.037 46.3721L115.037 51.0919C115.037 51.0919 121.545 59.8033 115.037 67.4669C115.037 67.4669 116.926 73.3741 111.783 77.6552C111.783 77.6552 109.894 84.0217 100.973 86.8755C92.0523 89.7293 79.8779 86.7657 77.5691 79.9604C75.2602 73.155 75.8898 74.5819 75.8898 74.5819C72.9474 73.8767 70.8695 71.1264 70.8938 67.9694L71.3125 13.6621Z" fill="#254791"/>
<g opacity="0.4">
<path d="M71.1965 51.8789C75.8946 54.1344 81.5919 52.7877 84.6894 48.5882C85.702 47.2548 86.4628 45.714 86.8835 44.0559C86.6775 45.755 86.0346 47.4167 85.0421 48.8442C82.062 53.3443 75.7622 54.8237 71.1965 51.8789Z" fill="black"/>
<path d="M85.7054 48.5813C89.8164 50.9044 94.6591 51.7221 99.2983 50.8159C94.823 52.5209 89.4096 51.6043 85.7054 48.5813Z" fill="black"/>
<path d="M92.7574 51.4512C94.2968 52.3261 94.8937 54.2212 95.066 55.8919C95.413 59.3607 93.796 63.0275 90.795 64.8766C89.3405 65.8012 87.5973 66.2962 85.8806 66.213C87.5794 66.0748 89.1933 65.4626 90.5538 64.5136C93.3149 62.6129 94.7924 59.2373 94.633 55.9234C94.5372 54.2924 94.1265 52.4897 92.7571 51.4512H92.7574Z" fill="black"/>
<path d="M71.1975 61.2215C75.5156 62.7417 80.6551 62.4602 84.4694 59.8077C85.7131 58.9037 86.7377 57.6812 87.1752 56.1775C87.0691 56.9561 86.7601 57.7055 86.3444 58.3858C83.2122 62.963 75.8602 63.7068 71.1975 61.2212V61.2215Z" fill="black"/>
<path d="M86.0947 31.6523C83.1811 31.7313 80.8217 28.6131 81.4505 25.8198C81.5337 26.5055 81.6844 27.1574 81.9181 27.773C82.6096 29.6547 84.1711 31.0738 86.0944 31.6523H86.0947Z" fill="black"/>
<path d="M71.2946 39.7521C75.2691 39.2633 78.1799 36.2045 80.3287 33.0548C81.0705 31.9863 81.769 30.8794 82.5153 29.7981C80.4616 34.3773 76.9313 39.8696 71.2946 39.7521Z" fill="black"/>
<path d="M71.4967 28.6472C73.0035 25.2272 75.8335 21.3621 79.9923 21.5378C81.3117 21.6109 82.6275 22.1941 83.4287 23.2129C82.4591 22.3644 81.205 21.9696 79.9789 21.9733C76.0147 22.0584 73.5216 25.6591 71.4967 28.6472Z" fill="black"/>
<path d="M79.0655 21.5409C78.537 20.5277 79.0286 19.2298 79.817 18.4765C80.6258 17.7093 81.6887 17.3361 82.7613 17.1658C82.311 17.4637 81.8453 17.7113 81.407 17.9799C80.1163 18.7328 78.9784 19.9453 79.0655 21.5406V21.5409Z" fill="black"/>
<path d="M88.2201 19.187C89.6397 21.5836 89.9077 24.596 89.2 27.2694C88.958 28.1656 88.5992 29.0308 88.1126 29.8122L88.0515 29.7902L88.1478 29.5342L88.1148 29.8055L88.0537 29.7835C88.3572 28.9208 88.5942 28.05 88.7564 27.1683C89.2575 24.5058 89.0361 21.7714 88.2198 19.1868L88.2201 19.187Z" fill="black"/>
<path d="M85.7357 28.3508C87.4973 29.2559 89.0909 30.648 90.0404 32.4238C91.3445 34.7866 91.3394 38.0525 89.3181 40.0162C88.8382 40.4836 88.2598 40.8557 87.6213 41.0531C88.7989 40.4442 89.6188 39.3621 90.0555 38.18C91.4154 34.3273 88.7832 30.5469 85.7357 28.3508Z" fill="black"/>
<path d="M90.3784 38.2523C94.3314 37.8427 98.6325 40.1602 100.146 43.8937C97.9429 40.6329 94.2538 38.6685 90.3784 38.2523Z" fill="black"/>
<path d="M105.954 47.1557C106.057 41.9933 103.507 37.0288 99.0306 34.3755C103.958 36.291 106.915 42.0089 105.954 47.1557Z" fill="black"/>
<path d="M102.66 36.925C102.559 33.4509 101.369 30.0906 99.1789 27.3828C101.982 29.5535 103.369 33.4637 102.66 36.925Z" fill="black"/>
<path d="M102.982 37.0486C104.756 36.063 107.212 36.393 108.67 37.8012C106.832 37.1119 104.937 36.8501 102.982 37.0486Z" fill="black"/>
<path d="M97.5701 22.6928C94.86 21.3246 91.7265 21.6308 89.2998 23.4413C91.1849 20.9301 95.2693 20.5451 97.5701 22.6928Z" fill="black"/>
<path d="M74.8893 13.7646C73.6824 14.4067 72.7214 15.2468 71.8546 16.2993C71.9925 14.8638 73.4445 13.6236 74.8893 13.7646Z" fill="black"/>
<path d="M108.509 41.1267C111.368 46.0138 113.389 52.6844 109.293 57.4908C108.728 58.1053 108.071 58.6421 107.327 58.9992C108.702 58.0779 109.656 56.6976 110.254 55.2146C112.161 50.5427 110.31 45.5406 108.51 41.1267H108.509Z" fill="black"/>
<path d="M106.281 53.9253C109.248 58.9598 106.73 66.0709 100.899 67.5377C99.1059 68.0229 97.1295 67.935 95.4349 67.1745C97.1932 67.7184 99.0735 67.655 100.778 67.1195C106.26 65.4854 108.529 58.9662 106.282 53.9256L106.281 53.9253Z" fill="black"/>
<path d="M115.477 60.6369C114.123 58.8315 112.245 57.533 110.036 57.0276C112.373 56.7099 114.823 58.3906 115.477 60.6369Z" fill="black"/>
<path d="M114.824 51.1736C115.507 53.4891 114.394 56.3055 112.258 57.4586C113.82 55.7092 114.685 53.5087 114.824 51.1736Z" fill="black"/>
<path d="M110.353 68.2522C111.392 75.6888 106.054 83.2206 98.1692 82.8895C97.1826 82.8136 96.1063 82.6796 95.1278 82.5503C96.1091 82.5598 97.1865 82.6268 98.1718 82.6159C105.83 82.4397 110.594 75.5004 110.353 68.2522H110.353Z" fill="black"/>
<path d="M115.18 67.6606C114.296 69.3129 112.259 70.3464 110.405 70.0276C112.161 69.544 113.724 68.7506 115.18 67.6606Z" fill="black"/>
<path d="M97.6759 76.5422C92.8694 76.3286 87.4312 76.8527 84.531 81.194C83.6287 82.524 83.0614 84.1198 83.1094 85.7826C82.9693 84.9641 83.0229 84.1131 83.2004 83.2909C83.7845 80.8037 85.6009 78.7084 87.8508 77.5355C90.8808 75.9908 94.41 75.9995 97.6761 76.5422H97.6759Z" fill="black"/>
<g opacity="0.2">
<path d="M97.9865 51.3365C96.0942 53.0169 93.4551 53.7352 91.0198 53.233C88.5845 52.7307 86.4037 50.6293 85.263 48.3232C86.9038 49.3314 90.0021 50.8133 91.8163 51.4149" fill="black"/>
</g>
<path opacity="0.2" d="M106.013 44.0562C106.013 44.0562 106.318 38.9053 102.982 35.6958C99.6459 32.4866 95.1513 32.9386 95.1513 32.9386C95.1513 32.9386 102.699 33.9294 106.013 44.0562Z" fill="black"/>
<g opacity="0.2">
<path d="M81.4475 27.3796C81.854 29.1547 83.0553 30.602 84.6193 31.4119C83.5922 32.0233 82.1611 31.7469 81.4104 30.7924C80.6594 29.8379 80.6761 28.316 81.4475 27.3796Z" fill="black"/>
</g>
<path opacity="0.2" d="M85.524 59.1612C85.4193 59.2673 83.6811 63.5751 78.3054 63.6203C72.93 63.6655 72.1838 61.6068 72.1838 61.6068C72.1838 61.6068 76.5282 63.0611 81.2101 61.391C85.892 59.7209 85.524 59.1612 85.524 59.1612Z" fill="black"/>
</g>
<path opacity="0.2" d="M104.265 65.4595C104.265 65.4595 101.588 69.8485 97.2362 69.3641C92.8838 68.8797 92.1866 65.9743 92.1866 65.9743C92.1866 65.9743 93.9025 67.4305 98.226 67.6924C101.695 67.9023 104.265 65.4595 104.265 65.4595Z" fill="black"/>
<path opacity="0.2" d="M79.6884 34.3755C79.6884 34.3755 78.9422 38.7668 75.2111 40.5463C72.4503 41.8629 71.0982 41.4807 71.0982 41.4807L71.1116 39.7523C71.1116 39.7523 74.9401 40.673 79.6884 34.3755Z" fill="black"/>
<g opacity="0.2">
<path d="M82.2443 22.1971C80.6918 21.1239 78.639 20.888 76.9008 21.5835C75.1626 22.2789 73.7839 23.8873 73.3127 25.7701C75.1885 22.9263 78.7244 21.395 81.9733 22.0196" fill="black"/>
</g>
<g opacity="0.2">
<path d="M102.928 36.9279C104 34.0646 103.429 30.6013 101.504 28.2782C100.566 27.1472 99.2665 26.2586 97.8371 26.1863C100.905 28.6833 102.778 32.7136 102.759 36.7799" fill="black"/>
</g>
<g opacity="0.2">
<path d="M95.3548 76.1452C93.7531 74.9481 91.6162 74.5729 89.7287 75.1569C87.8408 75.741 86.2433 77.2718 85.5219 79.1875C88.2682 77.085 91.7567 76.069 95.1468 76.3845" fill="black"/>
</g>
<path opacity="0.2" d="M96.6299 51.4511C96.7399 51.4402 94.8758 52.3174 94.8758 52.3174C94.8758 52.3174 97.9762 57.8224 93.5162 61.689C93.5162 61.689 95.423 57.599 94.6703 54.6374C93.9177 51.6758 91.9941 51.1462 91.9941 51.1462C91.9941 51.1462 94.7896 51.632 96.6299 51.4514V51.4511Z" fill="black"/>
<path opacity="0.2" d="M98.9018 42.081C98.9018 42.081 97.5525 38.7417 94.9667 37.5962C92.3806 36.4507 91.6246 36.9281 91.6246 36.9281C91.6246 36.9281 92.0001 34.1103 89.7836 32.5C89.7836 32.5 91.1273 36.6998 90.3783 38.2523C90.3783 38.2523 95.2621 37.9539 98.9021 42.081H98.9018Z" fill="black"/>
<g opacity="0.2">
<path d="M89.7323 41.4472C89.8847 41.2147 90.0651 41.0204 90.2647 40.8534C91.1296 40.1312 92.3089 39.9745 93.3511 40.3637C94.9625 40.9657 96.4154 41.9503 97.6137 43.2566C98.1888 43.8834 98.7349 44.7631 98.2496 45.5797C98.0953 45.8394 97.8518 46.0303 97.5796 46.1417C96.8914 46.4231 96.1798 46.2539 95.5016 46.0594C93.9251 45.6074 92.3865 45.0102 90.9093 44.2773C90.1715 43.911 89.3769 43.4345 89.4185 42.3914C89.4319 42.0534 89.5492 41.7261 89.732 41.447L89.7323 41.4472Z" fill="white"/>
</g>
<g opacity="0.2">
<path d="M93.3988 35.503C93.9382 34.4672 95.1328 34.0122 96.2044 34.3801C99.0788 35.3673 101.595 37.4785 103.114 40.2179C103.273 40.5038 103.42 40.8765 103.203 41.1392C103.087 41.279 102.899 41.331 102.724 41.3022C102.415 41.2514 102.194 41.02 101.979 40.8011C99.5797 38.3504 96.6033 36.522 93.3879 35.524L93.3988 35.503Z" fill="white"/>
</g>
<g opacity="0.2">
<path d="M82.908 18.6859C83.2126 18.2741 83.7434 18.1105 84.2411 18.1138C85.3813 18.1216 86.4372 18.8992 87.0123 19.9291C87.5874 20.959 87.7309 22.203 87.6254 23.3904C87.5199 24.5778 87.181 25.7274 86.8443 26.8668L86.5598 26.8271C86.1817 24.7104 84.613 23.0919 83.3868 21.3621C83.1085 20.9693 82.8408 20.5556 82.7143 20.0849C82.5878 19.6142 82.6224 19.0725 82.9083 18.6859H82.908Z" fill="white"/>
</g>
<g opacity="0.2">
<path d="M74.4381 16.734C74.9772 15.5134 76.5951 14.728 77.8578 14.4765C78.5435 14.4625 79.263 14.4567 79.8696 14.7911C80.4763 15.1256 80.909 15.9221 80.6254 16.5751C80.4478 16.9836 80.0511 17.2295 79.6775 17.4501C78.4946 18.1478 77.2757 18.8586 75.9309 19.0545C75.4898 19.1188 75.0023 19.1137 74.6475 18.8323C74.0676 18.3722 74.1329 17.425 74.4381 16.734Z" fill="white"/>
</g>
<g opacity="0.2">
<path d="M75.8182 46.1617C75.9221 44.9727 76.407 43.9313 76.9135 42.8981C77.086 42.5458 77.2672 42.261 77.4532 42.0304C78.4967 40.738 80.5219 41.2755 80.9019 42.9193C81.0306 43.4766 81.0267 44.0729 80.8771 44.6223C80.5158 45.9487 79.4446 46.9775 78.2243 47.5004C77.4043 47.8519 76.285 47.934 75.9028 46.9211C75.8124 46.6813 75.7959 46.4183 75.8182 46.1617Z" fill="white"/>
</g>
<g opacity="0.2">
<path d="M79.4539 72.1862C79.0754 74.3886 79.2353 76.7343 80.1742 78.7453C81.1131 80.7563 82.8859 82.3875 84.9829 82.8331C87.0798 83.2784 89.4462 82.399 90.6023 80.5159C94.3906 83.081 100.427 84.1277 104.726 81.0815C109.025 78.0353 111.014 72.9028 110.405 67.509C113.305 66.4263 116.054 63.5061 116.857 60.3968C117.661 57.2875 116.919 53.7874 114.935 51.3242L115.089 51.165C115.687 52.0087 121.201 60.2078 115.037 67.4677C115.037 67.4677 116.925 73.3749 111.783 77.6559C111.783 77.6559 109.893 84.0224 100.973 86.8762C92.0518 89.7301 79.8775 86.7665 77.5686 79.9609C76.2603 76.1048 75.8957 74.8926 75.8254 74.5654C72.9171 73.8356 70.8693 71.1038 70.8936 67.9697L70.9268 63.6699L70.9444 63.6429C71.5807 68.014 75.2519 71.7004 79.4539 72.1867V72.1862Z" fill="black"/>
</g>
<path opacity="0.2" d="M115.036 46.3724L115.037 49.9507C115.034 49.2349 114.87 40.3186 108.67 32.9166C102.207 25.1997 99.0303 26.4393 99.0303 26.4393C99.0303 26.4393 98.81 20.9031 89.7834 16.5272C80.7571 12.1512 79.0399 15.0316 79.0399 15.0316C79.0399 15.0316 76.9435 11.8123 71.7375 13.0527C72.5405 12.1501 74.6134 10.7592 79.0388 12.6744C79.0388 12.6744 91.6328 11.7964 101.393 24.7486C101.393 24.7486 114.278 31.0447 115.037 46.3724H115.036Z" fill="white"/>
<path d="M71.1512 69.2641C71.0206 51.5463 71.0761 31.6698 71.3104 13.9531C71.4427 31.671 71.3838 51.5474 71.1512 69.2641Z" fill="#254791"/>
<path opacity="0.6" d="M71.151 69.2641C70.8305 50.895 70.881 32.3201 71.3101 13.9531C71.6334 32.3223 71.577 50.8972 71.151 69.2641Z" fill="black"/>
</svg>
